<?xml version="1.0" standalone="no"?>
<!DOCTYPE svg PUBLIC "-//W3C//DTD SVG 20010904//EN"
 "http://www.w3.org/TR/2001/REC-SVG-20010904/DTD/svg10.dtd">
<svg version="1.0" xmlns="http://www.w3.org/2000/svg"
 width="700.000000pt" height="700.000000pt" viewBox="0 0 700.000000 700.000000"
 preserveAspectRatio="xMidYMid meet">
<metadata>
Created by potrace 1.14, written by Peter Selinger 2001-2017
</metadata>
<g transform="translate(0.000000,700.000000) scale(0.100000,-0.100000)"
fill="#000000" stroke="none">
<path d="M0 3500 l0 -3500 3500 0 3500 0 0 3500 0 3500 -3500 0 -3500 0 0
-3500z m1420 2253 c38 -20 68 -46 100 -88 53 -68 165 -144 215 -145 19 0 54
16 97 45 129 86 185 110 263 110 84 0 129 -17 145 -55 24 -59 -78 -261 -163
-322 -28 -20 -43 -23 -114 -22 -46 0 -83 -1 -83 -3 0 -2 24 -15 53 -28 108
-49 238 -51 370 -6 33 12 92 28 133 36 79 16 166 10 449 -30 55 -8 219 -31
365 -50 146 -20 326 -44 400 -55 74 -11 214 -24 310 -30 96 -6 213 -17 260
-25 47 -8 142 -15 212 -15 112 0 156 -6 355 -46 276 -56 377 -60 547 -24 152
32 185 27 345 -54 212 -106 259 -146 287 -244 19 -72 27 -91 85 -233 87 -209
106 -325 119 -740 13 -417 26 -455 222 -650 186 -185 232 -276 232 -459 1 -74
-5 -112 -24 -170 l-24 -75 -11 95 c-6 52 -16 105 -23 117 -6 11 -33 37 -59 56
-109 80 -213 210 -268 334 -79 176 -106 350 -110 708 -3 288 -14 392 -60 560
-31 114 -67 207 -82 212 -15 5 -37 -66 -73 -248 -52 -254 -62 -383 -58 -727 5
-342 6 -350 80 -497 59 -118 61 -126 38 -221 -18 -73 -20 -119 -21 -445 -1
-395 3 -431 57 -528 34 -61 32 -71 -16 -71 -34 0 -41 -4 -46 -25 -3 -14 -1
-45 5 -70 23 -91 11 -136 -40 -154 -39 -14 -248 -15 -283 -1 -14 5 -26 17 -26
27 0 9 27 71 61 137 86 173 102 254 103 541 l1 220 -39 80 c-21 44 -51 127
-66 185 -16 58 -38 128 -50 155 -12 28 -35 87 -52 133 -16 45 -34 82 -39 82
-5 0 -16 -11 -25 -26 -15 -22 -16 -32 -4 -96 11 -59 12 -96 1 -217 -7 -80 -16
-264 -18 -409 -5 -230 -3 -272 12 -328 16 -61 17 -66 0 -84 -9 -10 -30 -22
-47 -25 -33 -8 -42 -25 -52 -104 -4 -30 -12 -63 -17 -74 -19 -34 -71 -47 -181
-46 -110 1 -149 8 -155 26 -3 7 32 50 76 98 96 104 118 146 137 267 26 165 29
332 9 444 -18 103 -16 277 5 419 5 33 5 78 2 100 l-7 40 -38 -61 c-20 -34 -55
-79 -78 -100 -23 -21 -50 -47 -60 -56 -14 -13 -19 -32 -19 -69 0 -56 -17 -136
-32 -145 -5 -3 -15 0 -23 6 -11 9 -15 35 -15 96 0 46 -4 84 -9 84 -15 0 -21
-29 -21 -105 0 -41 -4 -76 -9 -79 -5 -4 -21 -2 -35 4 -24 9 -26 14 -26 74 0
84 -13 118 -43 114 -20 -3 -22 -9 -25 -78 -3 -82 -10 -95 -41 -85 -19 6 -21
14 -21 86 0 64 -3 79 -15 79 -12 0 -15 -14 -15 -70 0 -63 -2 -70 -19 -70 -26
0 -32 12 -35 70 -3 60 -21 89 -89 139 -30 21 -73 62 -97 91 -50 60 -55 60
-180 13 -72 -27 -81 -28 -255 -28 -166 1 -199 4 -415 43 -258 45 -283 52 -388
107 -67 35 -75 37 -110 27 -69 -21 -86 -50 -147 -257 -31 -104 -90 -300 -132
-435 -42 -135 -79 -265 -84 -290 -11 -62 -11 -331 0 -408 5 -34 19 -82 30
-106 12 -23 21 -51 21 -61 0 -27 -29 -55 -57 -55 -20 0 -23 5 -23 36 0 43 -18
42 -39 -1 -13 -26 -12 -35 3 -75 37 -94 29 -159 -24 -204 -37 -31 -150 -42
-296 -30 -117 11 -123 18 -75 96 17 27 31 51 31 53 0 1 -45 4 -100 7 -108 4
-138 17 -126 55 4 11 47 59 96 106 87 84 90 88 114 169 14 46 39 148 57 228
42 189 43 275 6 389 -29 88 -47 239 -47 403 0 47 -3 94 -6 103 -4 9 -27 27
-53 40 -75 38 -105 79 -205 286 -123 253 -143 272 -298 294 -59 8 -101 41
-133 106 -44 86 -86 275 -100 454 -9 122 -27 171 -87 245 -29 36 -62 79 -74
95 l-21 30 -129 1 c-155 2 -283 24 -375 64 -65 29 -68 29 -109 15 -23 -8 -63
-15 -89 -15 -49 0 -246 62 -270 85 -14 14 -25 223 -12 242 3 5 33 27 65 47 74
47 143 118 241 248 l75 99 0 95 c0 118 13 150 82 204 68 54 88 90 88 161 0 77
20 102 81 101 24 -1 64 -8 88 -17 72 -25 95 -20 144 30 40 40 50 45 89 45 29
0 64 -10 98 -27z"/>
</g>
</svg>
