<svg xmlns="http://www.w3.org/2000/svg" xmlns:xlink="http://www.w3.org/1999/xlink" zoomAndPan="magnify" preserveAspectRatio="xMidYMid meet" version="1.0" viewBox="84.63 100.86 216 201.75"><defs><g/><clipPath id="id1"><path d="M 84.671875 100.863281 L 299.921875 100.863281 L 299.921875 302.613281 L 84.671875 302.613281 Z M 84.671875 100.863281 " clip-rule="nonzero"/></clipPath></defs><g clip-path="url(#id1)"><path fill="rgb(100%, 100%, 100%)" d="M 193.117188 106.140625 L 243.839844 129.777344 L 294.5625 153.417969 L 295.230469 153.730469 L 295.230469 249.75 L 294.5625 250.058594 L 243.839844 273.703125 L 193.117188 297.339844 L 192.632812 297.566406 L 192.140625 297.339844 L 141.421875 273.703125 L 90.699219 250.058594 L 90.03125 249.75 L 90.03125 153.730469 L 90.699219 153.417969 L 141.421875 129.777344 L 192.140625 106.140625 L 192.632812 105.910156 Z M 242.863281 131.859375 L 192.632812 108.445312 L 142.398438 131.859375 L 92.34375 155.1875 L 92.34375 248.289062 L 142.398438 271.621094 L 192.632812 295.03125 L 242.863281 271.621094 L 292.917969 248.289062 L 292.917969 155.1875 Z M 193.117188 101.101562 L 246.539062 126 L 299.964844 150.902344 L 300.632812 151.214844 L 300.632812 252.265625 L 299.964844 252.578125 L 246.539062 277.476562 L 193.117188 302.375 L 192.632812 302.605469 L 192.140625 302.375 L 138.722656 277.476562 L 85.296875 252.578125 L 84.628906 252.265625 L 84.628906 151.214844 L 85.296875 150.902344 L 138.722656 126 L 192.140625 101.101562 L 192.632812 100.875 Z M 245.5625 128.082031 L 192.632812 103.410156 L 139.695312 128.082031 L 86.941406 152.667969 L 86.941406 250.808594 L 139.695312 275.394531 L 192.632812 300.066406 L 245.5625 275.394531 L 298.320312 250.808594 L 298.320312 152.667969 L 245.5625 128.082031 " fill-opacity="1" fill-rule="nonzero"/></g><path fill="rgb(100%, 100%, 100%)" d="M 109.960938 202.933594 L 275.300781 202.933594 C 274.28125 201.214844 272.929688 202.238281 272.578125 201.636719 C 271.804688 200.3125 272.359375 199.183594 267.027344 200.574219 C 264.945312 201.121094 265.367188 196.964844 260.691406 201.882812 C 260.558594 202.019531 253.875 202.828125 252.1875 200.792969 C 251.789062 200.3125 240.042969 198.121094 238.382812 199.222656 C 234.410156 201.851562 233.507812 198.195312 226.859375 198.195312 C 219.652344 198.195312 218.34375 198.058594 210.226562 197.367188 C 208.5625 197.21875 205.949219 197.425781 202.050781 197.304688 C 192.898438 197.019531 186.289062 200.039062 180.675781 199.390625 C 176.171875 198.875 166.992188 199.222656 158.285156 199.148438 C 152.539062 199.101562 147.078125 199.941406 143.902344 200.816406 L 142.609375 200.527344 C 138.457031 200.589844 130.542969 198.855469 127.136719 200.027344 C 116.003906 203.859375 123.382812 194.46875 115.773438 198.789062 C 113.109375 200.296875 113.496094 198.65625 112.675781 201.457031 C 112.464844 202.1875 111.328125 201.6875 110.601562 202.265625 C 110.3125 202.5 109.960938 201.417969 109.960938 202.933594 " fill-opacity="1" fill-rule="evenodd"/><path fill="rgb(100%, 100%, 100%)" d="M 194.785156 184.023438 C 193.097656 183.492188 189.804688 182.835938 185.699219 183.949219 C 179.738281 185.5625 179.835938 185.359375 179.835938 185.359375 C 179.835938 185.359375 179.699219 185.699219 179.949219 186.054688 C 180.203125 186.40625 180.117188 186.597656 180.117188 186.597656 C 180.117188 186.597656 179.6875 187.179688 179.09375 186.671875 C 178.496094 186.167969 178.347656 185.800781 177.523438 185.03125 C 176.703125 184.265625 174.074219 183.609375 171.796875 182.246094 C 170.726562 181.601562 169.65625 180.9375 168.828125 180.414062 C 167.820312 179.777344 167.101562 179.722656 166.867188 180.929688 C 166.710938 181.734375 166.53125 182.933594 166.367188 184.691406 C 165.960938 189.03125 165.304688 188.679688 165.050781 189.9375 C 164.796875 191.199219 165.808594 195.339844 166.617188 196.144531 C 167.425781 196.949219 167.148438 197.304688 167.277344 197.554688 C 167.402344 197.808594 168.765625 198.792969 168.765625 198.792969 C 168.765625 198.792969 168.765625 199.246094 168.453125 199.296875 L 168.324219 199.296875 C 168.171875 199.28125 167.894531 199.28125 167.597656 199.296875 C 167.011719 199.316406 166.339844 199.375 166.339844 199.375 C 166.339844 199.375 165.707031 198.917969 165.683594 198.59375 C 165.65625 198.261719 165.328125 198.214844 165.328125 198.214844 C 165.328125 198.214844 164.292969 198.335938 164.09375 197.304688 C 163.886719 196.269531 163.332031 194.65625 163.054688 193.871094 C 162.777344 193.089844 161.5625 190.0625 161.183594 189.382812 C 160.804688 188.703125 160.929688 188.652344 160.929688 188.652344 C 160.929688 188.652344 159.769531 193.917969 160.671875 196.667969 C 160.941406 197.121094 160.808594 197.367188 160.90625 197.554688 C 161.027344 197.808594 162.394531 198.792969 162.394531 198.792969 C 162.394531 198.792969 162.394531 199.347656 161.964844 199.296875 C 161.535156 199.246094 159.96875 199.375 159.96875 199.375 C 159.96875 199.375 159.335938 198.917969 159.3125 198.59375 C 159.289062 198.261719 158.957031 198.214844 158.957031 198.214844 C 158.957031 198.214844 158.089844 197.820312 157.976562 197.226562 C 157.859375 196.632812 157.984375 196.828125 157.96875 196.632812 C 157.925781 196.378906 157.84375 194.449219 157.53125 192.230469 C 157.171875 189.699219 156.613281 186.78125 157.214844 185.335938 C 158.351562 182.625 158.515625 182.492188 158.515625 182.492188 C 158.515625 182.492188 159.777344 179.664062 158.261719 177.546875 C 157.816406 176.925781 157.382812 175.914062 156.996094 174.757812 C 156.953125 176.160156 156.886719 178.175781 156.851562 178.828125 C 156.800781 179.871094 156.851562 180.496094 157.0625 181.695312 C 157.273438 182.894531 156.988281 185.917969 156.988281 185.917969 C 156.988281 185.917969 156.683594 186.582031 156.59375 187.152344 C 156.503906 187.726562 156.992188 188.140625 156.894531 188.457031 C 156.796875 188.773438 156.765625 189.378906 156.917969 190.082031 C 157.074219 190.789062 157.050781 191.464844 157.105469 192.167969 C 157.15625 192.875 156.710938 193.601562 156.449219 193.757812 C 156.191406 193.914062 155.566406 193.707031 155.351562 194.042969 C 155.144531 194.382812 154.234375 194.332031 154.234375 194.332031 C 154.234375 194.332031 154.726562 194.042969 154.285156 193.210938 C 153.839844 192.378906 153.980469 191.804688 153.824219 191.035156 C 153.667969 190.269531 154.582031 189.316406 154.558594 188.300781 C 154.53125 187.285156 153.933594 186.605469 153.933594 186.605469 C 153.59375 184.625 153.878906 184.339844 154.0625 183.6875 C 154.242188 183.035156 155.863281 178.164062 156.019531 175.324219 C 156.269531 170.792969 153.789062 165.820312 156.640625 161.789062 C 157.914062 159.996094 159.957031 158.699219 162.941406 159.183594 C 164.046875 159.363281 164.457031 159.3125 165.136719 159.285156 C 165.820312 159.257812 168.777344 159.589844 170.886719 159.761719 C 172.996094 159.9375 177.132812 159.285156 180.746094 159.789062 C 184.671875 160.335938 185.574219 159.726562 188.78125 159.554688 C 189.789062 159.503906 191.292969 159.507812 193.660156 159.3125 C 197.328125 159.007812 197.957031 158.679688 201.574219 158.175781 C 205.1875 157.671875 207.589844 156.511719 209.230469 156.460938 C 210.875 156.410156 212.125 156.625 214.199219 157.734375 C 216.273438 158.84375 218.269531 158.792969 218.269531 158.792969 C 218.269531 158.792969 218.105469 157.230469 219.242188 156.183594 C 220.378906 155.136719 221.65625 154.71875 221.65625 154.71875 C 221.65625 154.71875 219.417969 156.511719 220.429688 157.871094 C 220.382812 157.703125 220.367188 157.332031 220.632812 157.328125 C 220.875 157.320312 221.226562 157.339844 221.4375 157.472656 C 221.78125 157.6875 222.269531 157.386719 222.269531 157.386719 C 223.054688 156.480469 224.695312 155.535156 226.117188 155.582031 C 226.117188 155.582031 224.867188 156.503906 223.957031 158.296875 C 223.957031 158.296875 223.910156 158.199219 223.835938 158.164062 C 223.835938 158.164062 223.941406 158.378906 223.910156 158.664062 C 223.875 158.945312 223.875 158.933594 223.875 158.933594 C 223.875 158.933594 224.386719 159.058594 224.539062 159.410156 C 224.691406 159.761719 225.285156 159.839844 225.890625 160.660156 C 226.5 161.480469 226.917969 161.882812 227.195312 162.816406 C 227.472656 163.75 228.9375 167.15625 230.203125 168.265625 C 231.464844 169.375 231.542969 170.082031 231.464844 170.761719 C 231.417969 171.207031 231.324219 171.746094 231.175781 172.105469 C 231.03125 172.464844 230.582031 172.589844 230.136719 172.417969 C 230.136719 172.417969 229.746094 173.183594 229.089844 173.234375 C 228.433594 173.285156 227.496094 173.484375 227.144531 173.257812 C 226.789062 173.03125 226.257812 173.160156 225.917969 173.324219 C 225.578125 173.484375 224.023438 174.46875 221.886719 174.203125 C 219.75 173.941406 219.246094 173.183594 219.246094 173.183594 C 219.246094 173.183594 214.570312 176.160156 213.277344 178.027344 C 211.992188 179.894531 212.925781 180.484375 210.042969 182.632812 C 207.164062 184.777344 207.492188 184.296875 206.328125 185.535156 C 205.558594 186.351562 204.234375 186.683594 203.429688 186.8125 C 202.960938 186.886719 202.769531 186.945312 202.800781 187.445312 C 202.835938 188.097656 202.796875 189.222656 202.234375 190.28125 C 201.375 191.894531 201.121094 192.851562 201.324219 193.8125 C 201.789062 196.011719 202.144531 196.773438 202.015625 198.730469 C 201.988281 199.121094 201.507812 199.066406 201.246094 199.023438 C 200.945312 198.96875 200.585938 198.933594 200.585938 198.933594 C 200.585938 198.933594 200.707031 199.21875 200.542969 199.257812 C 199.90625 199.40625 199.347656 199.207031 198.859375 199.273438 L 197.992188 199.296875 C 197.859375 199.273438 197.839844 199.332031 197.558594 199.148438 C 196.882812 198.707031 197.289062 197.089844 197.289062 197.089844 C 197.289062 197.089844 197.113281 196.371094 197.402344 196.132812 C 197.699219 195.890625 197.632812 195.550781 197.632812 195.121094 C 197.632812 194.695312 198.007812 193.355469 197.78125 192.550781 C 197.554688 191.742188 196.871094 190.582031 196.898438 189.472656 C 196.925781 188.363281 196.394531 187.554688 196.316406 186.015625 C 196.277344 185.203125 195.597656 184.28125 194.785156 184.023438 " fill-opacity="1" fill-rule="evenodd"/><g fill="rgb(0%, 0%, 0%)" fill-opacity="1"><g transform="translate(163.375173, 273.078789)"><g><path d="M 4.011719 0.550781 L 6.472656 0.890625 C 6.390625 0.355469 6.417969 -0.421875 6.539062 -1.292969 L 7.238281 -6.371094 L 9.453125 -6.0625 C 10.285156 -5.949219 10.761719 -5.804688 11.167969 -5.605469 L 11.039062 -7.621094 L 1.902344 -8.878906 L 1.234375 -6.972656 C 1.691406 -7.066406 2.175781 -7.066406 3.007812 -6.953125 L 5.238281 -6.644531 L 4.539062 -1.570312 C 4.417969 -0.699219 4.222656 0.0585938 4.011719 0.550781 Z M 4.011719 0.550781 "/></g></g></g><g fill="rgb(0%, 0%, 0%)" fill-opacity="1"><g transform="translate(175.397889, 274.674872)"><g><path d="M 1.046875 0.0507812 L 10.15625 0.480469 L 10.628906 -1.558594 C 10.246094 -1.367188 9.65625 -1.265625 8.636719 -1.316406 L 3.375 -1.5625 L 3.46875 -3.539062 L 7.632812 -3.34375 C 8.25 -3.3125 8.675781 -3.269531 8.984375 -3.203125 L 9.070312 -5.035156 C 8.757812 -5 8.332031 -4.996094 7.710938 -5.023438 L 3.550781 -5.21875 L 3.640625 -7.171875 L 8.8125 -6.925781 C 9.703125 -6.886719 10.265625 -6.769531 10.558594 -6.613281 L 10.328125 -8.578125 L 1.472656 -8.996094 C 1.59375 -8.484375 1.660156 -7.691406 1.617188 -6.8125 L 1.394531 -2.109375 C 1.351562 -1.230469 1.226562 -0.445312 1.046875 0.0507812 Z M 1.046875 0.0507812 "/></g></g></g><g fill="rgb(0%, 0%, 0%)" fill-opacity="1"><g transform="translate(188.063974, 275.201508)"><g><path d="M 1.046875 -0.046875 L 10.160156 -0.449219 L 10.441406 -2.523438 C 10.078125 -2.300781 9.5 -2.144531 8.480469 -2.097656 L 3.21875 -1.867188 L 3.132812 -3.84375 L 7.292969 -4.027344 C 7.914062 -4.054688 8.339844 -4.046875 8.652344 -4.011719 L 8.574219 -5.84375 C 8.265625 -5.78125 7.839844 -5.734375 7.21875 -5.707031 L 3.058594 -5.523438 L 2.96875 -7.476562 L 8.140625 -7.703125 C 9.03125 -7.742188 9.605469 -7.679688 9.910156 -7.550781 L 9.5 -9.488281 L 0.644531 -9.09375 C 0.808594 -8.597656 0.949219 -7.8125 0.988281 -6.933594 L 1.195312 -2.230469 C 1.234375 -1.351562 1.179688 -0.558594 1.046875 -0.046875 Z M 1.046875 -0.046875 "/></g></g></g><g fill="rgb(0%, 0%, 0%)" fill-opacity="1"><g transform="translate(200.723119, 274.5641)"><g><path d="M 5.589844 -0.578125 C 8.511719 -0.976562 10.226562 -2.269531 9.992188 -3.984375 C 9.496094 -7.652344 2.097656 -4.90625 1.835938 -6.855469 C 1.730469 -7.625 2.984375 -8.003906 4.433594 -8.203125 C 5.945312 -8.410156 7.535156 -8.246094 8.558594 -7.824219 L 8.300781 -9.722656 C 7.230469 -10.007812 5.585938 -10.082031 4.125 -9.882812 C 1.523438 -9.53125 -0.46875 -8.332031 -0.234375 -6.601562 C 0.269531 -2.894531 7.664062 -5.5625 7.917969 -3.691406 C 8.027344 -2.894531 6.949219 -2.472656 5.320312 -2.253906 C 3.476562 -2 1.648438 -2.171875 0.1875 -2.847656 L 0.375 -0.796875 C 1.847656 -0.433594 4.035156 -0.367188 5.589844 -0.578125 Z M 5.589844 -0.578125 "/></g></g></g><g fill="rgb(100%, 100%, 100%)" fill-opacity="1"><g transform="translate(102.536533, 242.315535)"><g><path d="M 9.511719 0.445312 C 11.027344 0.445312 12.410156 0 13.527344 -0.804688 L 13.527344 -6.070312 C 12.410156 -5 11.519531 -4.777344 10.402344 -4.777344 C 7.5 -4.777344 5.625 -7.722656 5.625 -15.625 C 5.625 -23.886719 7.546875 -26.519531 10.179688 -26.519531 C 11.25 -26.519531 12.277344 -25.941406 13.082031 -24.914062 L 13.082031 -30.628906 C 12.277344 -31.34375 11.296875 -31.699219 9.777344 -31.699219 C 4.820312 -31.699219 0.847656 -26.699219 0.847656 -15.582031 C 0.847656 -4.507812 4.597656 0.445312 9.511719 0.445312 Z M 9.511719 0.445312 "/></g></g></g><g fill="rgb(100%, 100%, 100%)" fill-opacity="1"><g transform="translate(123.205057, 242.315535)"><g><path d="M 8.886719 0.625 C 13.574219 0.625 16.875 -5.222656 16.875 -15.671875 C 16.875 -26.164062 13.574219 -31.878906 8.886719 -31.878906 C 4.109375 -31.878906 0.847656 -26.164062 0.847656 -15.671875 C 0.847656 -5.222656 4.109375 0.625 8.886719 0.625 Z M 8.886719 -3.796875 C 6.921875 -3.796875 5.582031 -7.277344 5.582031 -15.671875 C 5.582031 -24.019531 6.921875 -27.503906 8.886719 -27.503906 C 10.761719 -27.503906 12.144531 -24.019531 12.144531 -15.671875 C 12.144531 -7.277344 10.761719 -3.796875 8.886719 -3.796875 Z M 8.886719 -3.796875 "/></g></g></g><g fill="rgb(100%, 100%, 100%)" fill-opacity="1"><g transform="translate(147.1767, 242.315535)"><g><path d="M 4.019531 0 L 10.535156 0 L 13.347656 -18.929688 L 13.707031 -18.929688 L 16.519531 0 L 23.039062 0 C 22.769531 -2.902344 22.949219 -7.589844 23.394531 -11.386719 L 24.644531 -19.957031 C 25.136719 -23.886719 26.074219 -28.484375 27.054688 -31.253906 L 20.492188 -31.253906 C 20.804688 -28.484375 20.671875 -23.886719 20.179688 -19.957031 L 19.242188 -13.886719 C 19.152344 -13.082031 19.066406 -12.234375 18.929688 -11.429688 L 18.617188 -11.429688 L 15.714844 -31.253906 L 11.472656 -31.253906 L 8.4375 -11.429688 L 8.082031 -11.429688 C 7.945312 -12.234375 7.859375 -13.035156 7.769531 -13.839844 L 6.875 -19.957031 C 6.382812 -23.886719 6.25 -28.484375 6.5625 -31.253906 L 0 -31.253906 C 0.980469 -28.484375 1.917969 -23.886719 2.410156 -19.957031 L 3.617188 -11.386719 C 4.109375 -7.589844 4.285156 -2.902344 4.019531 0 Z M 4.019531 0 "/></g></g></g><g fill="rgb(100%, 100%, 100%)" fill-opacity="1"><g transform="translate(180.61135, 242.315535)"><g><path d="M 3.929688 0 L 10.492188 0 C 9.867188 -2.769531 9.464844 -7.367188 9.464844 -11.296875 L 9.464844 -26.742188 L 10.179688 -26.742188 C 12.277344 -26.742188 13.4375 -26.429688 14.152344 -26.117188 L 13.484375 -31.253906 L 0.980469 -31.253906 L 0.269531 -26.117188 C 1.027344 -26.429688 2.1875 -26.742188 4.242188 -26.742188 L 5 -26.742188 L 5 -11.296875 C 5 -7.367188 4.597656 -2.769531 3.929688 0 Z M 3.929688 0 "/></g></g></g><g fill="rgb(100%, 100%, 100%)" fill-opacity="1"><g transform="translate(201.324502, 242.315535)"><g><path d="M 8.886719 0.625 C 13.574219 0.625 16.875 -5.222656 16.875 -15.671875 C 16.875 -26.164062 13.574219 -31.878906 8.886719 -31.878906 C 4.109375 -31.878906 0.847656 -26.164062 0.847656 -15.671875 C 0.847656 -5.222656 4.109375 0.625 8.886719 0.625 Z M 8.886719 -3.796875 C 6.921875 -3.796875 5.582031 -7.277344 5.582031 -15.671875 C 5.582031 -24.019531 6.921875 -27.503906 8.886719 -27.503906 C 10.761719 -27.503906 12.144531 -24.019531 12.144531 -15.671875 C 12.144531 -7.277344 10.761719 -3.796875 8.886719 -3.796875 Z M 8.886719 -3.796875 "/></g></g></g><g fill="rgb(100%, 100%, 100%)" fill-opacity="1"><g transform="translate(225.296142, 242.315535)"><g><path d="M 4.019531 0 L 10.535156 0 L 13.347656 -18.929688 L 13.707031 -18.929688 L 16.519531 0 L 23.039062 0 C 22.769531 -2.902344 22.949219 -7.589844 23.394531 -11.386719 L 24.644531 -19.957031 C 25.136719 -23.886719 26.074219 -28.484375 27.054688 -31.253906 L 20.492188 -31.253906 C 20.804688 -28.484375 20.671875 -23.886719 20.179688 -19.957031 L 19.242188 -13.886719 C 19.152344 -13.082031 19.066406 -12.234375 18.929688 -11.429688 L 18.617188 -11.429688 L 15.714844 -31.253906 L 11.472656 -31.253906 L 8.4375 -11.429688 L 8.082031 -11.429688 C 7.945312 -12.234375 7.859375 -13.035156 7.769531 -13.839844 L 6.875 -19.957031 C 6.382812 -23.886719 6.25 -28.484375 6.5625 -31.253906 L 0 -31.253906 C 0.980469 -28.484375 1.917969 -23.886719 2.410156 -19.957031 L 3.617188 -11.386719 C 4.109375 -7.589844 4.285156 -2.902344 4.019531 0 Z M 4.019531 0 "/></g></g></g><g fill="rgb(100%, 100%, 100%)" fill-opacity="1"><g transform="translate(258.730787, 242.315535)"><g><path d="M 1.429688 0 L 7.945312 0 C 7.367188 -2.769531 6.921875 -7.367188 6.921875 -11.296875 L 6.921875 -17.144531 L 7.234375 -17.144531 L 13.171875 0 L 17.324219 0 L 17.324219 -19.957031 C 17.324219 -23.886719 17.726562 -28.484375 18.304688 -31.253906 L 11.785156 -31.253906 C 12.324219 -28.976562 12.722656 -25.449219 12.8125 -22.011719 L 12.8125 -14.242188 L 12.5 -14.242188 L 6.652344 -31.253906 L 1.429688 -31.253906 C 2.054688 -28.484375 2.5 -23.886719 2.5 -19.957031 L 2.5 -11.296875 C 2.5 -7.367188 2.054688 -2.769531 1.429688 0 Z M 1.429688 0 "/></g></g></g><path stroke-linecap="butt" transform="matrix(1.505376, 0, 0, 1.5, 161.339759, 253.600647)" fill="none" stroke-linejoin="miter" d="M 0.0000564939 0.000610635 L 34.880246 0.000610635 " stroke="rgb(100%, 100%, 100%)" stroke-width="1" stroke-opacity="1" stroke-miterlimit="4"/><g fill="rgb(100%, 100%, 100%)" fill-opacity="1"><g transform="translate(123.333696, 174.524329)"><g><path d="M 0.296875 0 L 2.757812 0 L 2.957031 -1.070312 C 2.773438 -0.984375 2.542969 -0.929688 2.148438 -0.929688 L 1.4375 -0.929688 L 1.4375 -2.988281 L 1.90625 -2.988281 C 2.339844 -2.988281 2.554688 -2.96875 2.746094 -2.941406 L 2.746094 -3.972656 C 2.554688 -3.9375 2.339844 -3.917969 1.90625 -3.917969 L 1.4375 -3.917969 L 1.4375 -5.519531 L 2.054688 -5.519531 C 2.480469 -5.519531 2.71875 -5.476562 2.867188 -5.402344 L 2.726562 -6.453125 L 0.296875 -6.453125 C 0.425781 -5.878906 0.515625 -4.929688 0.515625 -4.121094 L 0.515625 -2.332031 C 0.515625 -1.519531 0.425781 -0.570312 0.296875 0 Z M 0.296875 0 "/></g></g></g><g fill="rgb(100%, 100%, 100%)" fill-opacity="1"><g transform="translate(127.267701, 174.524329)"><g><path d="M 1.308594 0.09375 C 2.167969 0.09375 2.839844 -0.535156 2.839844 -1.539062 C 2.839844 -3.246094 1.085938 -3.945312 1.085938 -4.902344 C 1.085938 -5.289062 1.375 -5.585938 1.742188 -5.585938 C 2.035156 -5.585938 2.339844 -5.429688 2.597656 -5.132812 L 2.597656 -6.210938 C 2.386719 -6.386719 2.054688 -6.542969 1.613281 -6.542969 C 0.765625 -6.542969 0.121094 -5.925781 0.121094 -4.921875 C 0.121094 -3.347656 1.871094 -2.691406 1.871094 -1.59375 C 1.871094 -1.160156 1.578125 -0.875 1.207031 -0.875 C 0.914062 -0.875 0.480469 -1.078125 0.183594 -1.417969 L 0.183594 -0.339844 C 0.460938 -0.0664062 0.886719 0.09375 1.308594 0.09375 Z M 1.308594 0.09375 "/></g></g></g><g fill="rgb(100%, 100%, 100%)" fill-opacity="1"><g transform="translate(131.063541, 174.524329)"><g><path d="M 0.8125 0 L 2.167969 0 C 2.035156 -0.570312 1.953125 -1.519531 1.953125 -2.332031 L 1.953125 -5.519531 L 2.101562 -5.519531 C 2.535156 -5.519531 2.773438 -5.457031 2.921875 -5.390625 L 2.785156 -6.453125 L 0.203125 -6.453125 L 0.0546875 -5.390625 C 0.210938 -5.457031 0.453125 -5.519531 0.875 -5.519531 L 1.03125 -5.519531 L 1.03125 -2.332031 C 1.03125 -1.519531 0.949219 -0.570312 0.8125 0 Z M 0.8125 0 "/></g></g></g><g fill="rgb(100%, 100%, 100%)" fill-opacity="1"><g transform="translate(134.868594, 174.524329)"><g><path d="M 0.296875 0 L 1.445312 0 C 2.800781 0 3.605469 -1.171875 3.605469 -3.246094 C 3.605469 -5.308594 2.800781 -6.453125 1.445312 -6.453125 L 0.296875 -6.453125 C 0.425781 -5.878906 0.507812 -4.929688 0.507812 -4.121094 L 0.507812 -2.332031 C 0.507812 -1.519531 0.425781 -0.570312 0.296875 0 Z M 1.429688 -0.902344 L 1.429688 -5.550781 L 1.53125 -5.550781 C 2.136719 -5.550781 2.636719 -4.894531 2.636719 -3.246094 C 2.636719 -1.585938 2.136719 -0.902344 1.539062 -0.902344 Z M 1.429688 -0.902344 "/></g></g></g><g fill="rgb(100%, 100%, 100%)" fill-opacity="1"><g transform="translate(236.351826, 174.834452)"><g><path d="M 0.203125 0 L 2.617188 0 L 2.847656 -1.003906 C 2.636719 -0.957031 2.367188 -0.941406 1.871094 -0.941406 L 1.273438 -0.941406 L 1.234375 -0.996094 L 2.238281 -3.261719 C 2.609375 -4.121094 2.746094 -4.5625 2.746094 -5.078125 C 2.746094 -6.011719 2.167969 -6.542969 1.375 -6.542969 C 0.957031 -6.542969 0.625 -6.433594 0.332031 -6.277344 L 0.332031 -5.308594 C 0.570312 -5.464844 0.847656 -5.585938 1.171875 -5.585938 C 1.558594 -5.585938 1.796875 -5.320312 1.796875 -4.921875 C 1.796875 -4.570312 1.6875 -4.175781 1.363281 -3.449219 L 0.203125 -0.828125 Z M 0.203125 0 "/></g></g></g><g fill="rgb(100%, 100%, 100%)" fill-opacity="1"><g transform="translate(240.20293, 174.834452)"><g><path d="M 1.769531 0.09375 C 2.726562 0.09375 3.28125 -0.96875 3.28125 -3.226562 C 3.28125 -5.503906 2.726562 -6.542969 1.769531 -6.542969 C 0.785156 -6.542969 0.25 -5.492188 0.25 -3.226562 C 0.25 -0.957031 0.785156 0.09375 1.769531 0.09375 Z M 1.769531 -0.820312 C 1.445312 -0.820312 1.1875 -1.363281 1.1875 -3.226562 C 1.1875 -5.097656 1.445312 -5.640625 1.769531 -5.640625 C 2.082031 -5.640625 2.332031 -5.089844 2.332031 -3.226562 C 2.332031 -1.355469 2.082031 -0.820312 1.769531 -0.820312 Z M 1.769531 -0.820312 "/></g></g></g><g fill="rgb(100%, 100%, 100%)" fill-opacity="1"><g transform="translate(244.560629, 174.834452)"><g><path d="M 0.203125 0 L 2.617188 0 L 2.847656 -1.003906 C 2.636719 -0.957031 2.367188 -0.941406 1.871094 -0.941406 L 1.273438 -0.941406 L 1.234375 -0.996094 L 2.238281 -3.261719 C 2.609375 -4.121094 2.746094 -4.5625 2.746094 -5.078125 C 2.746094 -6.011719 2.167969 -6.542969 1.375 -6.542969 C 0.957031 -6.542969 0.625 -6.433594 0.332031 -6.277344 L 0.332031 -5.308594 C 0.570312 -5.464844 0.847656 -5.585938 1.171875 -5.585938 C 1.558594 -5.585938 1.796875 -5.320312 1.796875 -4.921875 C 1.796875 -4.570312 1.6875 -4.175781 1.363281 -3.449219 L 0.203125 -0.828125 Z M 0.203125 0 "/></g></g></g><g fill="rgb(100%, 100%, 100%)" fill-opacity="1"><g transform="translate(248.411733, 174.834452)"><g><path d="M 0.148438 0 L 2.597656 0 L 2.597656 -0.792969 L 1.796875 -0.792969 L 1.796875 -5.511719 C 1.796875 -5.972656 1.804688 -6.230469 1.851562 -6.453125 L 1.199219 -6.453125 C 0.921875 -6.203125 0.542969 -5.992188 0.15625 -5.9375 L 0.15625 -5.125 C 0.453125 -5.152344 0.683594 -5.21875 0.902344 -5.328125 L 0.902344 -0.792969 L 0.148438 -0.792969 Z M 0.148438 0 "/></g></g></g><g fill="rgb(100%, 100%, 100%)" fill-opacity="1"><g transform="translate(164.758499, 273.596435)"><g><path d="M 4.011719 0.550781 L 6.472656 0.890625 C 6.390625 0.355469 6.417969 -0.421875 6.539062 -1.292969 L 7.238281 -6.371094 L 9.453125 -6.0625 C 10.285156 -5.949219 10.761719 -5.804688 11.167969 -5.605469 L 11.039062 -7.621094 L 1.902344 -8.878906 L 1.234375 -6.972656 C 1.691406 -7.066406 2.175781 -7.066406 3.007812 -6.953125 L 5.238281 -6.644531 L 4.539062 -1.570312 C 4.417969 -0.699219 4.222656 0.0585938 4.011719 0.550781 Z M 4.011719 0.550781 "/></g></g></g><g fill="rgb(100%, 100%, 100%)" fill-opacity="1"><g transform="translate(176.781212, 275.192518)"><g><path d="M 1.046875 0.0507812 L 10.15625 0.480469 L 10.628906 -1.558594 C 10.246094 -1.367188 9.65625 -1.265625 8.636719 -1.316406 L 3.375 -1.5625 L 3.46875 -3.539062 L 7.632812 -3.34375 C 8.25 -3.3125 8.675781 -3.269531 8.984375 -3.203125 L 9.070312 -5.035156 C 8.757812 -5 8.332031 -4.996094 7.710938 -5.023438 L 3.550781 -5.21875 L 3.640625 -7.171875 L 8.8125 -6.925781 C 9.703125 -6.886719 10.265625 -6.769531 10.558594 -6.613281 L 10.328125 -8.578125 L 1.472656 -8.996094 C 1.59375 -8.484375 1.660156 -7.691406 1.617188 -6.8125 L 1.394531 -2.109375 C 1.351562 -1.230469 1.226562 -0.445312 1.046875 0.0507812 Z M 1.046875 0.0507812 "/></g></g></g><g fill="rgb(100%, 100%, 100%)" fill-opacity="1"><g transform="translate(189.4473, 275.719126)"><g><path d="M 1.046875 -0.046875 L 10.160156 -0.449219 L 10.441406 -2.523438 C 10.078125 -2.300781 9.5 -2.144531 8.480469 -2.097656 L 3.21875 -1.867188 L 3.132812 -3.84375 L 7.292969 -4.027344 C 7.914062 -4.054688 8.339844 -4.046875 8.652344 -4.011719 L 8.574219 -5.84375 C 8.265625 -5.78125 7.839844 -5.734375 7.21875 -5.707031 L 3.058594 -5.523438 L 2.96875 -7.476562 L 8.140625 -7.703125 C 9.03125 -7.742188 9.605469 -7.679688 9.910156 -7.550781 L 9.5 -9.488281 L 0.644531 -9.09375 C 0.808594 -8.597656 0.949219 -7.8125 0.988281 -6.933594 L 1.195312 -2.230469 C 1.234375 -1.351562 1.179688 -0.558594 1.046875 -0.046875 Z M 1.046875 -0.046875 "/></g></g></g><g fill="rgb(100%, 100%, 100%)" fill-opacity="1"><g transform="translate(202.106445, 275.081746)"><g><path d="M 5.589844 -0.578125 C 8.511719 -0.976562 10.226562 -2.269531 9.992188 -3.984375 C 9.496094 -7.652344 2.097656 -4.90625 1.835938 -6.855469 C 1.730469 -7.625 2.984375 -8.003906 4.433594 -8.203125 C 5.945312 -8.410156 7.535156 -8.246094 8.558594 -7.824219 L 8.300781 -9.722656 C 7.230469 -10.007812 5.585938 -10.082031 4.125 -9.882812 C 1.523438 -9.53125 -0.46875 -8.332031 -0.234375 -6.601562 C 0.269531 -2.894531 7.664062 -5.5625 7.917969 -3.691406 C 8.027344 -2.894531 6.949219 -2.472656 5.320312 -2.253906 C 3.476562 -2 1.648438 -2.171875 0.1875 -2.847656 L 0.375 -0.796875 C 1.847656 -0.433594 4.035156 -0.367188 5.589844 -0.578125 Z M 5.589844 -0.578125 "/></g></g></g></svg>