<svg xmlns="http://www.w3.org/2000/svg" xmlns:xlink="http://www.w3.org/1999/xlink" width="500" zoomAndPan="magnify" viewBox="0 0 375 374.999991" height="500" preserveAspectRatio="xMidYMid meet" version="1.0"><defs><g/><clipPath id="id1"><path d="M 47.882812 49.660156 L 317.828125 49.660156 L 317.828125 302.410156 L 47.882812 302.410156 Z M 47.882812 49.660156 " clip-rule="nonzero"/></clipPath></defs><g clip-path="url(#id1)"><path fill="#ffffff" d="M 183.441406 56.269531 L 310.246094 115.503906 L 311.082031 115.890625 L 311.082031 236.183594 L 310.246094 236.574219 L 183.441406 295.808594 L 182.832031 296.089844 L 182.222656 295.808594 L 118.820312 266.191406 L 55.421875 236.574219 L 54.582031 236.183594 L 54.582031 115.890625 L 55.421875 115.503906 L 118.820312 85.886719 L 182.222656 56.269531 L 182.832031 55.984375 Z M 245.625 88.496094 L 182.832031 59.160156 L 120.042969 88.496094 L 57.472656 117.71875 L 57.472656 234.359375 L 120.042969 263.585938 L 182.832031 292.917969 L 245.625 263.585938 L 308.195312 234.359375 L 308.195312 117.71875 Z M 183.441406 49.960938 L 250.21875 81.152344 L 317 112.351562 L 317.835938 112.742188 L 317.835938 239.335938 L 317 239.730469 L 250.21875 270.921875 L 183.441406 302.113281 L 182.832031 302.402344 L 182.222656 302.113281 L 48.667969 239.730469 L 47.828125 239.335938 L 47.828125 112.742188 L 48.667969 112.351562 L 115.445312 81.152344 L 182.222656 49.960938 L 182.832031 49.679688 Z M 249 83.761719 L 182.832031 52.851562 L 116.664062 83.761719 L 50.71875 114.5625 L 50.71875 237.511719 L 116.664062 268.316406 L 182.832031 299.222656 L 249 268.316406 L 314.945312 237.511719 L 314.945312 114.5625 L 249 83.761719 " fill-opacity="1" fill-rule="nonzero"/></g><path fill="#ffffff" d="M 79.492188 177.535156 L 286.171875 177.535156 C 284.894531 175.382812 283.207031 176.664062 282.765625 175.910156 C 281.800781 174.25 282.492188 172.839844 275.828125 174.578125 C 273.226562 175.261719 273.753906 170.058594 267.90625 176.21875 C 267.742188 176.390625 259.390625 177.402344 257.277344 174.851562 C 256.777344 174.25 242.097656 171.503906 240.023438 172.882812 C 235.058594 176.183594 233.925781 171.601562 225.617188 171.601562 C 216.613281 171.601562 214.976562 171.425781 204.828125 170.558594 C 202.746094 170.378906 199.480469 170.636719 194.605469 170.484375 C 183.167969 170.125 174.90625 173.910156 167.886719 173.097656 C 162.261719 172.449219 150.785156 172.882812 139.898438 172.792969 C 132.71875 172.730469 125.894531 173.785156 121.925781 174.882812 L 120.304688 174.519531 C 115.113281 174.597656 105.222656 172.425781 100.964844 173.894531 C 87.046875 178.695312 96.273438 166.929688 86.761719 172.34375 C 83.429688 174.234375 83.917969 172.179688 82.890625 175.683594 C 82.625 176.601562 81.203125 175.976562 80.296875 176.699219 C 79.933594 176.992188 79.496094 175.636719 79.492188 177.535156 " fill-opacity="1" fill-rule="evenodd"/><path fill="#ffffff" d="M 185.527344 153.847656 C 183.417969 153.179688 179.300781 152.359375 174.167969 153.75 C 166.71875 155.773438 166.839844 155.519531 166.839844 155.519531 C 166.839844 155.519531 166.667969 155.945312 166.980469 156.386719 C 167.296875 156.832031 167.191406 157.070312 167.191406 157.070312 C 167.191406 157.070312 166.652344 157.796875 165.910156 157.164062 C 165.167969 156.53125 164.976562 156.074219 163.949219 155.105469 C 162.925781 154.148438 159.636719 153.324219 156.792969 151.617188 C 155.453125 150.8125 154.113281 149.980469 153.082031 149.324219 C 151.820312 148.523438 150.921875 148.460938 150.628906 149.96875 C 150.429688 150.976562 150.207031 152.480469 150.003906 154.679688 C 149.496094 160.117188 148.675781 159.675781 148.359375 161.253906 C 148.042969 162.835938 149.308594 168.019531 150.316406 169.03125 C 151.328125 170.039062 150.980469 170.484375 151.140625 170.796875 C 151.296875 171.113281 153 172.34375 153 172.34375 C 153 172.34375 153 172.914062 152.609375 172.976562 L 152.449219 172.976562 C 152.257812 172.957031 151.914062 172.960938 151.542969 172.976562 C 150.808594 173.003906 149.96875 173.074219 149.96875 173.074219 C 149.96875 173.074219 149.179688 172.507812 149.148438 172.097656 C 149.117188 171.683594 148.703125 171.621094 148.703125 171.621094 C 148.703125 171.621094 147.410156 171.777344 147.160156 170.484375 C 146.90625 169.1875 146.210938 167.164062 145.863281 166.183594 C 145.515625 165.203125 144 161.414062 143.523438 160.558594 C 143.050781 159.707031 143.207031 159.644531 143.207031 159.644531 C 143.207031 159.644531 141.757812 166.238281 142.886719 169.6875 C 143.222656 170.253906 143.054688 170.5625 143.175781 170.796875 C 143.332031 171.113281 145.039062 172.34375 145.039062 172.34375 C 145.039062 172.34375 145.039062 173.039062 144.5 172.980469 C 143.964844 172.914062 142.007812 173.074219 142.007812 173.074219 C 142.007812 173.074219 141.214844 172.507812 141.1875 172.097656 C 141.152344 171.683594 140.742188 171.621094 140.742188 171.621094 C 140.742188 171.621094 139.660156 171.128906 139.515625 170.386719 C 139.367188 169.644531 139.523438 169.886719 139.507812 169.644531 C 139.449219 169.324219 139.347656 166.90625 138.957031 164.125 C 138.507812 160.957031 137.808594 157.300781 138.5625 155.488281 C 139.984375 152.089844 140.1875 151.925781 140.1875 151.925781 C 140.1875 151.925781 141.769531 148.382812 139.871094 145.730469 C 139.3125 144.953125 138.773438 143.6875 138.289062 142.234375 C 138.234375 143.992188 138.152344 146.515625 138.109375 147.339844 C 138.046875 148.644531 138.109375 149.425781 138.371094 150.925781 C 138.636719 152.429688 138.277344 156.214844 138.277344 156.214844 C 138.277344 156.214844 137.898438 157.046875 137.785156 157.765625 C 137.671875 158.484375 138.28125 159 138.160156 159.398438 C 138.039062 159.792969 138 160.554688 138.195312 161.4375 C 138.390625 162.320312 138.355469 163.164062 138.425781 164.050781 C 138.492188 164.933594 137.933594 165.84375 137.609375 166.039062 C 137.28125 166.234375 136.5 165.972656 136.234375 166.398438 C 135.972656 166.824219 134.835938 166.757812 134.835938 166.757812 C 134.835938 166.757812 135.453125 166.398438 134.902344 165.351562 C 134.34375 164.308594 134.523438 163.59375 134.324219 162.628906 C 134.128906 161.667969 135.273438 160.476562 135.242188 159.203125 C 135.207031 157.929688 134.460938 157.078125 134.460938 157.078125 C 134.035156 154.597656 134.394531 154.242188 134.621094 153.425781 C 134.847656 152.609375 136.871094 146.503906 137.066406 142.949219 C 137.382812 137.269531 134.277344 131.039062 137.84375 125.988281 C 139.4375 123.742188 141.992188 122.117188 145.71875 122.726562 C 147.105469 122.953125 147.613281 122.882812 148.464844 122.855469 C 149.316406 122.820312 153.015625 123.230469 155.652344 123.453125 C 158.292969 123.671875 163.457031 122.855469 167.976562 123.484375 C 172.886719 124.167969 174.011719 123.40625 178.019531 123.191406 C 179.28125 123.125 181.164062 123.128906 184.121094 122.882812 C 188.703125 122.503906 189.492188 122.09375 194.011719 121.460938 C 198.527344 120.832031 201.53125 119.375 203.585938 119.3125 C 205.636719 119.25 207.199219 119.515625 209.792969 120.910156 C 212.382812 122.300781 214.878906 122.238281 214.878906 122.238281 C 214.878906 122.238281 214.675781 120.277344 216.097656 118.96875 C 217.515625 117.652344 219.117188 117.132812 219.117188 117.132812 C 219.117188 117.132812 216.316406 119.375 217.582031 121.082031 C 217.523438 120.871094 217.503906 120.40625 217.835938 120.398438 C 218.140625 120.390625 218.578125 120.414062 218.839844 120.582031 C 219.269531 120.851562 219.878906 120.472656 219.878906 120.472656 C 220.863281 119.339844 222.914062 118.15625 224.691406 118.214844 C 224.691406 118.214844 223.128906 119.367188 221.988281 121.613281 C 221.988281 121.613281 221.933594 121.492188 221.839844 121.445312 C 221.839844 121.445312 221.972656 121.714844 221.929688 122.074219 C 221.886719 122.425781 221.886719 122.410156 221.886719 122.410156 C 221.886719 122.410156 222.527344 122.570312 222.71875 123.011719 C 222.90625 123.453125 223.652344 123.546875 224.410156 124.574219 C 225.167969 125.605469 225.691406 126.109375 226.035156 127.277344 C 226.386719 128.449219 228.214844 132.714844 229.800781 134.101562 C 231.375 135.492188 231.472656 136.378906 231.375 137.230469 C 231.316406 137.789062 231.199219 138.460938 231.015625 138.914062 C 230.832031 139.363281 230.273438 139.523438 229.714844 139.304688 C 229.714844 139.304688 229.230469 140.261719 228.40625 140.328125 C 227.585938 140.390625 226.417969 140.644531 225.972656 140.359375 C 225.53125 140.074219 224.867188 140.234375 224.441406 140.4375 C 224.015625 140.644531 222.074219 141.875 219.402344 141.542969 C 216.730469 141.210938 216.101562 140.265625 216.101562 140.265625 C 216.101562 140.265625 210.257812 143.992188 208.644531 146.332031 C 207.035156 148.671875 208.203125 149.414062 204.601562 152.101562 C 201 154.789062 201.40625 154.1875 199.953125 155.738281 C 198.992188 156.761719 197.335938 157.175781 196.328125 157.339844 C 195.746094 157.433594 195.507812 157.503906 195.542969 158.128906 C 195.589844 158.949219 195.542969 160.359375 194.835938 161.6875 C 193.761719 163.707031 193.445312 164.90625 193.699219 166.105469 C 194.28125 168.863281 194.726562 169.816406 194.5625 172.269531 C 194.53125 172.757812 193.929688 172.6875 193.605469 172.636719 C 193.226562 172.570312 192.777344 172.523438 192.777344 172.523438 C 192.777344 172.523438 192.929688 172.878906 192.722656 172.929688 C 191.925781 173.117188 191.230469 172.867188 190.617188 172.949219 L 189.535156 172.976562 C 189.371094 172.949219 189.34375 173.023438 188.992188 172.792969 C 188.148438 172.242188 188.65625 170.210938 188.65625 170.214844 C 188.65625 170.214844 188.4375 169.316406 188.796875 169.015625 C 189.167969 168.714844 189.082031 168.285156 189.082031 167.75 C 189.082031 167.214844 189.554688 165.539062 189.273438 164.527344 C 188.988281 163.515625 188.136719 162.0625 188.167969 160.671875 C 188.199219 159.277344 187.535156 158.269531 187.441406 156.339844 C 187.390625 155.320312 186.539062 154.164062 185.527344 153.847656 " fill-opacity="1" fill-rule="evenodd"/><g fill="#ffffff" fill-opacity="1"><g transform="translate(144.245283, 263.116068)"><g><path d="M 6.800781 0.9375 L 10.976562 1.511719 C 10.832031 0.605469 10.882812 -0.714844 11.085938 -2.195312 L 12.269531 -10.800781 L 16.03125 -10.28125 C 17.445312 -10.089844 18.25 -9.84375 18.933594 -9.507812 L 18.71875 -12.925781 L 3.222656 -15.058594 L 2.09375 -11.824219 C 2.867188 -11.984375 3.6875 -11.980469 5.097656 -11.789062 L 8.878906 -11.265625 L 7.695312 -2.660156 C 7.492188 -1.183594 7.160156 0.101562 6.800781 0.9375 Z M 6.800781 0.9375 "/></g></g></g><g fill="#ffffff" fill-opacity="1"><g transform="translate(164.715224, 265.830557)"><g><path d="M 1.773438 0.0820312 L 17.222656 0.8125 L 18.023438 -2.640625 C 17.371094 -2.320312 16.375 -2.148438 14.644531 -2.230469 L 5.726562 -2.648438 L 5.882812 -6.003906 L 12.941406 -5.667969 C 13.992188 -5.621094 14.710938 -5.542969 15.234375 -5.429688 L 15.382812 -8.542969 C 14.851562 -8.476562 14.125 -8.46875 13.074219 -8.519531 L 6.019531 -8.851562 L 6.175781 -12.160156 L 14.941406 -11.746094 C 16.453125 -11.675781 17.410156 -11.476562 17.902344 -11.210938 L 17.511719 -14.546875 L 2.5 -15.253906 C 2.699219 -14.390625 2.8125 -13.042969 2.742188 -11.554688 L 2.367188 -3.578125 C 2.292969 -2.085938 2.078125 -0.757812 1.773438 0.0820312 Z M 1.773438 0.0820312 "/></g></g></g><g fill="#ffffff" fill-opacity="1"><g transform="translate(186.278339, 266.723432)"><g><path d="M 1.773438 -0.078125 L 17.226562 -0.765625 L 17.707031 -4.277344 C 17.085938 -3.898438 16.109375 -3.636719 14.378906 -3.558594 L 5.460938 -3.164062 L 5.308594 -6.515625 L 12.367188 -6.828125 C 13.417969 -6.875 14.144531 -6.863281 14.675781 -6.800781 L 14.535156 -9.910156 C 14.015625 -9.800781 13.292969 -9.726562 12.242188 -9.679688 L 5.183594 -9.363281 L 5.035156 -12.675781 L 13.804688 -13.0625 C 15.316406 -13.128906 16.285156 -13.019531 16.800781 -12.800781 L 16.105469 -16.085938 L 1.09375 -15.421875 C 1.375 -14.574219 1.609375 -13.246094 1.675781 -11.757812 L 2.027344 -3.777344 C 2.09375 -2.289062 2 -0.945312 1.773438 -0.078125 Z M 1.773438 -0.078125 "/></g></g></g><g fill="#ffffff" fill-opacity="1"><g transform="translate(207.828864, 265.635283)"><g><path d="M 9.476562 -0.980469 C 14.429688 -1.65625 17.34375 -3.84375 16.945312 -6.757812 C 16.101562 -12.976562 3.558594 -8.324219 3.109375 -11.625 C 2.933594 -12.929688 5.058594 -13.574219 7.515625 -13.910156 C 10.078125 -14.257812 12.773438 -13.984375 14.511719 -13.269531 L 14.070312 -16.484375 C 12.257812 -16.96875 9.472656 -17.097656 6.992188 -16.761719 C 2.582031 -16.160156 -0.796875 -14.128906 -0.394531 -11.191406 C 0.460938 -4.910156 12.996094 -9.429688 13.429688 -6.257812 C 13.613281 -4.910156 11.78125 -4.195312 9.023438 -3.820312 C 5.890625 -3.394531 2.796875 -3.679688 0.316406 -4.824219 L 0.636719 -1.347656 C 3.132812 -0.738281 6.84375 -0.621094 9.476562 -0.980469 Z M 9.476562 -0.980469 "/></g></g></g><g fill="#ffffff" fill-opacity="1"><g transform="translate(88.638844, 223.135109)"><g><path d="M 10.363281 0.488281 C 12.015625 0.488281 13.523438 0 14.738281 -0.875 L 14.738281 -6.617188 C 13.523438 -5.449219 12.550781 -5.203125 11.335938 -5.203125 C 8.171875 -5.203125 6.128906 -8.414062 6.128906 -17.027344 C 6.128906 -26.023438 8.222656 -28.894531 11.089844 -28.894531 C 12.257812 -28.894531 13.378906 -28.261719 14.253906 -27.144531 L 14.253906 -33.371094 C 13.378906 -34.148438 12.308594 -34.539062 10.652344 -34.539062 C 5.253906 -34.539062 0.925781 -29.089844 0.925781 -16.976562 C 0.925781 -4.914062 5.011719 0.488281 10.363281 0.488281 Z M 10.363281 0.488281 "/></g></g></g><g fill="#ffffff" fill-opacity="1"><g transform="translate(111.161845, 223.135109)"><g><path d="M 9.679688 0.679688 C 14.789062 0.679688 18.386719 -5.691406 18.386719 -17.074219 C 18.386719 -28.507812 14.789062 -34.734375 9.679688 -34.734375 C 4.476562 -34.734375 0.925781 -28.507812 0.925781 -17.074219 C 0.925781 -5.691406 4.476562 0.679688 9.679688 0.679688 Z M 9.679688 -4.136719 C 7.539062 -4.136719 6.082031 -7.929688 6.082031 -17.074219 C 6.082031 -26.171875 7.539062 -29.964844 9.679688 -29.964844 C 11.722656 -29.964844 13.230469 -26.171875 13.230469 -17.074219 C 13.230469 -7.929688 11.722656 -4.136719 9.679688 -4.136719 Z M 9.679688 -4.136719 "/></g></g></g><g fill="#ffffff" fill-opacity="1"><g transform="translate(137.284551, 223.135109)"><g><path d="M 4.378906 0 L 11.480469 0 L 14.542969 -20.625 L 14.933594 -20.625 L 18 0 L 25.101562 0 C 24.808594 -3.160156 25.003906 -8.269531 25.488281 -12.40625 L 26.851562 -21.746094 C 27.386719 -26.023438 28.410156 -31.035156 29.480469 -34.050781 L 22.328125 -34.050781 C 22.667969 -31.035156 22.523438 -26.023438 21.988281 -21.746094 L 20.964844 -15.128906 C 20.867188 -14.253906 20.769531 -13.328125 20.625 -12.453125 L 20.285156 -12.453125 L 17.121094 -34.050781 L 12.5 -34.050781 L 9.195312 -12.453125 L 8.804688 -12.453125 C 8.660156 -13.328125 8.5625 -14.203125 8.464844 -15.078125 L 7.492188 -21.746094 C 6.957031 -26.023438 6.808594 -31.035156 7.152344 -34.050781 L 0 -34.050781 C 1.070312 -31.035156 2.089844 -26.023438 2.625 -21.746094 L 3.941406 -12.40625 C 4.476562 -8.269531 4.667969 -3.160156 4.378906 0 Z M 4.378906 0 "/></g></g></g><g fill="#ffffff" fill-opacity="1"><g transform="translate(173.719893, 223.135109)"><g><path d="M 4.28125 0 L 11.429688 0 C 10.75 -3.015625 10.3125 -8.027344 10.3125 -12.308594 L 10.3125 -29.136719 L 11.089844 -29.136719 C 13.378906 -29.136719 14.640625 -28.796875 15.421875 -28.457031 L 14.691406 -34.050781 L 1.070312 -34.050781 L 0.292969 -28.457031 C 1.117188 -28.796875 2.382812 -29.136719 4.621094 -29.136719 L 5.449219 -29.136719 L 5.449219 -12.308594 C 5.449219 -8.027344 5.011719 -3.015625 4.28125 0 Z M 4.28125 0 "/></g></g></g><g fill="#ffffff" fill-opacity="1"><g transform="translate(196.291543, 223.135109)"><g><path d="M 9.679688 0.679688 C 14.789062 0.679688 18.386719 -5.691406 18.386719 -17.074219 C 18.386719 -28.507812 14.789062 -34.734375 9.679688 -34.734375 C 4.476562 -34.734375 0.925781 -28.507812 0.925781 -17.074219 C 0.925781 -5.691406 4.476562 0.679688 9.679688 0.679688 Z M 9.679688 -4.136719 C 7.539062 -4.136719 6.082031 -7.929688 6.082031 -17.074219 C 6.082031 -26.171875 7.539062 -29.964844 9.679688 -29.964844 C 11.722656 -29.964844 13.230469 -26.171875 13.230469 -17.074219 C 13.230469 -7.929688 11.722656 -4.136719 9.679688 -4.136719 Z M 9.679688 -4.136719 "/></g></g></g><g fill="#ffffff" fill-opacity="1"><g transform="translate(222.414248, 223.135109)"><g><path d="M 4.378906 0 L 11.480469 0 L 14.542969 -20.625 L 14.933594 -20.625 L 18 0 L 25.101562 0 C 24.808594 -3.160156 25.003906 -8.269531 25.488281 -12.40625 L 26.851562 -21.746094 C 27.386719 -26.023438 28.410156 -31.035156 29.480469 -34.050781 L 22.328125 -34.050781 C 22.667969 -31.035156 22.523438 -26.023438 21.988281 -21.746094 L 20.964844 -15.128906 C 20.867188 -14.253906 20.769531 -13.328125 20.625 -12.453125 L 20.285156 -12.453125 L 17.121094 -34.050781 L 12.5 -34.050781 L 9.195312 -12.453125 L 8.804688 -12.453125 C 8.660156 -13.328125 8.5625 -14.203125 8.464844 -15.078125 L 7.492188 -21.746094 C 6.957031 -26.023438 6.808594 -31.035156 7.152344 -34.050781 L 0 -34.050781 C 1.070312 -31.035156 2.089844 -26.023438 2.625 -21.746094 L 3.941406 -12.40625 C 4.476562 -8.269531 4.667969 -3.160156 4.378906 0 Z M 4.378906 0 "/></g></g></g><g fill="#ffffff" fill-opacity="1"><g transform="translate(258.849591, 223.135109)"><g><path d="M 1.554688 0 L 8.660156 0 C 8.027344 -3.015625 7.539062 -8.027344 7.539062 -12.308594 L 7.539062 -18.679688 L 7.878906 -18.679688 L 14.351562 0 L 18.875 0 L 18.875 -21.746094 C 18.875 -26.023438 19.3125 -31.035156 19.945312 -34.050781 L 12.84375 -34.050781 C 13.425781 -31.570312 13.863281 -27.726562 13.960938 -23.980469 L 13.960938 -15.519531 L 13.621094 -15.519531 L 7.25 -34.050781 L 1.554688 -34.050781 C 2.238281 -31.035156 2.722656 -26.023438 2.722656 -21.746094 L 2.722656 -12.308594 C 2.722656 -8.027344 2.238281 -3.015625 1.554688 0 Z M 1.554688 0 "/></g></g></g><path stroke-linecap="butt" transform="matrix(1.505376, 0, 0, 1.5, 158.339759, 236.270243)" fill="none" stroke-linejoin="miter" d="M 0.0000563631 -0.000474423 L 34.880246 -0.000474423 " stroke="#ffffff" stroke-width="1" stroke-opacity="1" stroke-miterlimit="4"/></svg>