<svg xmlns="http://www.w3.org/2000/svg" xmlns:xlink="http://www.w3.org/1999/xlink" zoomAndPan="magnify" preserveAspectRatio="xMidYMid meet" version="1.0" viewBox="67.48 111.98 242.11 137.15"><defs><g/><clipPath id="id1"><path d="M 139 112 L 236 112 L 236 211 L 139 211 Z M 139 112 " clip-rule="nonzero"/></clipPath><clipPath id="id2"><path d="M 136.789062 117.332031 L 232.640625 111.988281 L 237.980469 207.839844 L 142.128906 213.183594 Z M 136.789062 117.332031 " clip-rule="nonzero"/></clipPath><clipPath id="id3"><path d="M 232.851562 111.976562 L 137 117.320312 L 142.339844 213.171875 L 238.191406 207.828125 Z M 232.851562 111.976562 " clip-rule="nonzero"/></clipPath><clipPath id="id4"><path d="M 148.433594 146 L 214.433594 146 L 214.433594 212 L 148.433594 212 Z M 148.433594 146 " clip-rule="nonzero"/></clipPath></defs><g clip-path="url(#id1)"><g clip-path="url(#id2)"><g clip-path="url(#id3)"><path fill="rgb(100%, 100%, 100%)" d="M 142.386719 163.074219 L 183.089844 117.5625 C 184.746094 115.742188 187.082031 114.527344 189.714844 114.382812 L 223.265625 112.511719 C 228.558594 112.21875 233.089844 116.265625 233.382812 121.5625 L 235.253906 155.109375 C 235.402344 157.769531 234.457031 160.226562 232.804688 162.050781 L 192.074219 207.585938 C 190.445312 209.410156 188.109375 210.621094 185.472656 210.765625 C 182.835938 210.914062 180.355469 209.972656 178.535156 208.339844 L 143.117188 176.664062 C 141.296875 175.011719 140.082031 172.675781 139.9375 170.039062 C 139.789062 167.378906 140.734375 164.921875 142.386719 163.074219 Z M 217.410156 136.875 C 221.390625 136.652344 224.421875 133.265625 224.199219 129.285156 C 223.976562 125.308594 220.585938 122.277344 216.609375 122.5 C 212.632812 122.71875 209.601562 126.109375 209.820312 130.085938 C 210.042969 134.066406 213.433594 137.097656 217.410156 136.875 Z M 217.410156 136.875 " fill-opacity="1" fill-rule="nonzero"/></g></g></g><path fill="rgb(0%, 0%, 0%)" d="M 149.210938 178.214844 C 150.066406 179.542969 159.113281 183.433594 161.761719 182.625 C 162.761719 181.621094 162.667969 177.011719 163.261719 175.832031 C 164.710938 180.417969 161.601562 205.386719 161.511719 209.292969 C 165.371094 212.007812 194.164062 211.714844 200.933594 210.097656 C 201.976562 208.617188 198.433594 186.640625 198.789062 176.589844 C 199.472656 177.59375 199.863281 180.238281 200.039062 181.367188 C 202.832031 182.175781 212.984375 179.859375 213.734375 178.601562 C 213.761719 176.085938 206.792969 156.714844 205.042969 155.707031 C 203.074219 154.003906 191.160156 149.878906 189.464844 147.996094 C 189.074219 147.777344 188.765625 147.222656 188.546875 146.902344 C 186.59375 147.808594 176.953125 148.164062 175.160156 146.753906 C 174.726562 147.273438 174.773438 147.609375 174.121094 147.910156 C 172.871094 147.910156 161.828125 153.179688 158.152344 156.160156 C 155.5 159.324219 148.75 176.613281 149.210938 178.21875 Z M 149.210938 178.214844 " fill-opacity="1" fill-rule="evenodd"/><g clip-path="url(#id4)"><path fill="rgb(0%, 0%, 0%)" d="M 175.027344 146 C 173.113281 148.714844 167.960938 149.644531 164.78125 151.828125 C 161.636719 153.761719 157.519531 154.917969 156.03125 158.648438 C 152.984375 164.867188 150.160156 170.804688 148.519531 177.558594 C 149.585938 180.777344 154.265625 181.304688 157.121094 182.605469 C 158.082031 182.855469 160.066406 183.421875 161.332031 183.125 C 162.347656 182.214844 162.640625 180.441406 163.15625 177.375 C 164.554688 183.34375 161.304688 200.101562 160.882812 209.476562 C 163.5 211.660156 168.652344 210.945312 172.464844 211.382812 C 182.015625 211.695312 193.039062 211.210938 201.886719 210.871094 C 201.488281 207.65625 201.019531 203.53125 201.089844 200.144531 C 200.472656 193.988281 199.417969 188.082031 199.105469 181.898438 C 198.90625 181.484375 198.964844 179.125 198.832031 177.949219 C 199.679688 179.734375 200.210938 181.84375 200.222656 182.234375 C 202.082031 181.902344 208.234375 181.109375 209.921875 180.757812 C 211.71875 180.65625 213.382812 180.429688 214.332031 179.699219 C 214.296875 178.84375 213.789062 177.234375 213.441406 174.605469 C 211.320312 168.136719 209.238281 161.554688 205.898438 155.605469 C 202.773438 152.921875 198.21875 152.355469 194.582031 150.480469 C 191.378906 149.570312 190.285156 147.890625 188.089844 146.585938 C 184.042969 147.714844 179.765625 148.171875 175.027344 146 Z M 175.347656 147.332031 C 179.488281 148.550781 184.023438 148.394531 188.214844 147.542969 C 191.132812 150.660156 195.789062 151.234375 199.511719 153.128906 C 203.316406 154.242188 206.675781 157.027344 207.566406 161.09375 C 209.804688 166.695312 212.070312 172.960938 213.363281 178.863281 C 209.496094 180.578125 204.765625 180.863281 200.535156 180.683594 C 200.9375 178.535156 198.035156 173.277344 198.066406 177.96875 C 198.085938 188.5 200.691406 199.523438 200.875 210.03125 C 190.5 210.796875 179.1875 211.140625 168.742188 210.46875 C 165.140625 210.277344 160.179688 209.761719 162.347656 204.78125 C 163.066406 195.5 164.621094 186.070312 164.078125 176.742188 C 162.308594 172.21875 162.074219 180.324219 161.324219 181.914062 C 157.214844 181.824219 152.699219 180.410156 149.296875 178.195312 C 150.976562 171.367188 154.070312 164.339844 157.238281 158.078125 C 159.292969 154.503906 163.699219 153.449219 167.039062 151.390625 C 169.527344 149.738281 173.15625 149.203125 175.347656 147.332031 Z M 175.347656 147.332031 " fill-opacity="1" fill-rule="evenodd"/></g><g fill="rgb(100%, 100%, 100%)" fill-opacity="1"><g transform="translate(64.767895, 248.629714)"><g><path d="M 22.257812 -0.640625 L 23.277344 -0.0390625 L 24.332031 0.0742188 L 25.164062 -0.1875 L 25.539062 -0.941406 L 25.617188 -14.710938 L 25.503906 -15.355469 L 25.503906 -19.089844 L 25.617188 -19.996094 L 25.503906 -25.238281 L 25.125 -25.992188 L 24.371094 -26.40625 L 19.691406 -26.371094 L 18.976562 -25.953125 L 18.5625 -25.164062 L 18.523438 -24.371094 L 18.636719 -23.765625 L 18.523438 -22.183594 L 18.597656 -21.351562 L 18.523438 -14.597656 L 18.296875 -13.957031 L 17.730469 -14.222656 L 15.050781 -16.902344 L 13.996094 -17.730469 L 6.5625 -25.238281 L 6 -25.691406 L 5.128906 -26.144531 L 4 -26.40625 L 3.132812 -26.03125 L 2.792969 -25.3125 L 2.792969 -13.882812 L 2.753906 -13.242188 L 2.828125 -11.695312 L 2.714844 -11.054688 L 2.792969 -4.867188 L 2.714844 -4.148438 L 2.792969 -0.980469 L 3.132812 -0.265625 L 3.921875 0 L 5.46875 0.0742188 L 6.300781 0 L 7.769531 0.113281 L 8.5625 0.0742188 L 9.316406 -0.300781 L 9.695312 -1.472656 L 9.734375 -11.015625 L 9.808594 -11.769531 L 10.074219 -12.410156 L 10.5625 -12.222656 L 11.054688 -11.582031 L 13.730469 -9.015625 L 14.222656 -8.449219 L 14.863281 -8.035156 L 20.710938 -2.226562 L 21.691406 -1.132812 Z M 22.257812 -0.640625 "/></g></g></g><g fill="rgb(100%, 100%, 100%)" fill-opacity="1"><g transform="translate(95.776166, 248.629714)"><g><path d="M 15.128906 0.492188 L 18.484375 0.152344 L 19.917969 -0.300781 L 23.277344 -1.8125 L 25.917969 -4.339844 L 26.40625 -5.015625 L 27.878906 -7.621094 L 28.144531 -8.335938 L 28.257812 -9.089844 L 28.480469 -9.695312 L 28.632812 -10.523438 L 28.820312 -13.167969 L 28.632812 -15.769531 L 28.332031 -17.164062 L 28.03125 -17.957031 L 27.839844 -18.824219 L 27.160156 -20.070312 L 26.898438 -20.75 L 26.40625 -21.390625 L 25.953125 -21.84375 L 25.464844 -22.523438 L 23.84375 -23.992188 L 21.917969 -25.199219 L 16.976562 -26.746094 L 15.203125 -26.785156 L 12.5625 -26.632812 L 11.808594 -26.484375 L 11.054688 -26.257812 L 10.375 -25.953125 L 8.941406 -25.578125 L 7.015625 -24.371094 L 6.488281 -23.917969 L 5.28125 -23.085938 L 4.261719 -21.957031 L 2.980469 -20.070312 L 2.640625 -19.429688 L 1.925781 -17.351562 L 1.621094 -15.730469 L 1.472656 -11.355469 L 1.886719 -8.980469 L 2.453125 -7.695312 L 2.679688 -6.902344 L 3.054688 -6.226562 L 4.828125 -3.808594 L 5.886719 -2.792969 L 6.375 -2.226562 L 8.941406 -0.867188 L 9.65625 -0.566406 L 12.863281 0.378906 Z M 14.070312 -6.148438 L 13.316406 -6.414062 L 12.636719 -6.488281 L 11.355469 -7.167969 L 10.1875 -8.1875 L 9.808594 -8.714844 L 9.316406 -9.242188 L 8.601562 -11.355469 L 8.414062 -13.242188 L 8.449219 -14.375 L 8.714844 -15.769531 L 8.941406 -16.449219 L 9.394531 -16.976562 L 9.734375 -17.617188 L 10.222656 -18.222656 L 10.789062 -18.710938 L 11.882812 -19.464844 L 12.5625 -19.804688 L 13.355469 -19.996094 L 15.089844 -20.144531 L 16.902344 -20.03125 L 18.898438 -19.164062 L 20.070312 -18.296875 L 20.9375 -17.015625 L 21.238281 -16.335938 L 21.464844 -15.582031 L 21.730469 -14.902344 L 21.878906 -13.277344 L 21.652344 -11.394531 L 21.316406 -9.847656 L 20.898438 -9.28125 L 20.558594 -8.714844 L 20.109375 -8.035156 L 18.9375 -7.128906 L 18.257812 -6.828125 L 17.65625 -6.488281 L 16.976562 -6.414062 L 16.257812 -6.226562 Z M 14.070312 -6.148438 "/></g></g></g><g fill="rgb(100%, 100%, 100%)" fill-opacity="1"><g transform="translate(128.595121, 248.629714)"><g><path d="M 10.148438 0.339844 L 13.128906 0.414062 L 13.882812 0.339844 L 14.636719 0.152344 L 15.390625 0.0390625 L 16.144531 -0.265625 L 16.824219 -0.339844 L 17.542969 -0.679688 L 20.109375 -2.226562 L 21.203125 -3.359375 L 21.578125 -3.886719 L 21.992188 -4.714844 L 22.21875 -5.394531 L 22.445312 -6.035156 L 22.671875 -7.921875 L 22.597656 -9.128906 L 22.03125 -11.316406 L 21.617188 -11.921875 L 20.636719 -13.054688 L 19.957031 -13.65625 L 19.351562 -13.957031 L 18.675781 -14.375 L 15.730469 -15.277344 L 14.976562 -15.390625 L 14.222656 -15.429688 L 13.429688 -15.582031 L 12.335938 -15.582031 L 10.335938 -15.996094 L 8.941406 -16.675781 L 8.375 -17.203125 L 8.222656 -18.335938 L 8.414062 -19.351562 L 8.867188 -19.84375 L 9.429688 -20.257812 L 10.035156 -20.597656 L 10.714844 -20.75 L 11.921875 -20.785156 L 13.128906 -20.636719 L 13.808594 -20.445312 L 14.488281 -19.996094 L 15.128906 -19.464844 L 15.695312 -18.710938 L 16.523438 -18.222656 L 18.296875 -18.371094 L 19.316406 -18.296875 L 20.070312 -18.296875 L 20.75 -18.222656 L 21.464844 -18.75 L 21.765625 -19.390625 L 21.617188 -20.109375 L 21.539062 -20.824219 L 20.484375 -22.785156 L 19.65625 -23.917969 L 17.164062 -25.652344 L 15.050781 -26.371094 L 13.582031 -26.671875 L 10.675781 -26.746094 L 9.847656 -26.519531 L 9.089844 -26.484375 L 8.414062 -26.371094 L 6.980469 -25.917969 L 5.695312 -25.164062 L 3.886719 -23.917969 L 2.566406 -22.144531 L 1.886719 -20.070312 L 1.773438 -18.222656 L 1.8125 -17.050781 L 2.074219 -15.542969 L 2.679688 -14.222656 L 4.074219 -12.488281 L 6.640625 -11.089844 L 7.996094 -10.636719 L 13.921875 -9.960938 L 15.277344 -9.316406 L 15.769531 -8.867188 L 15.996094 -7.921875 L 15.695312 -6.980469 L 15.203125 -6.414062 L 13.921875 -5.847656 L 12.75 -5.773438 L 12.070312 -5.660156 L 10.148438 -5.847656 L 9.507812 -6.1875 L 8.867188 -6.601562 L 7.621094 -7.960938 L 6.867188 -8.261719 L 6.1875 -8.1875 L 5.46875 -8.300781 L 2.566406 -8.148438 L 1.886719 -7.847656 L 1.585938 -7.054688 L 1.699219 -6.300781 L 1.847656 -5.546875 L 2.074219 -4.867188 L 2.792969 -3.46875 L 3.320312 -2.980469 L 3.808594 -2.414062 L 5.128906 -1.585938 L 5.660156 -1.019531 L 6.375 -0.679688 L 7.128906 -0.453125 L 8.601562 0.0742188 Z M 10.148438 0.339844 "/></g></g></g><g fill="rgb(100%, 100%, 100%)" fill-opacity="1"><g transform="translate(155.227575, 248.629714)"><g><path d="M 9.847656 0.0742188 L 12.375 0 L 13.46875 -0.378906 L 13.84375 -1.433594 L 13.957031 -3.394531 L 13.84375 -4.828125 L 13.921875 -5.621094 L 13.882812 -7.128906 L 13.957031 -7.808594 L 13.84375 -8.640625 L 13.921875 -14.710938 L 13.808594 -15.503906 L 13.921875 -18.785156 L 14.222656 -19.917969 L 14.9375 -20.371094 L 16.410156 -20.445312 L 17.804688 -20.257812 L 18.597656 -20.371094 L 19.277344 -20.332031 L 19.917969 -20.75 L 20.371094 -21.578125 L 20.410156 -25.164062 L 19.996094 -25.917969 L 19.277344 -26.40625 L 16.9375 -26.40625 L 16.222656 -26.484375 L 15.429688 -26.371094 L 14.710938 -26.445312 L 11.65625 -26.292969 L 10.902344 -26.445312 L 10.1875 -26.484375 L 9.394531 -26.371094 L 8.5625 -26.445312 L 7.882812 -26.292969 L 5.660156 -26.40625 L 4.488281 -26.292969 L 1.847656 -26.445312 L 1.132812 -26.066406 L 0.679688 -25.199219 L 0.714844 -24.445312 L 0.640625 -22.558594 L 0.714844 -21.390625 L 1.054688 -20.710938 L 1.734375 -20.332031 L 2.488281 -20.410156 L 6.074219 -20.332031 L 6.789062 -19.957031 L 7.207031 -19.203125 L 7.128906 -17.996094 L 7.207031 -16.9375 L 7.167969 -16.109375 L 7.207031 -15.355469 L 7.128906 -14.296875 L 7.242188 -8.675781 L 7.167969 -7.921875 L 7.128906 -4.867188 L 7.207031 -4.074219 L 7.167969 -1.886719 L 7.09375 -1.167969 L 7.582031 -0.339844 L 8.675781 0.0390625 Z M 9.847656 0.0742188 "/></g></g></g><g fill="rgb(100%, 100%, 100%)" fill-opacity="1"><g transform="translate(178.879936, 248.629714)"><g><path d="M 22.257812 0.0742188 L 23.691406 -0.0390625 L 24.40625 0.0390625 L 25.578125 0 L 26.632812 -0.1875 L 26.746094 -1.09375 L 26.484375 -1.960938 L 25.917969 -3.359375 L 24.898438 -5.320312 L 24.371094 -6.714844 L 23.617188 -8.074219 L 22.183594 -11.507812 L 21.804688 -12.070312 L 21.429688 -12.789062 L 21.203125 -13.617188 L 20.863281 -14.183594 L 20.636719 -14.789062 L 19.84375 -16.183594 L 19.578125 -16.976562 L 17.089844 -22.21875 L 16.863281 -22.972656 L 16.449219 -23.652344 L 16.222656 -24.332031 L 15.503906 -25.652344 L 14.863281 -26.332031 L 13.617188 -26.710938 L 12.410156 -26.292969 L 11.734375 -25.652344 L 11.394531 -25.011719 L 11.128906 -24.257812 L 10.789062 -23.730469 L 9.28125 -20.257812 L 8.867188 -19.691406 L 8.675781 -18.9375 L 8.261719 -18.222656 L 8.035156 -17.542969 L 4.1875 -9.46875 L 3.960938 -8.640625 L 3.582031 -8.074219 L 3.320312 -7.320312 L 2.640625 -6.113281 L 2.074219 -4.601562 L 1.660156 -4.074219 L 1.472656 -3.394531 L 0.714844 -1.886719 L 0.492188 -1.132812 L 0.679688 -0.1875 L 1.433594 0.0390625 L 2.90625 -0.0390625 L 3.660156 0.0390625 L 5.773438 -0.0390625 L 6.640625 -0.300781 L 7.355469 -0.980469 L 8.035156 -2.226562 L 8.753906 -2.941406 L 9.542969 -3.359375 L 10.261719 -3.246094 L 11.84375 -3.394531 L 12.523438 -3.28125 L 16.222656 -3.320312 L 16.902344 -3.246094 L 17.730469 -3.359375 L 18.5625 -2.941406 L 19.277344 -2.339844 L 19.617188 -1.621094 L 19.84375 -0.941406 L 20.597656 -0.378906 L 21.464844 0 Z M 13.695312 -9.316406 L 12.941406 -9.46875 L 12.070312 -9.394531 L 11.46875 -9.65625 L 11.429688 -10.375 L 13.203125 -14.449219 L 13.617188 -14.789062 L 14.148438 -14.488281 L 15.921875 -10.335938 L 15.769531 -9.65625 L 15.203125 -9.355469 Z M 13.695312 -9.316406 "/></g></g></g><g fill="rgb(100%, 100%, 100%)" fill-opacity="1"><g transform="translate(208.831972, 248.629714)"><g><path d="M 2.867188 -1.359375 L 3.132812 -0.378906 L 3.847656 0 L 4.601562 0.0742188 L 6.1875 -0.0390625 L 7.65625 0.0390625 L 9.089844 -0.0390625 L 9.808594 0.0742188 L 10.636719 0 L 18.109375 0.0390625 L 18.824219 -0.339844 L 19.238281 -1.507812 L 19.203125 -4.566406 L 18.863281 -5.695312 L 18.183594 -6.148438 L 17.390625 -6.074219 L 16.675781 -5.921875 L 15.882812 -6.035156 L 14.335938 -6 L 13.582031 -6.148438 L 12.902344 -6.035156 L 11.429688 -6.113281 L 10.636719 -6.035156 L 9.882812 -6.335938 L 9.582031 -7.09375 L 9.621094 -19.882812 L 9.542969 -20.785156 L 9.621094 -22.296875 L 9.507812 -24.445312 L 9.542969 -25.164062 L 9.167969 -25.992188 L 8.414062 -26.445312 L 6.941406 -26.445312 L 6.1875 -26.292969 L 4.679688 -26.445312 L 3.960938 -26.332031 L 3.167969 -26.03125 L 2.828125 -25.199219 L 2.828125 -19.917969 L 2.753906 -19.203125 L 2.828125 -18.449219 L 2.714844 -17.050781 L 2.753906 -16.222656 L 2.828125 -15.503906 Z M 2.867188 -1.359375 "/></g></g></g><g fill="rgb(100%, 100%, 100%)" fill-opacity="1"><g transform="translate(231.692162, 248.629714)"><g><path d="M 13.089844 0.378906 L 16.863281 0.378906 L 19.691406 -0.300781 L 22.371094 -1.660156 L 23.539062 -2.566406 L 24.105469 -3.167969 L 24.671875 -3.621094 L 25.125 -4.148438 L 25.503906 -4.792969 L 25.839844 -5.46875 L 26.292969 -6 L 27.046875 -8.222656 L 27.351562 -9.65625 L 27.386719 -10.300781 L 27.539062 -10.976562 L 27.539062 -11.734375 L 27.613281 -12.449219 L 27.539062 -13.882812 L 27.160156 -14.523438 L 26.445312 -14.902344 L 25.652344 -14.9375 L 24.859375 -15.050781 L 19.769531 -14.9375 L 17.503906 -15.089844 L 16.070312 -14.976562 L 15.316406 -14.597656 L 14.976562 -13.882812 L 14.976562 -10.300781 L 15.316406 -9.695312 L 15.996094 -9.28125 L 17.089844 -9.203125 L 18.976562 -9.355469 L 19.65625 -9.242188 L 20.21875 -8.980469 L 20.332031 -8.335938 L 19.957031 -7.695312 L 19.390625 -7.054688 L 18.863281 -6.640625 L 17.617188 -6.148438 L 16.144531 -5.808594 L 15.164062 -5.773438 L 13.242188 -6 L 11.203125 -6.828125 L 10.074219 -7.882812 L 9.65625 -8.414062 L 8.941406 -9.769531 L 8.640625 -10.863281 L 8.449219 -12.070312 L 8.414062 -14.261719 L 8.675781 -15.730469 L 9.28125 -17.089844 L 10.449219 -18.863281 L 11.769531 -19.804688 L 12.410156 -20.144531 L 13.128906 -20.21875 L 13.769531 -20.523438 L 16.070312 -20.597656 L 17.464844 -20.21875 L 18.183594 -19.917969 L 18.898438 -19.429688 L 19.351562 -18.9375 L 19.84375 -18.296875 L 20.636719 -17.65625 L 21.539062 -17.390625 L 22.710938 -17.351562 L 23.84375 -17.503906 L 25.652344 -17.390625 L 26.597656 -17.804688 L 26.824219 -18.449219 L 26.292969 -19.996094 L 25.953125 -20.671875 L 24.445312 -22.863281 L 23.617188 -23.539062 L 23.011719 -24.105469 L 22.445312 -24.558594 L 19.804688 -25.953125 L 19.011719 -26.105469 L 17.242188 -26.597656 L 13.730469 -26.746094 L 12.976562 -26.710938 L 12.335938 -26.484375 L 11.621094 -26.445312 L 8.714844 -25.390625 L 6.640625 -24.105469 L 4.980469 -22.636719 L 4.488281 -22.03125 L 3.921875 -21.464844 L 3.507812 -20.898438 L 2.113281 -18.070312 L 1.433594 -14.335938 L 1.394531 -13.128906 L 1.585938 -10.488281 L 2.640625 -6.941406 L 3.320312 -5.660156 L 4.1875 -4.375 L 5.695312 -2.792969 L 6.941406 -1.925781 L 9.542969 -0.414062 L 10.1875 -0.226562 L 12.335938 0.152344 Z M 13.089844 0.378906 "/></g></g></g><g fill="rgb(100%, 100%, 100%)" fill-opacity="1"><g transform="translate(263.153112, 248.629714)"><g><path d="M 12.636719 0.152344 L 14.148438 0.0742188 L 14.824219 -0.300781 L 15.203125 -1.019531 L 15.203125 -4.753906 L 14.75 -5.46875 L 13.921875 -5.886719 L 13.128906 -5.886719 L 12.222656 -6.1875 L 11.769531 -7.054688 L 11.882812 -7.769531 L 11.84375 -11.921875 L 11.921875 -12.75 L 11.769531 -15.46875 L 11.921875 -19.277344 L 12.183594 -20.144531 L 13.015625 -20.484375 L 13.769531 -20.597656 L 14.5625 -20.898438 L 14.9375 -21.503906 L 14.976562 -25.238281 L 14.523438 -25.953125 L 13.84375 -26.371094 L 9.28125 -26.371094 L 8.601562 -26.445312 L 7.847656 -26.292969 L 4.753906 -26.292969 L 4.035156 -26.40625 L 3.167969 -26.40625 L 2.414062 -26.03125 L 2.039062 -25.125 L 2.148438 -22.332031 L 2.074219 -21.617188 L 2.488281 -20.863281 L 3.320312 -20.445312 L 4.074219 -20.445312 L 4.792969 -19.996094 L 5.128906 -18.976562 L 5.242188 -7.394531 L 4.828125 -6.261719 L 2.339844 -5.507812 L 1.925781 -4.828125 L 1.8125 -1.359375 L 2.1875 -0.339844 L 2.941406 0 L 3.660156 0 L 4.375 -0.0742188 L 5.46875 0.0742188 L 6.640625 0.0390625 L 7.394531 -0.0390625 L 8.902344 0.113281 L 10.035156 -0.0390625 L 11.882812 -0.0390625 Z M 12.636719 0.152344 "/></g></g></g><g fill="rgb(100%, 100%, 100%)" fill-opacity="1"><g transform="translate(282.844617, 248.629714)"><g><path d="M 22.257812 0.0742188 L 23.691406 -0.0390625 L 24.40625 0.0390625 L 25.578125 0 L 26.632812 -0.1875 L 26.746094 -1.09375 L 26.484375 -1.960938 L 25.917969 -3.359375 L 24.898438 -5.320312 L 24.371094 -6.714844 L 23.617188 -8.074219 L 22.183594 -11.507812 L 21.804688 -12.070312 L 21.429688 -12.789062 L 21.203125 -13.617188 L 20.863281 -14.183594 L 20.636719 -14.789062 L 19.84375 -16.183594 L 19.578125 -16.976562 L 17.089844 -22.21875 L 16.863281 -22.972656 L 16.449219 -23.652344 L 16.222656 -24.332031 L 15.503906 -25.652344 L 14.863281 -26.332031 L 13.617188 -26.710938 L 12.410156 -26.292969 L 11.734375 -25.652344 L 11.394531 -25.011719 L 11.128906 -24.257812 L 10.789062 -23.730469 L 9.28125 -20.257812 L 8.867188 -19.691406 L 8.675781 -18.9375 L 8.261719 -18.222656 L 8.035156 -17.542969 L 4.1875 -9.46875 L 3.960938 -8.640625 L 3.582031 -8.074219 L 3.320312 -7.320312 L 2.640625 -6.113281 L 2.074219 -4.601562 L 1.660156 -4.074219 L 1.472656 -3.394531 L 0.714844 -1.886719 L 0.492188 -1.132812 L 0.679688 -0.1875 L 1.433594 0.0390625 L 2.90625 -0.0390625 L 3.660156 0.0390625 L 5.773438 -0.0390625 L 6.640625 -0.300781 L 7.355469 -0.980469 L 8.035156 -2.226562 L 8.753906 -2.941406 L 9.542969 -3.359375 L 10.261719 -3.246094 L 11.84375 -3.394531 L 12.523438 -3.28125 L 16.222656 -3.320312 L 16.902344 -3.246094 L 17.730469 -3.359375 L 18.5625 -2.941406 L 19.277344 -2.339844 L 19.617188 -1.621094 L 19.84375 -0.941406 L 20.597656 -0.378906 L 21.464844 0 Z M 13.695312 -9.316406 L 12.941406 -9.46875 L 12.070312 -9.394531 L 11.46875 -9.65625 L 11.429688 -10.375 L 13.203125 -14.449219 L 13.617188 -14.789062 L 14.148438 -14.488281 L 15.921875 -10.335938 L 15.769531 -9.65625 L 15.203125 -9.355469 Z M 13.695312 -9.316406 "/></g></g></g></svg>