<svg xmlns="http://www.w3.org/2000/svg" xmlns:xlink="http://www.w3.org/1999/xlink" width="500" zoomAndPan="magnify" viewBox="0 0 375 374.999991" height="500" preserveAspectRatio="xMidYMid meet" version="1.0"><defs><g/><clipPath id="id1"><path d="M 139 112 L 236 112 L 236 211 L 139 211 Z M 139 112 " clip-rule="nonzero"/></clipPath><clipPath id="id2"><path d="M 136.789062 117.332031 L 232.640625 111.988281 L 237.980469 207.839844 L 142.128906 213.183594 Z M 136.789062 117.332031 " clip-rule="nonzero"/></clipPath><clipPath id="id3"><path d="M 232.851562 111.976562 L 137 117.320312 L 142.339844 213.171875 L 238.191406 207.828125 Z M 232.851562 111.976562 " clip-rule="nonzero"/></clipPath><clipPath id="id4"><path d="M 232.851562 111.976562 L 137 117.320312 L 142.339844 213.171875 L 238.191406 207.828125 Z M 232.851562 111.976562 " clip-rule="nonzero"/></clipPath><clipPath id="id5"><path d="M 148.433594 146 L 214.433594 146 L 214.433594 212 L 148.433594 212 Z M 148.433594 146 " clip-rule="nonzero"/></clipPath></defs><g clip-path="url(#id1)"><g clip-path="url(#id2)"><g clip-path="url(#id3)"><g clip-path="url(#id4)"><path fill="rgb(0%, 0%, 0%)" d="M 142.386719 163.074219 L 183.089844 117.5625 C 184.746094 115.742188 187.082031 114.527344 189.714844 114.382812 L 223.265625 112.511719 C 228.558594 112.21875 233.089844 116.265625 233.382812 121.5625 L 235.253906 155.109375 C 235.402344 157.769531 234.457031 160.226562 232.804688 162.050781 L 192.074219 207.585938 C 190.445312 209.410156 188.109375 210.621094 185.472656 210.765625 C 182.835938 210.914062 180.355469 209.972656 178.535156 208.339844 L 143.117188 176.664062 C 141.296875 175.011719 140.082031 172.675781 139.9375 170.039062 C 139.789062 167.378906 140.734375 164.921875 142.386719 163.074219 Z M 217.410156 136.875 C 221.390625 136.652344 224.421875 133.265625 224.199219 129.285156 C 223.976562 125.308594 220.585938 122.277344 216.609375 122.5 C 212.632812 122.71875 209.601562 126.109375 209.820312 130.085938 C 210.042969 134.066406 213.433594 137.097656 217.410156 136.875 Z M 217.410156 136.875 " fill-opacity="1" fill-rule="nonzero"/></g></g></g></g><path fill="rgb(100%, 100%, 100%)" d="M 149.210938 178.214844 C 150.066406 179.542969 159.113281 183.433594 161.761719 182.625 C 162.761719 181.621094 162.667969 177.011719 163.261719 175.832031 C 164.710938 180.417969 161.601562 205.386719 161.511719 209.292969 C 165.371094 212.007812 194.164062 211.714844 200.933594 210.097656 C 201.976562 208.617188 198.433594 186.640625 198.789062 176.589844 C 199.472656 177.59375 199.863281 180.238281 200.039062 181.367188 C 202.832031 182.175781 212.984375 179.859375 213.734375 178.601562 C 213.761719 176.085938 206.792969 156.714844 205.042969 155.707031 C 203.074219 154.003906 191.160156 149.878906 189.464844 147.996094 C 189.074219 147.777344 188.765625 147.222656 188.546875 146.902344 C 186.59375 147.808594 176.953125 148.164062 175.160156 146.753906 C 174.726562 147.273438 174.773438 147.609375 174.121094 147.910156 C 172.871094 147.910156 161.828125 153.179688 158.152344 156.160156 C 155.5 159.324219 148.75 176.613281 149.210938 178.21875 Z M 149.210938 178.214844 " fill-opacity="1" fill-rule="evenodd"/><g clip-path="url(#id5)"><path fill="rgb(100%, 100%, 100%)" d="M 175.027344 146 C 173.113281 148.714844 167.960938 149.644531 164.78125 151.828125 C 161.636719 153.761719 157.519531 154.917969 156.03125 158.648438 C 152.984375 164.867188 150.160156 170.804688 148.519531 177.558594 C 149.585938 180.777344 154.265625 181.304688 157.121094 182.605469 C 158.082031 182.855469 160.066406 183.421875 161.332031 183.125 C 162.347656 182.214844 162.640625 180.441406 163.15625 177.375 C 164.554688 183.34375 161.304688 200.101562 160.882812 209.476562 C 163.5 211.660156 168.652344 210.945312 172.464844 211.382812 C 182.015625 211.695312 193.039062 211.210938 201.886719 210.871094 C 201.488281 207.65625 201.019531 203.53125 201.089844 200.144531 C 200.472656 193.988281 199.417969 188.082031 199.105469 181.898438 C 198.90625 181.484375 198.964844 179.125 198.832031 177.949219 C 199.679688 179.734375 200.210938 181.84375 200.222656 182.234375 C 202.082031 181.902344 208.234375 181.109375 209.921875 180.757812 C 211.71875 180.65625 213.382812 180.429688 214.332031 179.699219 C 214.296875 178.84375 213.789062 177.234375 213.441406 174.605469 C 211.320312 168.136719 209.238281 161.554688 205.898438 155.605469 C 202.773438 152.921875 198.21875 152.355469 194.582031 150.480469 C 191.378906 149.570312 190.285156 147.890625 188.089844 146.585938 C 184.042969 147.714844 179.765625 148.171875 175.027344 146 Z M 175.347656 147.332031 C 179.488281 148.550781 184.023438 148.394531 188.214844 147.542969 C 191.132812 150.660156 195.789062 151.234375 199.511719 153.128906 C 203.316406 154.242188 206.675781 157.027344 207.566406 161.09375 C 209.804688 166.695312 212.070312 172.960938 213.363281 178.863281 C 209.496094 180.578125 204.765625 180.863281 200.535156 180.683594 C 200.9375 178.535156 198.035156 173.277344 198.066406 177.96875 C 198.085938 188.5 200.691406 199.523438 200.875 210.03125 C 190.5 210.796875 179.1875 211.140625 168.742188 210.46875 C 165.140625 210.277344 160.179688 209.761719 162.347656 204.78125 C 163.066406 195.5 164.621094 186.070312 164.078125 176.742188 C 162.308594 172.21875 162.074219 180.324219 161.324219 181.914062 C 157.214844 181.824219 152.699219 180.410156 149.296875 178.195312 C 150.976562 171.367188 154.070312 164.339844 157.238281 158.078125 C 159.292969 154.503906 163.699219 153.449219 167.039062 151.390625 C 169.527344 149.738281 173.15625 149.203125 175.347656 147.332031 Z M 175.347656 147.332031 " fill-opacity="1" fill-rule="evenodd"/></g><g fill="rgb(0%, 0%, 0%)" fill-opacity="1"><g transform="translate(90.804495, 241.179711)"><g><path d="M 17.535156 -0.503906 L 18.339844 -0.03125 L 19.171875 0.0585938 L 19.824219 -0.148438 L 20.121094 -0.742188 L 20.179688 -11.589844 L 20.09375 -12.097656 L 20.09375 -15.039062 L 20.179688 -15.753906 L 20.09375 -19.882812 L 19.796875 -20.480469 L 19.199219 -20.804688 L 15.515625 -20.777344 L 14.949219 -20.449219 L 14.625 -19.824219 L 14.59375 -19.199219 L 14.683594 -18.726562 L 14.59375 -17.476562 L 14.652344 -16.824219 L 14.59375 -11.503906 L 14.414062 -10.996094 L 13.96875 -11.207031 L 11.859375 -13.316406 L 11.027344 -13.96875 L 5.171875 -19.882812 L 4.726562 -20.242188 L 4.042969 -20.597656 L 3.152344 -20.804688 L 2.46875 -20.507812 L 2.199219 -19.945312 L 2.199219 -10.9375 L 2.167969 -10.433594 L 2.230469 -9.214844 L 2.140625 -8.707031 L 2.199219 -3.835938 L 2.140625 -3.269531 L 2.199219 -0.773438 L 2.46875 -0.207031 L 3.089844 0 L 4.308594 0.0585938 L 4.964844 0 L 6.121094 0.0898438 L 6.746094 0.0585938 L 7.339844 -0.238281 L 7.640625 -1.160156 L 7.667969 -8.679688 L 7.726562 -9.273438 L 7.9375 -9.777344 L 8.324219 -9.628906 L 8.707031 -9.125 L 10.820312 -7.105469 L 11.207031 -6.65625 L 11.710938 -6.332031 L 16.316406 -1.753906 L 17.089844 -0.890625 Z M 17.535156 -0.503906 "/></g></g></g><g fill="rgb(0%, 0%, 0%)" fill-opacity="1"><g transform="translate(115.233841, 241.179711)"><g><path d="M 11.917969 0.386719 L 14.5625 0.117188 L 15.695312 -0.238281 L 18.339844 -1.425781 L 20.417969 -3.417969 L 20.804688 -3.953125 L 21.964844 -6.003906 L 22.171875 -6.570312 L 22.261719 -7.164062 L 22.441406 -7.640625 L 22.558594 -8.292969 L 22.707031 -10.375 L 22.558594 -12.425781 L 22.320312 -13.523438 L 22.082031 -14.148438 L 21.933594 -14.832031 L 21.398438 -15.8125 L 21.191406 -16.347656 L 20.804688 -16.851562 L 20.449219 -17.210938 L 20.0625 -17.746094 L 18.785156 -18.902344 L 17.269531 -19.855469 L 13.375 -21.074219 L 11.976562 -21.101562 L 9.898438 -20.984375 L 9.304688 -20.863281 L 8.707031 -20.6875 L 8.171875 -20.449219 L 7.042969 -20.152344 L 5.527344 -19.199219 L 5.113281 -18.84375 L 4.160156 -18.191406 L 3.359375 -17.296875 L 2.347656 -15.8125 L 2.082031 -15.308594 L 1.515625 -13.671875 L 1.277344 -12.394531 L 1.160156 -8.945312 L 1.484375 -7.074219 L 1.933594 -6.0625 L 2.109375 -5.4375 L 2.40625 -4.902344 L 3.804688 -3.003906 L 4.636719 -2.199219 L 5.023438 -1.753906 L 7.042969 -0.683594 L 7.609375 -0.445312 L 10.136719 0.296875 Z M 11.085938 -4.84375 L 10.492188 -5.054688 L 9.957031 -5.113281 L 8.945312 -5.648438 L 8.023438 -6.449219 L 7.726562 -6.867188 L 7.339844 -7.28125 L 6.777344 -8.945312 L 6.628906 -10.433594 L 6.65625 -11.324219 L 6.867188 -12.425781 L 7.042969 -12.960938 L 7.402344 -13.375 L 7.667969 -13.878906 L 8.054688 -14.355469 L 8.5 -14.742188 L 9.363281 -15.335938 L 9.898438 -15.605469 L 10.523438 -15.753906 L 11.890625 -15.871094 L 13.316406 -15.78125 L 14.890625 -15.097656 L 15.8125 -14.414062 L 16.496094 -13.40625 L 16.734375 -12.871094 L 16.910156 -12.277344 L 17.121094 -11.742188 L 17.238281 -10.460938 L 17.0625 -8.976562 L 16.792969 -7.757812 L 16.464844 -7.3125 L 16.199219 -6.867188 L 15.84375 -6.332031 L 14.921875 -5.617188 L 14.386719 -5.378906 L 13.910156 -5.113281 L 13.375 -5.054688 L 12.808594 -4.902344 Z M 11.085938 -4.84375 "/></g></g></g><g fill="rgb(0%, 0%, 0%)" fill-opacity="1"><g transform="translate(141.089682, 241.179711)"><g><path d="M 7.996094 0.265625 L 10.34375 0.328125 L 10.9375 0.265625 L 11.53125 0.117188 L 12.125 0.03125 L 12.722656 -0.207031 L 13.257812 -0.265625 L 13.820312 -0.535156 L 15.84375 -1.753906 L 16.703125 -2.644531 L 17 -3.0625 L 17.328125 -3.714844 L 17.507812 -4.25 L 17.683594 -4.753906 L 17.863281 -6.242188 L 17.804688 -7.191406 L 17.359375 -8.917969 L 17.03125 -9.390625 L 16.257812 -10.285156 L 15.722656 -10.757812 L 15.246094 -10.996094 L 14.710938 -11.324219 L 12.394531 -12.039062 L 11.800781 -12.125 L 11.207031 -12.15625 L 10.582031 -12.277344 L 9.71875 -12.277344 L 8.144531 -12.601562 L 7.042969 -13.136719 L 6.597656 -13.554688 L 6.480469 -14.445312 L 6.628906 -15.246094 L 6.984375 -15.632812 L 7.429688 -15.960938 L 7.90625 -16.226562 L 8.441406 -16.347656 L 9.390625 -16.378906 L 10.34375 -16.257812 L 10.878906 -16.109375 L 11.414062 -15.753906 L 11.917969 -15.335938 L 12.363281 -14.742188 L 13.019531 -14.355469 L 14.414062 -14.476562 L 15.21875 -14.414062 L 15.8125 -14.414062 L 16.347656 -14.355469 L 16.910156 -14.773438 L 17.148438 -15.277344 L 17.03125 -15.84375 L 16.972656 -16.40625 L 16.140625 -17.953125 L 15.484375 -18.84375 L 13.523438 -20.210938 L 11.859375 -20.777344 L 10.699219 -21.015625 L 8.410156 -21.074219 L 7.757812 -20.894531 L 7.164062 -20.863281 L 6.628906 -20.777344 L 5.5 -20.417969 L 4.488281 -19.824219 L 3.0625 -18.84375 L 2.019531 -17.445312 L 1.484375 -15.8125 L 1.398438 -14.355469 L 1.425781 -13.433594 L 1.632812 -12.246094 L 2.109375 -11.207031 L 3.210938 -9.839844 L 5.230469 -8.738281 L 6.300781 -8.382812 L 10.96875 -7.847656 L 12.039062 -7.339844 L 12.425781 -6.984375 L 12.601562 -6.242188 L 12.363281 -5.5 L 11.976562 -5.054688 L 10.96875 -4.605469 L 10.046875 -4.546875 L 9.511719 -4.457031 L 7.996094 -4.605469 L 7.488281 -4.875 L 6.984375 -5.203125 L 6.003906 -6.269531 L 5.410156 -6.507812 L 4.875 -6.449219 L 4.308594 -6.539062 L 2.019531 -6.421875 L 1.484375 -6.183594 L 1.25 -5.558594 L 1.335938 -4.964844 L 1.457031 -4.371094 L 1.632812 -3.835938 L 2.199219 -2.734375 L 2.617188 -2.347656 L 3.003906 -1.902344 L 4.042969 -1.25 L 4.457031 -0.800781 L 5.023438 -0.535156 L 5.617188 -0.355469 L 6.777344 0.0585938 Z M 7.996094 0.265625 "/></g></g></g><g fill="rgb(0%, 0%, 0%)" fill-opacity="1"><g transform="translate(162.071656, 241.179711)"><g><path d="M 7.757812 0.0585938 L 9.75 0 L 10.609375 -0.296875 L 10.90625 -1.128906 L 10.996094 -2.675781 L 10.90625 -3.804688 L 10.96875 -4.429688 L 10.9375 -5.617188 L 10.996094 -6.152344 L 10.90625 -6.804688 L 10.96875 -11.589844 L 10.878906 -12.214844 L 10.96875 -14.800781 L 11.207031 -15.695312 L 11.769531 -16.050781 L 12.929688 -16.109375 L 14.027344 -15.960938 L 14.652344 -16.050781 L 15.1875 -16.019531 L 15.695312 -16.347656 L 16.050781 -17 L 16.078125 -19.824219 L 15.753906 -20.417969 L 15.1875 -20.804688 L 13.34375 -20.804688 L 12.78125 -20.863281 L 12.15625 -20.777344 L 11.589844 -20.835938 L 9.183594 -20.714844 L 8.589844 -20.835938 L 8.023438 -20.863281 L 7.402344 -20.777344 L 6.746094 -20.835938 L 6.210938 -20.714844 L 4.457031 -20.804688 L 3.535156 -20.714844 L 1.457031 -20.835938 L 0.890625 -20.539062 L 0.535156 -19.855469 L 0.566406 -19.261719 L 0.503906 -17.773438 L 0.566406 -16.851562 L 0.832031 -16.316406 L 1.367188 -16.019531 L 1.960938 -16.078125 L 4.785156 -16.019531 L 5.351562 -15.722656 L 5.675781 -15.128906 L 5.617188 -14.175781 L 5.675781 -13.34375 L 5.648438 -12.691406 L 5.675781 -12.097656 L 5.617188 -11.265625 L 5.707031 -6.835938 L 5.648438 -6.242188 L 5.617188 -3.835938 L 5.675781 -3.210938 L 5.648438 -1.484375 L 5.585938 -0.921875 L 5.972656 -0.265625 L 6.835938 0.03125 Z M 7.757812 0.0585938 "/></g></g></g><g fill="rgb(0%, 0%, 0%)" fill-opacity="1"><g transform="translate(180.705852, 241.179711)"><g><path d="M 17.535156 0.0585938 L 18.664062 -0.03125 L 19.230469 0.03125 L 20.152344 0 L 20.984375 -0.148438 L 21.074219 -0.863281 L 20.863281 -1.546875 L 20.417969 -2.644531 L 19.617188 -4.191406 L 19.199219 -5.289062 L 18.605469 -6.359375 L 17.476562 -9.066406 L 17.179688 -9.511719 L 16.882812 -10.074219 L 16.703125 -10.730469 L 16.4375 -11.175781 L 16.257812 -11.652344 L 15.632812 -12.75 L 15.425781 -13.375 L 13.464844 -17.507812 L 13.285156 -18.101562 L 12.960938 -18.636719 L 12.78125 -19.171875 L 12.214844 -20.210938 L 11.710938 -20.746094 L 10.730469 -21.042969 L 9.777344 -20.714844 L 9.242188 -20.210938 L 8.976562 -19.707031 L 8.769531 -19.113281 L 8.5 -18.695312 L 7.3125 -15.960938 L 6.984375 -15.515625 L 6.835938 -14.921875 L 6.507812 -14.355469 L 6.332031 -13.820312 L 3.300781 -7.460938 L 3.121094 -6.804688 L 2.824219 -6.359375 L 2.617188 -5.765625 L 2.082031 -4.816406 L 1.632812 -3.625 L 1.308594 -3.210938 L 1.160156 -2.675781 L 0.566406 -1.484375 L 0.386719 -0.890625 L 0.535156 -0.148438 L 1.128906 0.03125 L 2.289062 -0.03125 L 2.882812 0.03125 L 4.546875 -0.03125 L 5.230469 -0.238281 L 5.796875 -0.773438 L 6.332031 -1.753906 L 6.894531 -2.316406 L 7.519531 -2.644531 L 8.085938 -2.554688 L 9.332031 -2.675781 L 9.867188 -2.585938 L 12.78125 -2.617188 L 13.316406 -2.554688 L 13.96875 -2.644531 L 14.625 -2.316406 L 15.1875 -1.84375 L 15.457031 -1.277344 L 15.632812 -0.742188 L 16.226562 -0.296875 L 16.910156 0 Z M 10.789062 -7.339844 L 10.195312 -7.460938 L 9.511719 -7.402344 L 9.035156 -7.609375 L 9.007812 -8.171875 L 10.402344 -11.382812 L 10.730469 -11.652344 L 11.144531 -11.414062 L 12.542969 -8.144531 L 12.425781 -7.609375 L 11.976562 -7.371094 Z M 10.789062 -7.339844 "/></g></g></g><g fill="rgb(0%, 0%, 0%)" fill-opacity="1"><g transform="translate(204.303075, 241.179711)"><g><path d="M 2.257812 -1.070312 L 2.46875 -0.296875 L 3.03125 0 L 3.625 0.0585938 L 4.875 -0.03125 L 6.035156 0.03125 L 7.164062 -0.03125 L 7.726562 0.0585938 L 8.382812 0 L 14.265625 0.03125 L 14.832031 -0.265625 L 15.160156 -1.1875 L 15.128906 -3.597656 L 14.859375 -4.488281 L 14.328125 -4.84375 L 13.703125 -4.785156 L 13.136719 -4.667969 L 12.511719 -4.753906 L 11.292969 -4.726562 L 10.699219 -4.84375 L 10.164062 -4.753906 L 9.007812 -4.816406 L 8.382812 -4.753906 L 7.789062 -4.992188 L 7.550781 -5.585938 L 7.578125 -15.664062 L 7.519531 -16.378906 L 7.578125 -17.566406 L 7.488281 -19.261719 L 7.519531 -19.824219 L 7.222656 -20.480469 L 6.628906 -20.835938 L 5.46875 -20.835938 L 4.875 -20.714844 L 3.6875 -20.835938 L 3.121094 -20.746094 L 2.496094 -20.507812 L 2.230469 -19.855469 L 2.230469 -15.695312 L 2.167969 -15.128906 L 2.230469 -14.535156 L 2.140625 -13.433594 L 2.167969 -12.78125 L 2.230469 -12.214844 Z M 2.257812 -1.070312 "/></g></g></g><g fill="rgb(0%, 0%, 0%)" fill-opacity="1"><g transform="translate(222.31318, 241.179711)"><g><path d="M 10.3125 0.296875 L 13.285156 0.296875 L 15.515625 -0.238281 L 17.625 -1.308594 L 18.546875 -2.019531 L 18.992188 -2.496094 L 19.4375 -2.851562 L 19.796875 -3.269531 L 20.09375 -3.773438 L 20.359375 -4.308594 L 20.714844 -4.726562 L 21.3125 -6.480469 L 21.546875 -7.609375 L 21.578125 -8.113281 L 21.699219 -8.648438 L 21.699219 -9.242188 L 21.757812 -9.808594 L 21.699219 -10.9375 L 21.398438 -11.441406 L 20.835938 -11.742188 L 20.210938 -11.769531 L 19.585938 -11.859375 L 15.574219 -11.769531 L 13.792969 -11.890625 L 12.660156 -11.800781 L 12.066406 -11.503906 L 11.800781 -10.9375 L 11.800781 -8.113281 L 12.066406 -7.640625 L 12.601562 -7.3125 L 13.464844 -7.253906 L 14.949219 -7.371094 L 15.484375 -7.28125 L 15.929688 -7.074219 L 16.019531 -6.570312 L 15.722656 -6.0625 L 15.277344 -5.558594 L 14.859375 -5.230469 L 13.878906 -4.84375 L 12.722656 -4.578125 L 11.949219 -4.546875 L 10.433594 -4.726562 L 8.828125 -5.378906 L 7.9375 -6.210938 L 7.609375 -6.628906 L 7.042969 -7.699219 L 6.804688 -8.558594 L 6.65625 -9.511719 L 6.628906 -11.234375 L 6.835938 -12.394531 L 7.3125 -13.464844 L 8.234375 -14.859375 L 9.273438 -15.605469 L 9.777344 -15.871094 L 10.34375 -15.929688 L 10.847656 -16.167969 L 12.660156 -16.226562 L 13.761719 -15.929688 L 14.328125 -15.695312 L 14.890625 -15.308594 L 15.246094 -14.921875 L 15.632812 -14.414062 L 16.257812 -13.910156 L 16.972656 -13.703125 L 17.894531 -13.671875 L 18.785156 -13.792969 L 20.210938 -13.703125 L 20.953125 -14.027344 L 21.132812 -14.535156 L 20.714844 -15.753906 L 20.449219 -16.289062 L 19.261719 -18.011719 L 18.605469 -18.546875 L 18.128906 -18.992188 L 17.683594 -19.347656 L 15.605469 -20.449219 L 14.980469 -20.566406 L 13.582031 -20.953125 L 10.820312 -21.074219 L 10.222656 -21.042969 L 9.71875 -20.863281 L 9.15625 -20.835938 L 6.867188 -20.003906 L 5.230469 -18.992188 L 3.921875 -17.832031 L 3.535156 -17.359375 L 3.089844 -16.910156 L 2.765625 -16.464844 L 1.664062 -14.238281 L 1.128906 -11.292969 L 1.101562 -10.34375 L 1.25 -8.261719 L 2.082031 -5.46875 L 2.617188 -4.457031 L 3.300781 -3.449219 L 4.488281 -2.199219 L 5.46875 -1.515625 L 7.519531 -0.328125 L 8.023438 -0.179688 L 9.71875 0.117188 Z M 10.3125 0.296875 "/></g></g></g><g fill="rgb(0%, 0%, 0%)" fill-opacity="1"><g transform="translate(247.099147, 241.179711)"><g><path d="M 9.957031 0.117188 L 11.144531 0.0585938 L 11.679688 -0.238281 L 11.976562 -0.800781 L 11.976562 -3.746094 L 11.621094 -4.308594 L 10.96875 -4.636719 L 10.34375 -4.636719 L 9.628906 -4.875 L 9.273438 -5.558594 L 9.363281 -6.121094 L 9.332031 -9.390625 L 9.390625 -10.046875 L 9.273438 -12.1875 L 9.390625 -15.1875 L 9.601562 -15.871094 L 10.253906 -16.140625 L 10.847656 -16.226562 L 11.472656 -16.464844 L 11.769531 -16.941406 L 11.800781 -19.882812 L 11.441406 -20.449219 L 10.90625 -20.777344 L 7.3125 -20.777344 L 6.777344 -20.835938 L 6.183594 -20.714844 L 3.746094 -20.714844 L 3.179688 -20.804688 L 2.496094 -20.804688 L 1.902344 -20.507812 L 1.605469 -19.796875 L 1.695312 -17.597656 L 1.632812 -17.03125 L 1.960938 -16.4375 L 2.617188 -16.109375 L 3.210938 -16.109375 L 3.773438 -15.753906 L 4.042969 -14.949219 L 4.132812 -5.824219 L 3.804688 -4.933594 L 1.84375 -4.339844 L 1.515625 -3.804688 L 1.425781 -1.070312 L 1.722656 -0.265625 L 2.316406 0 L 2.882812 0 L 3.449219 -0.0585938 L 4.308594 0.0585938 L 5.230469 0.03125 L 5.824219 -0.03125 L 7.015625 0.0898438 L 7.90625 -0.03125 L 9.363281 -0.03125 Z M 9.957031 0.117188 "/></g></g></g><g fill="rgb(0%, 0%, 0%)" fill-opacity="1"><g transform="translate(262.612882, 241.179711)"><g><path d="M 17.535156 0.0585938 L 18.664062 -0.03125 L 19.230469 0.03125 L 20.152344 0 L 20.984375 -0.148438 L 21.074219 -0.863281 L 20.863281 -1.546875 L 20.417969 -2.644531 L 19.617188 -4.191406 L 19.199219 -5.289062 L 18.605469 -6.359375 L 17.476562 -9.066406 L 17.179688 -9.511719 L 16.882812 -10.074219 L 16.703125 -10.730469 L 16.4375 -11.175781 L 16.257812 -11.652344 L 15.632812 -12.75 L 15.425781 -13.375 L 13.464844 -17.507812 L 13.285156 -18.101562 L 12.960938 -18.636719 L 12.78125 -19.171875 L 12.214844 -20.210938 L 11.710938 -20.746094 L 10.730469 -21.042969 L 9.777344 -20.714844 L 9.242188 -20.210938 L 8.976562 -19.707031 L 8.769531 -19.113281 L 8.5 -18.695312 L 7.3125 -15.960938 L 6.984375 -15.515625 L 6.835938 -14.921875 L 6.507812 -14.355469 L 6.332031 -13.820312 L 3.300781 -7.460938 L 3.121094 -6.804688 L 2.824219 -6.359375 L 2.617188 -5.765625 L 2.082031 -4.816406 L 1.632812 -3.625 L 1.308594 -3.210938 L 1.160156 -2.675781 L 0.566406 -1.484375 L 0.386719 -0.890625 L 0.535156 -0.148438 L 1.128906 0.03125 L 2.289062 -0.03125 L 2.882812 0.03125 L 4.546875 -0.03125 L 5.230469 -0.238281 L 5.796875 -0.773438 L 6.332031 -1.753906 L 6.894531 -2.316406 L 7.519531 -2.644531 L 8.085938 -2.554688 L 9.332031 -2.675781 L 9.867188 -2.585938 L 12.78125 -2.617188 L 13.316406 -2.554688 L 13.96875 -2.644531 L 14.625 -2.316406 L 15.1875 -1.84375 L 15.457031 -1.277344 L 15.632812 -0.742188 L 16.226562 -0.296875 L 16.910156 0 Z M 10.789062 -7.339844 L 10.195312 -7.460938 L 9.511719 -7.402344 L 9.035156 -7.609375 L 9.007812 -8.171875 L 10.402344 -11.382812 L 10.730469 -11.652344 L 11.144531 -11.414062 L 12.542969 -8.144531 L 12.425781 -7.609375 L 11.976562 -7.371094 Z M 10.789062 -7.339844 "/></g></g></g><g fill="rgb(0%, 0%, 0%)" fill-opacity="1"><g transform="translate(149.370699, 260.554042)"><g><path d="M 5.734375 0 L 6.65625 0 L 3.796875 -7.90625 L 2.859375 -7.90625 L 0 0 L 0.921875 0 L 1.566406 -1.84375 L 5.085938 -1.84375 Z M 1.84375 -2.648438 L 3.335938 -6.90625 L 4.808594 -2.648438 Z M 1.84375 -2.648438 "/></g></g></g><g fill="rgb(0%, 0%, 0%)" fill-opacity="1"><g transform="translate(161.507587, 260.554042)"><g><path d="M 3.796875 -7.90625 L 0.960938 -7.90625 L 0.960938 0 L 1.804688 0 L 1.804688 -3.519531 L 3.796875 -3.519531 C 5.019531 -3.519531 5.996094 -4.480469 5.996094 -5.707031 C 5.996094 -6.917969 5.019531 -7.90625 3.796875 -7.90625 Z M 3.714844 -4.324219 L 1.804688 -4.324219 L 1.804688 -7.089844 L 3.714844 -7.089844 C 4.507812 -7.089844 5.152344 -6.535156 5.152344 -5.691406 C 5.152344 -4.824219 4.507812 -4.324219 3.714844 -4.324219 Z M 3.714844 -4.324219 "/></g></g></g><g fill="rgb(0%, 0%, 0%)" fill-opacity="1"><g transform="translate(173.209754, 260.554042)"><g><path d="M 3.796875 -7.90625 L 0.960938 -7.90625 L 0.960938 0 L 1.804688 0 L 1.804688 -3.519531 L 3.796875 -3.519531 C 5.019531 -3.519531 5.996094 -4.480469 5.996094 -5.707031 C 5.996094 -6.917969 5.019531 -7.90625 3.796875 -7.90625 Z M 3.714844 -4.324219 L 1.804688 -4.324219 L 1.804688 -7.089844 L 3.714844 -7.089844 C 4.507812 -7.089844 5.152344 -6.535156 5.152344 -5.691406 C 5.152344 -4.824219 4.507812 -4.324219 3.714844 -4.324219 Z M 3.714844 -4.324219 "/></g></g></g><g fill="rgb(0%, 0%, 0%)" fill-opacity="1"><g transform="translate(184.911921, 260.554042)"><g><path d="M 5.734375 0 L 6.65625 0 L 3.796875 -7.90625 L 2.859375 -7.90625 L 0 0 L 0.921875 0 L 1.566406 -1.84375 L 5.085938 -1.84375 Z M 1.84375 -2.648438 L 3.335938 -6.90625 L 4.808594 -2.648438 Z M 1.84375 -2.648438 "/></g></g></g><g fill="rgb(0%, 0%, 0%)" fill-opacity="1"><g transform="translate(197.048809, 260.554042)"><g><path d="M 4.164062 -3.609375 C 5.207031 -3.757812 5.996094 -4.625 5.996094 -5.691406 C 5.996094 -6.933594 5.007812 -7.90625 3.796875 -7.90625 L 0.960938 -7.90625 L 0.960938 0 L 1.804688 0 L 1.804688 -3.570312 L 3.292969 -3.570312 L 5.535156 0 L 6.496094 0 Z M 1.804688 -4.375 L 1.804688 -7.0625 L 3.742188 -7.0625 C 4.535156 -7.0625 5.152344 -6.511719 5.152344 -5.71875 C 5.152344 -4.914062 4.546875 -4.375 3.742188 -4.375 Z M 1.804688 -4.375 "/></g></g></g><g fill="rgb(0%, 0%, 0%)" fill-opacity="1"><g transform="translate(209.146178, 260.554042)"><g><path d="M 5.351562 -7.089844 L 5.351562 -7.90625 L 1.027344 -7.90625 L 1.027344 0 L 5.351562 0 L 5.351562 -0.816406 L 1.871094 -0.816406 L 1.871094 -3.546875 L 4.902344 -3.546875 L 4.902344 -4.363281 L 1.871094 -4.363281 L 1.871094 -7.089844 Z M 5.351562 -7.089844 "/></g></g></g><g fill="rgb(0%, 0%, 0%)" fill-opacity="1"><g transform="translate(220.7693, 260.554042)"><g><path d="M 1.804688 -0.84375 L 1.804688 -7.90625 L 0.960938 -7.90625 L 0.960938 0 L 4.746094 0 L 4.746094 -0.84375 Z M 1.804688 -0.84375 "/></g></g></g></svg>