<svg xmlns="http://www.w3.org/2000/svg" xmlns:xlink="http://www.w3.org/1999/xlink" width="500" zoomAndPan="magnify" viewBox="0 0 375 374.999991" height="500" preserveAspectRatio="xMidYMid meet" version="1.0"><defs><g/><clipPath id="id1"><path d="M 139 112 L 236 112 L 236 211 L 139 211 Z M 139 112 " clip-rule="nonzero"/></clipPath><clipPath id="id2"><path d="M 136.789062 117.332031 L 232.640625 111.988281 L 237.980469 207.839844 L 142.128906 213.183594 Z M 136.789062 117.332031 " clip-rule="nonzero"/></clipPath><clipPath id="id3"><path d="M 232.851562 111.976562 L 137 117.320312 L 142.339844 213.171875 L 238.191406 207.828125 Z M 232.851562 111.976562 " clip-rule="nonzero"/></clipPath><clipPath id="id4"><path d="M 148.433594 146 L 214.433594 146 L 214.433594 212 L 148.433594 212 Z M 148.433594 146 " clip-rule="nonzero"/></clipPath></defs><g clip-path="url(#id1)"><g clip-path="url(#id2)"><g clip-path="url(#id3)"><path fill="rgb(100%, 100%, 100%)" d="M 142.386719 163.074219 L 183.089844 117.5625 C 184.746094 115.742188 187.082031 114.527344 189.714844 114.382812 L 223.265625 112.511719 C 228.558594 112.21875 233.089844 116.265625 233.382812 121.5625 L 235.253906 155.109375 C 235.402344 157.769531 234.457031 160.226562 232.804688 162.050781 L 192.074219 207.585938 C 190.445312 209.410156 188.109375 210.621094 185.472656 210.765625 C 182.835938 210.914062 180.355469 209.972656 178.535156 208.339844 L 143.117188 176.664062 C 141.296875 175.011719 140.082031 172.675781 139.9375 170.039062 C 139.789062 167.378906 140.734375 164.921875 142.386719 163.074219 Z M 217.410156 136.875 C 221.390625 136.652344 224.421875 133.265625 224.199219 129.285156 C 223.976562 125.308594 220.585938 122.277344 216.609375 122.5 C 212.632812 122.71875 209.601562 126.109375 209.820312 130.085938 C 210.042969 134.066406 213.433594 137.097656 217.410156 136.875 Z M 217.410156 136.875 " fill-opacity="1" fill-rule="nonzero"/></g></g></g><path fill="rgb(0%, 0%, 0%)" d="M 149.210938 178.214844 C 150.066406 179.542969 159.113281 183.433594 161.761719 182.625 C 162.761719 181.621094 162.667969 177.011719 163.261719 175.832031 C 164.710938 180.417969 161.601562 205.386719 161.511719 209.292969 C 165.371094 212.007812 194.164062 211.714844 200.933594 210.097656 C 201.976562 208.617188 198.433594 186.640625 198.789062 176.589844 C 199.472656 177.59375 199.863281 180.238281 200.039062 181.367188 C 202.832031 182.175781 212.984375 179.859375 213.734375 178.601562 C 213.761719 176.085938 206.792969 156.714844 205.042969 155.707031 C 203.074219 154.003906 191.160156 149.878906 189.464844 147.996094 C 189.074219 147.777344 188.765625 147.222656 188.546875 146.902344 C 186.59375 147.808594 176.953125 148.164062 175.160156 146.753906 C 174.726562 147.273438 174.773438 147.609375 174.121094 147.910156 C 172.871094 147.910156 161.828125 153.179688 158.152344 156.160156 C 155.5 159.324219 148.75 176.613281 149.210938 178.21875 Z M 149.210938 178.214844 " fill-opacity="1" fill-rule="evenodd"/><g clip-path="url(#id4)"><path fill="rgb(0%, 0%, 0%)" d="M 175.027344 146 C 173.113281 148.714844 167.960938 149.644531 164.78125 151.828125 C 161.636719 153.761719 157.519531 154.917969 156.03125 158.648438 C 152.984375 164.867188 150.160156 170.804688 148.519531 177.558594 C 149.585938 180.777344 154.265625 181.304688 157.121094 182.605469 C 158.082031 182.855469 160.066406 183.421875 161.332031 183.125 C 162.347656 182.214844 162.640625 180.441406 163.15625 177.375 C 164.554688 183.34375 161.304688 200.101562 160.882812 209.476562 C 163.5 211.660156 168.652344 210.945312 172.464844 211.382812 C 182.015625 211.695312 193.039062 211.210938 201.886719 210.871094 C 201.488281 207.65625 201.019531 203.53125 201.089844 200.144531 C 200.472656 193.988281 199.417969 188.082031 199.105469 181.898438 C 198.90625 181.484375 198.964844 179.125 198.832031 177.949219 C 199.679688 179.734375 200.210938 181.84375 200.222656 182.234375 C 202.082031 181.902344 208.234375 181.109375 209.921875 180.757812 C 211.71875 180.65625 213.382812 180.429688 214.332031 179.699219 C 214.296875 178.84375 213.789062 177.234375 213.441406 174.605469 C 211.320312 168.136719 209.238281 161.554688 205.898438 155.605469 C 202.773438 152.921875 198.21875 152.355469 194.582031 150.480469 C 191.378906 149.570312 190.285156 147.890625 188.089844 146.585938 C 184.042969 147.714844 179.765625 148.171875 175.027344 146 Z M 175.347656 147.332031 C 179.488281 148.550781 184.023438 148.394531 188.214844 147.542969 C 191.132812 150.660156 195.789062 151.234375 199.511719 153.128906 C 203.316406 154.242188 206.675781 157.027344 207.566406 161.09375 C 209.804688 166.695312 212.070312 172.960938 213.363281 178.863281 C 209.496094 180.578125 204.765625 180.863281 200.535156 180.683594 C 200.9375 178.535156 198.035156 173.277344 198.066406 177.96875 C 198.085938 188.5 200.691406 199.523438 200.875 210.03125 C 190.5 210.796875 179.1875 211.140625 168.742188 210.46875 C 165.140625 210.277344 160.179688 209.761719 162.347656 204.78125 C 163.066406 195.5 164.621094 186.070312 164.078125 176.742188 C 162.308594 172.21875 162.074219 180.324219 161.324219 181.914062 C 157.214844 181.824219 152.699219 180.410156 149.296875 178.195312 C 150.976562 171.367188 154.070312 164.339844 157.238281 158.078125 C 159.292969 154.503906 163.699219 153.449219 167.039062 151.390625 C 169.527344 149.738281 173.15625 149.203125 175.347656 147.332031 Z M 175.347656 147.332031 " fill-opacity="1" fill-rule="evenodd"/></g><g fill="rgb(100%, 100%, 100%)" fill-opacity="1"><g transform="translate(94.469716, 239.79117)"><g><path d="M 16.875 -0.484375 L 17.648438 -0.0273438 L 18.449219 0.0585938 L 19.078125 -0.144531 L 19.367188 -0.714844 L 19.421875 -11.15625 L 19.335938 -11.640625 L 19.335938 -14.472656 L 19.421875 -15.160156 L 19.335938 -19.136719 L 19.050781 -19.707031 L 18.480469 -20.023438 L 14.933594 -19.996094 L 14.386719 -19.679688 L 14.074219 -19.078125 L 14.046875 -18.480469 L 14.132812 -18.019531 L 14.046875 -16.820312 L 14.101562 -16.191406 L 14.046875 -11.070312 L 13.875 -10.582031 L 13.445312 -10.785156 L 11.414062 -12.816406 L 10.613281 -13.445312 L 4.976562 -19.136719 L 4.546875 -19.480469 L 3.890625 -19.824219 L 3.03125 -20.023438 L 2.375 -19.738281 L 2.117188 -19.195312 L 2.117188 -10.527344 L 2.089844 -10.039062 L 2.144531 -8.867188 L 2.058594 -8.382812 L 2.117188 -3.691406 L 2.058594 -3.148438 L 2.117188 -0.742188 L 2.375 -0.199219 L 2.976562 0 L 4.148438 0.0585938 L 4.777344 0 L 5.894531 0.0859375 L 6.492188 0.0585938 L 7.066406 -0.230469 L 7.351562 -1.117188 L 7.378906 -8.351562 L 7.4375 -8.925781 L 7.636719 -9.410156 L 8.007812 -9.269531 L 8.382812 -8.78125 L 10.414062 -6.835938 L 10.785156 -6.40625 L 11.269531 -6.09375 L 15.703125 -1.6875 L 16.449219 -0.859375 Z M 16.875 -0.484375 "/></g></g></g><g fill="rgb(100%, 100%, 100%)" fill-opacity="1"><g transform="translate(117.975066, 239.79117)"><g><path d="M 11.46875 0.371094 L 14.015625 0.113281 L 15.101562 -0.230469 L 17.648438 -1.371094 L 19.652344 -3.289062 L 20.023438 -3.804688 L 21.140625 -5.777344 L 21.339844 -6.320312 L 21.425781 -6.894531 L 21.597656 -7.351562 L 21.710938 -7.980469 L 21.855469 -9.984375 L 21.710938 -11.957031 L 21.480469 -13.015625 L 21.253906 -13.617188 L 21.109375 -14.273438 L 20.59375 -15.21875 L 20.394531 -15.734375 L 20.023438 -16.21875 L 19.679688 -16.5625 L 19.308594 -17.078125 L 18.078125 -18.191406 L 16.621094 -19.109375 L 12.871094 -20.28125 L 11.527344 -20.308594 L 9.527344 -20.195312 L 8.953125 -20.082031 L 8.382812 -19.910156 L 7.867188 -19.679688 L 6.78125 -19.394531 L 5.320312 -18.480469 L 4.921875 -18.136719 L 4.003906 -17.507812 L 3.230469 -16.648438 L 2.261719 -15.21875 L 2.003906 -14.730469 L 1.457031 -13.160156 L 1.230469 -11.929688 L 1.117188 -8.609375 L 1.429688 -6.808594 L 1.859375 -5.835938 L 2.03125 -5.234375 L 2.316406 -4.71875 L 3.660156 -2.890625 L 4.460938 -2.117188 L 4.835938 -1.6875 L 6.78125 -0.65625 L 7.324219 -0.429688 L 9.753906 0.285156 Z M 10.667969 -4.664062 L 10.097656 -4.863281 L 9.582031 -4.921875 L 8.609375 -5.433594 L 7.722656 -6.207031 L 7.4375 -6.609375 L 7.066406 -7.007812 L 6.523438 -8.609375 L 6.378906 -10.039062 L 6.40625 -10.898438 L 6.609375 -11.957031 L 6.78125 -12.472656 L 7.121094 -12.871094 L 7.378906 -13.359375 L 7.753906 -13.816406 L 8.179688 -14.1875 L 9.011719 -14.761719 L 9.527344 -15.019531 L 10.125 -15.160156 L 11.441406 -15.273438 L 12.816406 -15.1875 L 14.332031 -14.53125 L 15.21875 -13.875 L 15.875 -12.902344 L 16.105469 -12.386719 L 16.277344 -11.8125 L 16.476562 -11.300781 L 16.589844 -10.070312 L 16.417969 -8.640625 L 16.160156 -7.464844 L 15.847656 -7.035156 L 15.589844 -6.609375 L 15.246094 -6.09375 L 14.359375 -5.40625 L 13.84375 -5.175781 L 13.386719 -4.921875 L 12.871094 -4.863281 L 12.328125 -4.71875 Z M 10.667969 -4.664062 "/></g></g></g><g fill="rgb(100%, 100%, 100%)" fill-opacity="1"><g transform="translate(142.852918, 239.79117)"><g><path d="M 7.695312 0.257812 L 9.953125 0.316406 L 10.527344 0.257812 L 11.097656 0.113281 L 11.671875 0.0273438 L 12.242188 -0.199219 L 12.757812 -0.257812 L 13.300781 -0.515625 L 15.246094 -1.6875 L 16.074219 -2.546875 L 16.363281 -2.945312 L 16.675781 -3.574219 L 16.847656 -4.089844 L 17.019531 -4.578125 L 17.191406 -6.007812 L 17.132812 -6.921875 L 16.707031 -8.582031 L 16.390625 -9.039062 L 15.648438 -9.898438 L 15.132812 -10.355469 L 14.675781 -10.582031 L 14.160156 -10.898438 L 11.929688 -11.585938 L 11.355469 -11.671875 L 10.785156 -11.699219 L 10.183594 -11.8125 L 9.355469 -11.8125 L 7.835938 -12.128906 L 6.78125 -12.644531 L 6.351562 -13.042969 L 6.234375 -13.902344 L 6.378906 -14.675781 L 6.722656 -15.046875 L 7.152344 -15.359375 L 7.609375 -15.617188 L 8.125 -15.734375 L 9.039062 -15.761719 L 9.953125 -15.648438 L 10.46875 -15.503906 L 10.984375 -15.160156 L 11.46875 -14.761719 L 11.898438 -14.1875 L 12.527344 -13.816406 L 13.875 -13.929688 L 14.644531 -13.875 L 15.21875 -13.875 L 15.734375 -13.816406 L 16.277344 -14.214844 L 16.503906 -14.703125 L 16.390625 -15.246094 L 16.332031 -15.789062 L 15.53125 -17.277344 L 14.902344 -18.136719 L 13.015625 -19.453125 L 11.414062 -19.996094 L 10.296875 -20.222656 L 8.09375 -20.28125 L 7.464844 -20.109375 L 6.894531 -20.082031 L 6.378906 -19.996094 L 5.292969 -19.652344 L 4.320312 -19.078125 L 2.945312 -18.136719 L 1.945312 -16.792969 L 1.429688 -15.21875 L 1.34375 -13.816406 L 1.371094 -12.929688 L 1.574219 -11.785156 L 2.03125 -10.785156 L 3.089844 -9.46875 L 5.035156 -8.410156 L 6.0625 -8.066406 L 10.554688 -7.550781 L 11.585938 -7.066406 L 11.957031 -6.722656 L 12.128906 -6.007812 L 11.898438 -5.292969 L 11.527344 -4.863281 L 10.554688 -4.433594 L 9.667969 -4.375 L 9.152344 -4.289062 L 7.695312 -4.433594 L 7.207031 -4.691406 L 6.722656 -5.007812 L 5.777344 -6.035156 L 5.207031 -6.265625 L 4.691406 -6.207031 L 4.148438 -6.292969 L 1.945312 -6.179688 L 1.429688 -5.949219 L 1.203125 -5.347656 L 1.289062 -4.777344 L 1.402344 -4.203125 L 1.574219 -3.691406 L 2.117188 -2.632812 L 2.515625 -2.261719 L 2.890625 -1.832031 L 3.890625 -1.203125 L 4.289062 -0.773438 L 4.835938 -0.515625 L 5.40625 -0.34375 L 6.523438 0.0585938 Z M 7.695312 0.257812 "/></g></g></g><g fill="rgb(100%, 100%, 100%)" fill-opacity="1"><g transform="translate(163.041393, 239.79117)"><g><path d="M 7.464844 0.0585938 L 9.382812 0 L 10.210938 -0.285156 L 10.496094 -1.085938 L 10.582031 -2.574219 L 10.496094 -3.660156 L 10.554688 -4.261719 L 10.527344 -5.40625 L 10.582031 -5.921875 L 10.496094 -6.550781 L 10.554688 -11.15625 L 10.46875 -11.757812 L 10.554688 -14.246094 L 10.785156 -15.101562 L 11.328125 -15.445312 L 12.441406 -15.503906 L 13.5 -15.359375 L 14.101562 -15.445312 L 14.617188 -15.417969 L 15.101562 -15.734375 L 15.445312 -16.363281 L 15.476562 -19.078125 L 15.160156 -19.652344 L 14.617188 -20.023438 L 12.84375 -20.023438 L 12.300781 -20.082031 L 11.699219 -19.996094 L 11.15625 -20.050781 L 8.839844 -19.9375 L 8.265625 -20.050781 L 7.722656 -20.082031 L 7.121094 -19.996094 L 6.492188 -20.050781 L 5.976562 -19.9375 L 4.289062 -20.023438 L 3.402344 -19.9375 L 1.402344 -20.050781 L 0.859375 -19.765625 L 0.515625 -19.109375 L 0.542969 -18.535156 L 0.484375 -17.105469 L 0.542969 -16.21875 L 0.800781 -15.703125 L 1.316406 -15.417969 L 1.886719 -15.476562 L 4.605469 -15.417969 L 5.148438 -15.132812 L 5.464844 -14.558594 L 5.40625 -13.644531 L 5.464844 -12.84375 L 5.433594 -12.214844 L 5.464844 -11.640625 L 5.40625 -10.839844 L 5.492188 -6.578125 L 5.433594 -6.007812 L 5.40625 -3.691406 L 5.464844 -3.089844 L 5.433594 -1.429688 L 5.378906 -0.886719 L 5.75 -0.257812 L 6.578125 0.0273438 Z M 7.464844 0.0585938 "/></g></g></g><g fill="rgb(100%, 100%, 100%)" fill-opacity="1"><g transform="translate(180.970954, 239.79117)"><g><path d="M 16.875 0.0585938 L 17.964844 -0.0273438 L 18.507812 0.0273438 L 19.394531 0 L 20.195312 -0.144531 L 20.28125 -0.828125 L 20.082031 -1.488281 L 19.652344 -2.546875 L 18.878906 -4.035156 L 18.480469 -5.089844 L 17.90625 -6.121094 L 16.820312 -8.722656 L 16.535156 -9.152344 L 16.246094 -9.695312 L 16.074219 -10.328125 L 15.820312 -10.753906 L 15.648438 -11.214844 L 15.046875 -12.273438 L 14.847656 -12.871094 L 12.957031 -16.847656 L 12.785156 -17.421875 L 12.472656 -17.933594 L 12.300781 -18.449219 L 11.757812 -19.453125 L 11.269531 -19.964844 L 10.328125 -20.253906 L 9.410156 -19.9375 L 8.894531 -19.453125 L 8.640625 -18.964844 L 8.4375 -18.394531 L 8.179688 -17.992188 L 7.035156 -15.359375 L 6.722656 -14.933594 L 6.578125 -14.359375 L 6.265625 -13.816406 L 6.09375 -13.300781 L 3.175781 -7.179688 L 3.003906 -6.550781 L 2.71875 -6.121094 L 2.515625 -5.550781 L 2.003906 -4.632812 L 1.574219 -3.488281 L 1.257812 -3.089844 L 1.117188 -2.574219 L 0.542969 -1.429688 L 0.371094 -0.859375 L 0.515625 -0.144531 L 1.085938 0.0273438 L 2.203125 -0.0273438 L 2.773438 0.0273438 L 4.375 -0.0273438 L 5.035156 -0.230469 L 5.578125 -0.742188 L 6.09375 -1.6875 L 6.636719 -2.230469 L 7.238281 -2.546875 L 7.78125 -2.460938 L 8.980469 -2.574219 L 9.496094 -2.488281 L 12.300781 -2.515625 L 12.816406 -2.460938 L 13.445312 -2.546875 L 14.074219 -2.230469 L 14.617188 -1.773438 L 14.875 -1.230469 L 15.046875 -0.714844 L 15.617188 -0.285156 L 16.277344 0 Z M 10.382812 -7.066406 L 9.8125 -7.179688 L 9.152344 -7.121094 L 8.695312 -7.324219 L 8.667969 -7.867188 L 10.011719 -10.957031 L 10.328125 -11.214844 L 10.726562 -10.984375 L 12.070312 -7.835938 L 11.957031 -7.324219 L 11.527344 -7.09375 Z M 10.382812 -7.066406 "/></g></g></g><g fill="rgb(100%, 100%, 100%)" fill-opacity="1"><g transform="translate(203.675675, 239.79117)"><g><path d="M 2.175781 -1.03125 L 2.375 -0.285156 L 2.917969 0 L 3.488281 0.0585938 L 4.691406 -0.0273438 L 5.808594 0.0273438 L 6.894531 -0.0273438 L 7.4375 0.0585938 L 8.066406 0 L 13.730469 0.0273438 L 14.273438 -0.257812 L 14.589844 -1.144531 L 14.558594 -3.460938 L 14.300781 -4.320312 L 13.789062 -4.664062 L 13.1875 -4.605469 L 12.644531 -4.492188 L 12.042969 -4.578125 L 10.871094 -4.546875 L 10.296875 -4.664062 L 9.78125 -4.578125 L 8.667969 -4.632812 L 8.066406 -4.578125 L 7.496094 -4.804688 L 7.265625 -5.378906 L 7.292969 -15.074219 L 7.238281 -15.761719 L 7.292969 -16.90625 L 7.207031 -18.535156 L 7.238281 -19.078125 L 6.949219 -19.707031 L 6.378906 -20.050781 L 5.261719 -20.050781 L 4.691406 -19.9375 L 3.546875 -20.050781 L 3.003906 -19.964844 L 2.402344 -19.738281 L 2.144531 -19.109375 L 2.144531 -15.101562 L 2.089844 -14.558594 L 2.144531 -13.988281 L 2.058594 -12.929688 L 2.089844 -12.300781 L 2.144531 -11.757812 Z M 2.175781 -1.03125 "/></g></g></g><g fill="rgb(100%, 100%, 100%)" fill-opacity="1"><g transform="translate(221.004776, 239.79117)"><g><path d="M 9.925781 0.285156 L 12.785156 0.285156 L 14.933594 -0.230469 L 16.960938 -1.257812 L 17.847656 -1.945312 L 18.277344 -2.402344 L 18.707031 -2.746094 L 19.050781 -3.148438 L 19.335938 -3.632812 L 19.59375 -4.148438 L 19.9375 -4.546875 L 20.511719 -6.234375 L 20.738281 -7.324219 L 20.765625 -7.808594 L 20.882812 -8.324219 L 20.882812 -8.894531 L 20.9375 -9.441406 L 20.882812 -10.527344 L 20.59375 -11.011719 L 20.050781 -11.300781 L 19.453125 -11.328125 L 18.851562 -11.414062 L 14.988281 -11.328125 L 13.273438 -11.441406 L 12.1875 -11.355469 L 11.613281 -11.070312 L 11.355469 -10.527344 L 11.355469 -7.808594 L 11.613281 -7.351562 L 12.128906 -7.035156 L 12.957031 -6.980469 L 14.386719 -7.09375 L 14.902344 -7.007812 L 15.332031 -6.808594 L 15.417969 -6.320312 L 15.132812 -5.835938 L 14.703125 -5.347656 L 14.300781 -5.035156 L 13.359375 -4.664062 L 12.242188 -4.40625 L 11.5 -4.375 L 10.039062 -4.546875 L 8.496094 -5.175781 L 7.636719 -5.976562 L 7.324219 -6.378906 L 6.78125 -7.410156 L 6.550781 -8.238281 L 6.40625 -9.152344 L 6.378906 -10.8125 L 6.578125 -11.929688 L 7.035156 -12.957031 L 7.921875 -14.300781 L 8.925781 -15.019531 L 9.410156 -15.273438 L 9.953125 -15.332031 L 10.441406 -15.5625 L 12.1875 -15.617188 L 13.242188 -15.332031 L 13.789062 -15.101562 L 14.332031 -14.730469 L 14.675781 -14.359375 L 15.046875 -13.875 L 15.648438 -13.386719 L 16.332031 -13.1875 L 17.21875 -13.160156 L 18.078125 -13.273438 L 19.453125 -13.1875 L 20.167969 -13.5 L 20.339844 -13.988281 L 19.9375 -15.160156 L 19.679688 -15.675781 L 18.535156 -17.335938 L 17.90625 -17.847656 L 17.449219 -18.277344 L 17.019531 -18.621094 L 15.019531 -19.679688 L 14.417969 -19.792969 L 13.074219 -20.167969 L 10.414062 -20.28125 L 9.839844 -20.253906 L 9.355469 -20.082031 L 8.808594 -20.050781 L 6.609375 -19.25 L 5.035156 -18.277344 L 3.777344 -17.164062 L 3.402344 -16.707031 L 2.976562 -16.277344 L 2.660156 -15.847656 L 1.601562 -13.703125 L 1.085938 -10.871094 L 1.058594 -9.953125 L 1.203125 -7.953125 L 2.003906 -5.261719 L 2.515625 -4.289062 L 3.175781 -3.316406 L 4.320312 -2.117188 L 5.261719 -1.457031 L 7.238281 -0.316406 L 7.722656 -0.171875 L 9.355469 0.113281 Z M 9.925781 0.285156 "/></g></g></g><g fill="rgb(100%, 100%, 100%)" fill-opacity="1"><g transform="translate(244.853255, 239.79117)"><g><path d="M 9.582031 0.113281 L 10.726562 0.0585938 L 11.242188 -0.230469 L 11.527344 -0.773438 L 11.527344 -3.605469 L 11.183594 -4.148438 L 10.554688 -4.460938 L 9.953125 -4.460938 L 9.269531 -4.691406 L 8.925781 -5.347656 L 9.011719 -5.894531 L 8.980469 -9.039062 L 9.039062 -9.667969 L 8.925781 -11.726562 L 9.039062 -14.617188 L 9.238281 -15.273438 L 9.867188 -15.53125 L 10.441406 -15.617188 L 11.042969 -15.847656 L 11.328125 -16.304688 L 11.355469 -19.136719 L 11.011719 -19.679688 L 10.496094 -19.996094 L 7.035156 -19.996094 L 6.523438 -20.050781 L 5.949219 -19.9375 L 3.605469 -19.9375 L 3.0625 -20.023438 L 2.402344 -20.023438 L 1.832031 -19.738281 L 1.542969 -19.050781 L 1.628906 -16.933594 L 1.574219 -16.390625 L 1.886719 -15.820312 L 2.515625 -15.503906 L 3.089844 -15.503906 L 3.632812 -15.160156 L 3.890625 -14.386719 L 3.976562 -5.605469 L 3.660156 -4.75 L 1.773438 -4.175781 L 1.457031 -3.660156 L 1.371094 -1.03125 L 1.660156 -0.257812 L 2.230469 0 L 2.773438 0 L 3.316406 -0.0585938 L 4.148438 0.0585938 L 5.035156 0.0273438 L 5.605469 -0.0273438 L 6.75 0.0859375 L 7.609375 -0.0273438 L 9.011719 -0.0273438 Z M 9.582031 0.113281 "/></g></g></g><g fill="rgb(100%, 100%, 100%)" fill-opacity="1"><g transform="translate(259.780469, 239.79117)"><g><path d="M 16.875 0.0585938 L 17.964844 -0.0273438 L 18.507812 0.0273438 L 19.394531 0 L 20.195312 -0.144531 L 20.28125 -0.828125 L 20.082031 -1.488281 L 19.652344 -2.546875 L 18.878906 -4.035156 L 18.480469 -5.089844 L 17.90625 -6.121094 L 16.820312 -8.722656 L 16.535156 -9.152344 L 16.246094 -9.695312 L 16.074219 -10.328125 L 15.820312 -10.753906 L 15.648438 -11.214844 L 15.046875 -12.273438 L 14.847656 -12.871094 L 12.957031 -16.847656 L 12.785156 -17.421875 L 12.472656 -17.933594 L 12.300781 -18.449219 L 11.757812 -19.453125 L 11.269531 -19.964844 L 10.328125 -20.253906 L 9.410156 -19.9375 L 8.894531 -19.453125 L 8.640625 -18.964844 L 8.4375 -18.394531 L 8.179688 -17.992188 L 7.035156 -15.359375 L 6.722656 -14.933594 L 6.578125 -14.359375 L 6.265625 -13.816406 L 6.09375 -13.300781 L 3.175781 -7.179688 L 3.003906 -6.550781 L 2.71875 -6.121094 L 2.515625 -5.550781 L 2.003906 -4.632812 L 1.574219 -3.488281 L 1.257812 -3.089844 L 1.117188 -2.574219 L 0.542969 -1.429688 L 0.371094 -0.859375 L 0.515625 -0.144531 L 1.085938 0.0273438 L 2.203125 -0.0273438 L 2.773438 0.0273438 L 4.375 -0.0273438 L 5.035156 -0.230469 L 5.578125 -0.742188 L 6.09375 -1.6875 L 6.636719 -2.230469 L 7.238281 -2.546875 L 7.78125 -2.460938 L 8.980469 -2.574219 L 9.496094 -2.488281 L 12.300781 -2.515625 L 12.816406 -2.460938 L 13.445312 -2.546875 L 14.074219 -2.230469 L 14.617188 -1.773438 L 14.875 -1.230469 L 15.046875 -0.714844 L 15.617188 -0.285156 L 16.277344 0 Z M 10.382812 -7.066406 L 9.8125 -7.179688 L 9.152344 -7.121094 L 8.695312 -7.324219 L 8.667969 -7.867188 L 10.011719 -10.957031 L 10.328125 -11.214844 L 10.726562 -10.984375 L 12.070312 -7.835938 L 11.957031 -7.324219 L 11.527344 -7.09375 Z M 10.382812 -7.066406 "/></g></g></g><g fill="rgb(100%, 100%, 100%)" fill-opacity="1"><g transform="translate(150.81406, 259.775666)"><g><path d="M 5.519531 0 L 6.40625 0 L 3.652344 -7.609375 L 2.753906 -7.609375 L 0 0 L 0.886719 0 L 1.507812 -1.777344 L 4.894531 -1.777344 Z M 1.777344 -2.550781 L 3.210938 -6.648438 L 4.628906 -2.550781 Z M 1.777344 -2.550781 "/></g></g></g><g fill="rgb(100%, 100%, 100%)" fill-opacity="1"><g transform="translate(162.491536, 259.775666)"><g><path d="M 3.652344 -7.609375 L 0.925781 -7.609375 L 0.925781 0 L 1.738281 0 L 1.738281 -3.386719 L 3.652344 -3.386719 C 4.832031 -3.386719 5.769531 -4.3125 5.769531 -5.492188 C 5.769531 -6.660156 4.832031 -7.609375 3.652344 -7.609375 Z M 3.578125 -4.160156 L 1.738281 -4.160156 L 1.738281 -6.824219 L 3.578125 -6.824219 C 4.339844 -6.824219 4.960938 -6.292969 4.960938 -5.480469 C 4.960938 -4.640625 4.339844 -4.160156 3.578125 -4.160156 Z M 3.578125 -4.160156 "/></g></g></g><g fill="rgb(100%, 100%, 100%)" fill-opacity="1"><g transform="translate(173.750868, 259.775666)"><g><path d="M 3.652344 -7.609375 L 0.925781 -7.609375 L 0.925781 0 L 1.738281 0 L 1.738281 -3.386719 L 3.652344 -3.386719 C 4.832031 -3.386719 5.769531 -4.3125 5.769531 -5.492188 C 5.769531 -6.660156 4.832031 -7.609375 3.652344 -7.609375 Z M 3.578125 -4.160156 L 1.738281 -4.160156 L 1.738281 -6.824219 L 3.578125 -6.824219 C 4.339844 -6.824219 4.960938 -6.292969 4.960938 -5.480469 C 4.960938 -4.640625 4.339844 -4.160156 3.578125 -4.160156 Z M 3.578125 -4.160156 "/></g></g></g><g fill="rgb(100%, 100%, 100%)" fill-opacity="1"><g transform="translate(185.0102, 259.775666)"><g><path d="M 5.519531 0 L 6.40625 0 L 3.652344 -7.609375 L 2.753906 -7.609375 L 0 0 L 0.886719 0 L 1.507812 -1.777344 L 4.894531 -1.777344 Z M 1.777344 -2.550781 L 3.210938 -6.648438 L 4.628906 -2.550781 Z M 1.777344 -2.550781 "/></g></g></g><g fill="rgb(100%, 100%, 100%)" fill-opacity="1"><g transform="translate(196.687676, 259.775666)"><g><path d="M 4.007812 -3.476562 C 5.011719 -3.613281 5.769531 -4.453125 5.769531 -5.480469 C 5.769531 -6.671875 4.820312 -7.609375 3.652344 -7.609375 L 0.925781 -7.609375 L 0.925781 0 L 1.738281 0 L 1.738281 -3.4375 L 3.171875 -3.4375 L 5.328125 0 L 6.253906 0 Z M 1.738281 -4.210938 L 1.738281 -6.796875 L 3.601562 -6.796875 C 4.363281 -6.796875 4.960938 -6.265625 4.960938 -5.503906 C 4.960938 -4.730469 4.375 -4.210938 3.601562 -4.210938 Z M 1.738281 -4.210938 "/></g></g></g><g fill="rgb(100%, 100%, 100%)" fill-opacity="1"><g transform="translate(208.327135, 259.775666)"><g><path d="M 5.148438 -6.824219 L 5.148438 -7.609375 L 0.988281 -7.609375 L 0.988281 0 L 5.148438 0 L 5.148438 -0.785156 L 1.800781 -0.785156 L 1.800781 -3.410156 L 4.71875 -3.410156 L 4.71875 -4.199219 L 1.800781 -4.199219 L 1.800781 -6.824219 Z M 5.148438 -6.824219 "/></g></g></g><g fill="rgb(100%, 100%, 100%)" fill-opacity="1"><g transform="translate(219.510444, 259.775666)"><g><path d="M 1.738281 -0.8125 L 1.738281 -7.609375 L 0.925781 -7.609375 L 0.925781 0 L 4.566406 0 L 4.566406 -0.8125 Z M 1.738281 -0.8125 "/></g></g></g></svg>