<svg xmlns="http://www.w3.org/2000/svg" xmlns:xlink="http://www.w3.org/1999/xlink" width="500" zoomAndPan="magnify" viewBox="0 0 375 374.999991" height="500" preserveAspectRatio="xMidYMid meet" version="1.0"><defs><g/><clipPath id="id1"><path d="M 123.34375 91.636719 L 251.59375 91.636719 L 251.59375 220.636719 L 123.34375 220.636719 Z M 123.34375 91.636719 " clip-rule="nonzero"/></clipPath><clipPath id="id2"><path d="M 123.34375 91.636719 L 250 91.636719 L 250 219 L 123.34375 219 Z M 123.34375 91.636719 " clip-rule="nonzero"/></clipPath><clipPath id="id3"><path d="M 123.34375 91.636719 L 250 91.636719 L 250 131 L 123.34375 131 Z M 123.34375 91.636719 " clip-rule="nonzero"/></clipPath></defs><g fill="rgb(26.269531%, 26.269531%, 30.979919%)" fill-opacity="1"><g transform="translate(113.886468, 260.165066)"><g><path d="M 16.464844 -22.136719 C 16.464844 -21.644531 16.742188 -21.429688 17.238281 -21.214844 L 17.949219 -20.984375 C 19.003906 -20.539062 19.183594 -19.925781 18.820312 -18.839844 L 14.351562 -5.507812 L 9.683594 -19.316406 C 9.351562 -20.308594 9.5 -20.734375 10.078125 -20.964844 L 10.886719 -21.199219 C 11.414062 -21.414062 11.679688 -21.675781 11.679688 -22.136719 C 11.679688 -22.730469 11.300781 -23.09375 10.441406 -23.09375 L 1.765625 -23.09375 C 0.921875 -23.09375 0.527344 -22.730469 0.527344 -22.136719 C 0.527344 -21.710938 0.757812 -21.378906 1.203125 -21.164062 L 1.765625 -20.933594 C 2.292969 -20.6875 2.539062 -20.421875 2.789062 -19.664062 L 8.445312 -3.214844 C 8.644531 -2.640625 8.792969 -2.160156 8.792969 -1.796875 L 8.792969 -0.972656 C 8.792969 -0.328125 9.171875 0 9.75 0 L 14.796875 0 C 15.359375 0 15.769531 -0.347656 15.769531 -0.921875 L 15.769531 -1.765625 C 15.769531 -2.324219 15.886719 -2.769531 16.199219 -3.726562 L 21.164062 -18.640625 C 21.625 -20.09375 22.054688 -20.636719 22.8125 -20.984375 L 23.359375 -21.214844 C 23.917969 -21.460938 24.132812 -21.710938 24.132812 -22.15625 C 24.132812 -22.730469 23.753906 -23.09375 22.914062 -23.09375 L 17.683594 -23.09375 C 16.84375 -23.09375 16.464844 -22.730469 16.464844 -22.136719 Z M 16.464844 -22.136719 "/></g></g></g><g fill="rgb(26.269531%, 26.269531%, 30.979919%)" fill-opacity="1"><g transform="translate(137.126324, 260.165066)"><g><path d="M 5.359375 -18.164062 C 7.488281 -18.164062 8.84375 -19.269531 8.84375 -21 C 8.84375 -22.714844 7.488281 -23.804688 5.359375 -23.804688 C 3.234375 -23.804688 1.898438 -22.714844 1.898438 -21 C 1.898438 -19.269531 3.234375 -18.164062 5.359375 -18.164062 Z M 8.644531 -14.894531 C 8.644531 -15.65625 8.199219 -16.183594 7.292969 -16.183594 C 6.847656 -16.183594 6.316406 -16.035156 5.277344 -15.636719 L 1.929688 -14.367188 C 1.238281 -14.105469 1.039062 -13.890625 1.039062 -13.429688 C 1.039062 -13.046875 1.222656 -12.816406 1.648438 -12.6875 L 2.261719 -12.601562 C 2.65625 -12.503906 2.820312 -12.289062 2.820312 -11.644531 L 2.820312 -3.066406 C 2.820312 -2.277344 2.671875 -2.011719 2.308594 -1.863281 L 1.796875 -1.699219 C 1.335938 -1.5 1.136719 -1.238281 1.136719 -0.839844 C 1.136719 -0.3125 1.46875 0 2.226562 0 L 9.238281 0 C 9.980469 0 10.328125 -0.3125 10.328125 -0.839844 C 10.328125 -1.238281 10.128906 -1.5 9.648438 -1.699219 L 9.171875 -1.863281 C 8.792969 -1.996094 8.644531 -2.277344 8.644531 -3.085938 Z M 8.644531 -14.894531 "/></g></g></g><g fill="rgb(26.269531%, 26.269531%, 30.979919%)" fill-opacity="1"><g transform="translate(147.005914, 260.165066)"><g><path d="M 8.644531 -14.894531 C 8.644531 -15.65625 8.199219 -16.183594 7.355469 -16.183594 C 6.796875 -16.183594 6.269531 -16 5.277344 -15.636719 L 1.929688 -14.367188 C 1.238281 -14.105469 1.039062 -13.890625 1.039062 -13.429688 C 1.039062 -13.046875 1.222656 -12.816406 1.648438 -12.6875 L 2.261719 -12.601562 C 2.65625 -12.503906 2.820312 -12.289062 2.820312 -11.644531 L 2.820312 -3.066406 C 2.820312 -2.277344 2.671875 -2.011719 2.308594 -1.863281 L 1.796875 -1.699219 C 1.335938 -1.5 1.136719 -1.238281 1.136719 -0.839844 C 1.136719 -0.3125 1.46875 0 2.226562 0 L 9.054688 0 C 9.832031 0 10.160156 -0.3125 10.160156 -0.890625 C 10.160156 -1.269531 9.996094 -1.5 9.632812 -1.683594 L 9.171875 -1.863281 C 8.792969 -2.027344 8.644531 -2.277344 8.644531 -3.085938 L 8.644531 -11.53125 L 8.710938 -11.582031 C 9.601562 -12.355469 10.605469 -12.734375 11.464844 -12.734375 C 12.851562 -12.734375 13.691406 -11.894531 13.691406 -10.226562 L 13.691406 -3.101562 C 13.691406 -2.292969 13.542969 -2.027344 13.164062 -1.863281 L 12.6875 -1.683594 C 12.324219 -1.5 12.15625 -1.269531 12.15625 -0.890625 C 12.15625 -0.3125 12.488281 0 13.261719 0 L 20.109375 0 C 20.851562 0 21.179688 -0.3125 21.179688 -0.839844 C 21.179688 -1.238281 21 -1.5 20.519531 -1.699219 L 20.058594 -1.863281 C 19.679688 -1.996094 19.515625 -2.292969 19.515625 -3.101562 L 19.515625 -11.070312 C 19.515625 -14.152344 17.570312 -16.214844 14.683594 -16.214844 C 13 -16.214844 11.152344 -15.441406 8.644531 -13.261719 Z M 8.644531 -14.894531 "/></g></g></g><g fill="rgb(26.269531%, 26.269531%, 30.979919%)" fill-opacity="1"><g transform="translate(167.771635, 260.165066)"><g><path d="M 8.957031 2.011719 C 7.769531 4.765625 7.273438 5.148438 6.582031 5.148438 C 6.105469 5.148438 5.675781 4.734375 5.425781 3.976562 L 5.148438 3.265625 C 4.636719 1.964844 4.042969 1.105469 2.6875 1.105469 C 1.320312 1.105469 0.445312 2.113281 0.445312 3.746094 C 0.445312 6.039062 2.242188 7.769531 5.148438 7.769531 C 8.066406 7.769531 9.335938 6.515625 11.433594 1.417969 L 16.890625 -11.941406 C 17.4375 -13.261719 17.882812 -13.691406 18.773438 -14.070312 C 19.285156 -14.300781 19.480469 -14.582031 19.480469 -14.929688 C 19.480469 -15.457031 19.070312 -15.769531 18.425781 -15.769531 L 13.757812 -15.769531 C 13.132812 -15.769531 12.71875 -15.457031 12.71875 -14.929688 C 12.71875 -14.515625 12.949219 -14.21875 13.476562 -14.054688 L 14.085938 -13.890625 C 15.042969 -13.625 15.191406 -13.015625 14.648438 -11.664062 L 11.730469 -4.371094 L 8.496094 -11.925781 C 7.902344 -13.296875 8.066406 -13.742188 9.007812 -13.988281 L 9.535156 -14.105469 C 10.0625 -14.253906 10.277344 -14.515625 10.277344 -14.929688 C 10.277344 -15.457031 9.882812 -15.769531 9.238281 -15.769531 L 1.105469 -15.769531 C 0.460938 -15.769531 0.0507812 -15.457031 0.0507812 -14.929688 C 0.0507812 -14.515625 0.230469 -14.269531 0.660156 -14.085938 C 1.386719 -13.824219 1.683594 -13.625 2.0625 -12.800781 L 8.992188 1.964844 Z M 8.957031 2.011719 "/></g></g></g><g fill="rgb(26.269531%, 26.269531%, 30.979919%)" fill-opacity="1"><g transform="translate(186.046749, 260.165066)"><g><path d="M 8.644531 -23.441406 C 8.644531 -24.183594 8.199219 -24.710938 7.292969 -24.710938 C 6.847656 -24.710938 6.316406 -24.578125 5.277344 -24.183594 L 1.929688 -22.914062 C 1.238281 -22.648438 1.039062 -22.417969 1.039062 -21.972656 C 1.039062 -21.59375 1.222656 -21.347656 1.648438 -21.230469 L 2.261719 -21.148438 C 2.65625 -21.050781 2.820312 -20.835938 2.820312 -20.191406 L 2.820312 -3.066406 C 2.820312 -2.277344 2.671875 -2.011719 2.308594 -1.863281 L 1.796875 -1.699219 C 1.335938 -1.5 1.136719 -1.238281 1.136719 -0.839844 C 1.136719 -0.3125 1.46875 0 2.226562 0 L 9.238281 0 C 9.980469 0 10.328125 -0.3125 10.328125 -0.839844 C 10.328125 -1.238281 10.128906 -1.5 9.648438 -1.699219 L 9.171875 -1.863281 C 8.792969 -1.996094 8.644531 -2.277344 8.644531 -3.085938 Z M 8.644531 -23.441406 "/></g></g></g><g fill="rgb(26.269531%, 26.269531%, 30.979919%)" fill-opacity="1"><g transform="translate(195.959318, 260.165066)"><g/></g></g><g fill="rgb(26.269531%, 26.269531%, 30.979919%)" fill-opacity="1"><g transform="translate(201.764842, 260.165066)"><g><path d="M 8.164062 -0.988281 C 8.164062 -1.417969 7.933594 -1.699219 7.570312 -1.863281 L 6.945312 -2.144531 C 6.121094 -2.539062 5.558594 -2.96875 5.640625 -3.960938 L 6.648438 -16.167969 L 12.140625 -2.441406 C 12.769531 -0.875 13.296875 -0.726562 14.121094 -0.726562 C 14.878906 -0.726562 15.375 -0.972656 15.871094 -2.34375 L 21.164062 -16.265625 L 22.136719 -3.429688 C 22.1875 -2.738281 21.988281 -2.441406 21.261719 -2.210938 L 20.519531 -1.980469 C 19.925781 -1.78125 19.730469 -1.417969 19.730469 -0.957031 C 19.730469 -0.363281 20.125 0 20.984375 0 L 29.542969 0 C 30.371094 0 30.765625 -0.414062 30.765625 -1.007812 C 30.765625 -1.484375 30.519531 -1.832031 30.039062 -1.980469 L 29.332031 -2.210938 C 28.71875 -2.410156 28.503906 -2.640625 28.457031 -3.429688 L 27.316406 -19.5 C 27.25 -20.339844 27.449219 -20.636719 28.191406 -20.882812 L 28.917969 -21.113281 C 29.429688 -21.28125 29.691406 -21.625 29.691406 -22.136719 C 29.691406 -22.730469 29.3125 -23.09375 28.472656 -23.09375 L 22.898438 -23.09375 C 21.644531 -23.09375 21.015625 -22.632812 20.488281 -21.214844 L 16 -9.46875 L 11.300781 -21.28125 C 10.738281 -22.730469 10.113281 -23.09375 8.941406 -23.09375 L 3.429688 -23.09375 C 2.605469 -23.09375 2.195312 -22.730469 2.195312 -22.136719 C 2.195312 -21.59375 2.457031 -21.28125 3.003906 -21.097656 L 3.710938 -20.882812 C 4.4375 -20.636719 4.683594 -20.140625 4.601562 -19.003906 L 3.347656 -3.976562 C 3.265625 -2.984375 2.769531 -2.507812 2.046875 -2.210938 L 1.550781 -2.027344 C 1.023438 -1.796875 0.675781 -1.519531 0.675781 -0.957031 C 0.675781 -0.363281 1.054688 0 1.898438 0 L 6.945312 0 C 7.769531 0 8.164062 -0.394531 8.164062 -0.988281 Z M 8.164062 -0.988281 "/></g></g></g><g fill="rgb(26.269531%, 26.269531%, 30.979919%)" fill-opacity="1"><g transform="translate(232.179654, 260.165066)"><g><path d="M 5.359375 -18.164062 C 7.488281 -18.164062 8.84375 -19.269531 8.84375 -21 C 8.84375 -22.714844 7.488281 -23.804688 5.359375 -23.804688 C 3.234375 -23.804688 1.898438 -22.714844 1.898438 -21 C 1.898438 -19.269531 3.234375 -18.164062 5.359375 -18.164062 Z M 8.644531 -14.894531 C 8.644531 -15.65625 8.199219 -16.183594 7.292969 -16.183594 C 6.847656 -16.183594 6.316406 -16.035156 5.277344 -15.636719 L 1.929688 -14.367188 C 1.238281 -14.105469 1.039062 -13.890625 1.039062 -13.429688 C 1.039062 -13.046875 1.222656 -12.816406 1.648438 -12.6875 L 2.261719 -12.601562 C 2.65625 -12.503906 2.820312 -12.289062 2.820312 -11.644531 L 2.820312 -3.066406 C 2.820312 -2.277344 2.671875 -2.011719 2.308594 -1.863281 L 1.796875 -1.699219 C 1.335938 -1.5 1.136719 -1.238281 1.136719 -0.839844 C 1.136719 -0.3125 1.46875 0 2.226562 0 L 9.238281 0 C 9.980469 0 10.328125 -0.3125 10.328125 -0.839844 C 10.328125 -1.238281 10.128906 -1.5 9.648438 -1.699219 L 9.171875 -1.863281 C 8.792969 -1.996094 8.644531 -2.277344 8.644531 -3.085938 Z M 8.644531 -14.894531 "/></g></g></g><g fill="rgb(26.269531%, 26.269531%, 30.979919%)" fill-opacity="1"><g transform="translate(242.059246, 260.165066)"><g><path d="M 9.4375 -12.835938 C 9.023438 -13.429688 9.023438 -13.707031 9.535156 -13.9375 L 9.964844 -14.121094 C 10.292969 -14.300781 10.425781 -14.550781 10.425781 -14.914062 C 10.425781 -15.457031 10.011719 -15.769531 9.371094 -15.769531 L 1.632812 -15.769531 C 0.957031 -15.769531 0.5625 -15.457031 0.5625 -14.894531 C 0.5625 -14.449219 0.710938 -14.1875 1.253906 -13.972656 C 1.796875 -13.773438 2.242188 -13.492188 2.804688 -12.703125 L 6.433594 -7.570312 L 4.074219 -4.519531 C 2.789062 -2.886719 2.210938 -2.242188 1.171875 -1.796875 C 0.59375 -1.519531 0.394531 -1.269531 0.394531 -0.875 C 0.394531 -0.347656 0.792969 -0.015625 1.453125 -0.015625 L 6.019531 -0.015625 C 6.664062 -0.015625 7.078125 -0.347656 7.078125 -0.875 C 7.078125 -1.253906 6.894531 -1.5 6.449219 -1.683594 L 6.039062 -1.816406 C 5.230469 -2.113281 5.082031 -2.835938 5.789062 -3.777344 L 7.539062 -6.085938 L 9.816406 -2.902344 C 10.292969 -2.261719 10.261719 -1.929688 9.667969 -1.75 L 9.238281 -1.632812 C 8.859375 -1.5 8.695312 -1.253906 8.695312 -0.875 C 8.695312 -0.328125 9.089844 0 9.78125 0 L 17.683594 0 C 18.34375 0 18.757812 -0.328125 18.757812 -0.859375 C 18.757812 -1.253906 18.558594 -1.484375 18.113281 -1.730469 C 17.632812 -1.964844 17.320312 -2.277344 16.628906 -3.183594 L 12.652344 -8.445312 L 14.847656 -11.285156 C 16.132812 -12.898438 16.726562 -13.542969 17.765625 -13.988281 C 18.328125 -14.285156 18.523438 -14.515625 18.523438 -14.914062 C 18.523438 -15.457031 18.144531 -15.769531 17.484375 -15.769531 L 12.917969 -15.769531 C 12.257812 -15.769531 11.84375 -15.457031 11.84375 -14.914062 C 11.84375 -14.53125 12.042969 -14.285156 12.472656 -14.105469 L 12.898438 -13.972656 C 13.691406 -13.675781 13.855469 -12.964844 13.148438 -12.027344 L 11.546875 -9.914062 Z M 9.4375 -12.835938 "/></g></g></g><g clip-path="url(#id1)"><path fill="rgb(0%, 0%, 0%)" d="M 232.554688 220.636719 L 142.378906 220.636719 C 131.941406 220.636719 123.496094 212.171875 123.496094 201.753906 L 123.496094 110.570312 C 123.496094 100.101562 131.941406 91.636719 142.378906 91.636719 L 232.605469 91.636719 C 242.996094 91.636719 251.4375 100.101562 251.4375 110.570312 L 251.4375 201.753906 C 251.4375 212.171875 242.996094 220.636719 232.554688 220.636719 Z M 232.554688 220.636719 " fill-opacity="0.149" fill-rule="nonzero"/></g><g clip-path="url(#id2)"><path fill="rgb(26.269531%, 67.83905%, 64.709473%)" d="M 230.609375 218.585938 L 142.277344 218.585938 C 131.890625 218.585938 123.496094 210.167969 123.496094 199.753906 L 123.496094 110.46875 C 123.496094 100.050781 131.890625 91.636719 142.277344 91.636719 L 230.609375 91.636719 C 241 91.636719 249.390625 100.050781 249.390625 110.46875 L 249.390625 199.753906 C 249.441406 210.167969 241 218.585938 230.609375 218.585938 Z M 230.609375 218.585938 " fill-opacity="1" fill-rule="nonzero"/></g><g clip-path="url(#id3)"><path fill="rgb(94.119263%, 30.589294%, 24.308777%)" d="M 249.441406 108.621094 L 249.441406 130.121094 L 123.496094 130.121094 L 123.496094 108.621094 C 123.496094 99.230469 131.070312 91.636719 140.433594 91.636719 L 232.453125 91.636719 C 241.816406 91.636719 249.441406 99.230469 249.441406 108.621094 Z M 249.441406 108.621094 " fill-opacity="1" fill-rule="nonzero"/></g><path fill="rgb(0%, 0%, 0%)" d="M 237.261719 164.859375 C 237.261719 166.535156 237.179688 168.207031 237.015625 169.875 C 236.855469 171.542969 236.609375 173.195312 236.28125 174.839844 C 235.957031 176.484375 235.550781 178.105469 235.066406 179.710938 C 234.582031 181.3125 234.019531 182.890625 233.378906 184.4375 C 232.738281 185.984375 232.027344 187.5 231.238281 188.976562 C 230.449219 190.453125 229.59375 191.890625 228.664062 193.28125 C 227.734375 194.675781 226.742188 196.019531 225.679688 197.316406 C 224.621094 198.609375 223.5 199.851562 222.320312 201.035156 C 221.136719 202.21875 219.898438 203.34375 218.609375 204.40625 C 217.316406 205.46875 215.976562 206.464844 214.585938 207.398438 C 213.195312 208.328125 211.765625 209.1875 210.292969 209.976562 C 208.816406 210.769531 207.308594 211.484375 205.765625 212.125 C 204.222656 212.765625 202.648438 213.328125 201.050781 213.816406 C 199.453125 214.300781 197.832031 214.707031 196.195312 215.035156 C 194.554688 215.363281 192.902344 215.609375 191.242188 215.773438 C 189.578125 215.9375 187.910156 216.019531 186.238281 216.019531 C 184.566406 216.019531 182.902344 215.9375 181.238281 215.773438 C 179.574219 215.609375 177.925781 215.363281 176.285156 215.035156 C 174.644531 214.707031 173.027344 214.300781 171.425781 213.816406 C 169.828125 213.328125 168.257812 212.765625 166.714844 212.125 C 165.167969 211.484375 163.660156 210.769531 162.1875 209.976562 C 160.714844 209.1875 159.28125 208.328125 157.890625 207.398438 C 156.503906 206.464844 155.160156 205.46875 153.871094 204.40625 C 152.578125 203.34375 151.339844 202.21875 150.160156 201.035156 C 148.976562 199.851562 147.855469 198.609375 146.796875 197.316406 C 145.738281 196.019531 144.742188 194.675781 143.8125 193.28125 C 142.886719 191.890625 142.027344 190.453125 141.238281 188.976562 C 140.453125 187.5 139.738281 185.984375 139.097656 184.4375 C 138.460938 182.890625 137.898438 181.3125 137.414062 179.710938 C 136.925781 178.105469 136.523438 176.484375 136.195312 174.839844 C 135.871094 173.195312 135.625 171.542969 135.460938 169.875 C 135.296875 168.207031 135.214844 166.535156 135.214844 164.859375 C 135.214844 163.183594 135.296875 161.511719 135.460938 159.84375 C 135.625 158.179688 135.871094 156.523438 136.195312 154.878906 C 136.523438 153.234375 136.925781 151.613281 137.414062 150.007812 C 137.898438 148.40625 138.460938 146.832031 139.097656 145.28125 C 139.738281 143.734375 140.453125 142.222656 141.238281 140.742188 C 142.027344 139.265625 142.886719 137.832031 143.8125 136.4375 C 144.742188 135.042969 145.738281 133.699219 146.796875 132.40625 C 147.855469 131.109375 148.976562 129.871094 150.160156 128.683594 C 151.339844 127.5 152.578125 126.375 153.871094 125.3125 C 155.160156 124.25 156.503906 123.253906 157.890625 122.324219 C 159.28125 121.390625 160.714844 120.53125 162.1875 119.742188 C 163.660156 118.953125 165.167969 118.238281 166.714844 117.59375 C 168.257812 116.953125 169.828125 116.390625 171.425781 115.902344 C 173.027344 115.417969 174.644531 115.011719 176.285156 114.683594 C 177.925781 114.359375 179.574219 114.113281 181.238281 113.949219 C 182.902344 113.785156 184.566406 113.703125 186.238281 113.703125 C 187.910156 113.703125 189.578125 113.785156 191.242188 113.949219 C 192.902344 114.113281 194.554688 114.359375 196.195312 114.683594 C 197.832031 115.011719 199.453125 115.417969 201.050781 115.902344 C 202.648438 116.390625 204.222656 116.953125 205.765625 117.59375 C 207.308594 118.238281 208.816406 118.953125 210.292969 119.742188 C 211.765625 120.53125 213.195312 121.390625 214.585938 122.324219 C 215.976562 123.253906 217.316406 124.25 218.609375 125.3125 C 219.898438 126.375 221.136719 127.5 222.320312 128.683594 C 223.5 129.871094 224.621094 131.109375 225.679688 132.40625 C 226.742188 133.699219 227.734375 135.042969 228.664062 136.4375 C 229.59375 137.832031 230.449219 139.265625 231.238281 140.742188 C 232.027344 142.222656 232.738281 143.734375 233.378906 145.28125 C 234.019531 146.832031 234.582031 148.40625 235.066406 150.007812 C 235.550781 151.613281 235.957031 153.234375 236.28125 154.878906 C 236.609375 156.523438 236.855469 158.179688 237.015625 159.84375 C 237.179688 161.511719 237.261719 163.183594 237.261719 164.859375 Z M 237.261719 164.859375 " fill-opacity="0.149" fill-rule="nonzero"/><path fill="rgb(26.269531%, 26.269531%, 30.979919%)" d="M 236.289062 163.527344 C 236.289062 165.167969 236.210938 166.808594 236.050781 168.445312 C 235.890625 170.082031 235.648438 171.703125 235.328125 173.316406 C 235.007812 174.929688 234.609375 176.519531 234.136719 178.09375 C 233.660156 179.667969 233.109375 181.210938 232.480469 182.730469 C 231.851562 184.25 231.152344 185.734375 230.378906 187.183594 C 229.609375 188.632812 228.765625 190.039062 227.855469 191.40625 C 226.945312 192.773438 225.96875 194.089844 224.929688 195.363281 C 223.890625 196.632812 222.789062 197.847656 221.632812 199.011719 C 220.472656 200.171875 219.257812 201.277344 217.992188 202.320312 C 216.722656 203.359375 215.410156 204.339844 214.046875 205.253906 C 212.683594 206.164062 211.277344 207.007812 209.832031 207.785156 C 208.386719 208.558594 206.90625 209.261719 205.394531 209.890625 C 203.878906 210.519531 202.335938 211.070312 200.769531 211.546875 C 199.199219 212.027344 197.613281 212.425781 196.003906 212.746094 C 194.394531 213.066406 192.777344 213.308594 191.144531 213.46875 C 189.515625 213.628906 187.878906 213.710938 186.238281 213.710938 C 184.601562 213.710938 182.964844 213.628906 181.332031 213.46875 C 179.703125 213.308594 178.082031 213.066406 176.472656 212.746094 C 174.867188 212.425781 173.277344 212.027344 171.710938 211.546875 C 170.140625 211.070312 168.601562 210.519531 167.085938 209.890625 C 165.570312 209.261719 164.089844 208.558594 162.644531 207.785156 C 161.199219 207.007812 159.796875 206.164062 158.433594 205.253906 C 157.070312 204.339844 155.753906 203.359375 154.488281 202.320312 C 153.21875 201.277344 152.007812 200.171875 150.847656 199.011719 C 149.6875 197.847656 148.589844 196.632812 147.550781 195.363281 C 146.507812 194.089844 145.535156 192.773438 144.621094 191.40625 C 143.710938 190.039062 142.871094 188.632812 142.097656 187.183594 C 141.324219 185.734375 140.625 184.25 139.996094 182.730469 C 139.371094 181.210938 138.820312 179.667969 138.34375 178.09375 C 137.867188 176.519531 137.46875 174.929688 137.148438 173.316406 C 136.828125 171.703125 136.589844 170.082031 136.429688 168.445312 C 136.269531 166.808594 136.1875 165.167969 136.1875 163.527344 C 136.1875 161.882812 136.269531 160.242188 136.429688 158.605469 C 136.589844 156.972656 136.828125 155.347656 137.148438 153.734375 C 137.46875 152.125 137.867188 150.53125 138.34375 148.957031 C 138.820312 147.386719 139.371094 145.839844 139.996094 144.320312 C 140.625 142.804688 141.324219 141.320312 142.097656 139.871094 C 142.871094 138.417969 143.710938 137.011719 144.621094 135.644531 C 145.535156 134.277344 146.507812 132.960938 147.550781 131.691406 C 148.589844 130.417969 149.6875 129.203125 150.847656 128.039062 C 152.007812 126.878906 153.21875 125.777344 154.488281 124.734375 C 155.753906 123.691406 157.070312 122.710938 158.433594 121.800781 C 159.796875 120.886719 161.199219 120.042969 162.644531 119.269531 C 164.089844 118.492188 165.570312 117.792969 167.085938 117.164062 C 168.601562 116.53125 170.140625 115.980469 171.710938 115.503906 C 173.277344 115.027344 174.867188 114.628906 176.472656 114.304688 C 178.082031 113.984375 179.703125 113.746094 181.332031 113.582031 C 182.964844 113.421875 184.601562 113.34375 186.238281 113.34375 C 187.878906 113.34375 189.515625 113.421875 191.144531 113.582031 C 192.777344 113.746094 194.394531 113.984375 196.003906 114.304688 C 197.613281 114.628906 199.199219 115.027344 200.769531 115.503906 C 202.335938 115.980469 203.878906 116.53125 205.394531 117.164062 C 206.90625 117.792969 208.386719 118.492188 209.832031 119.269531 C 211.277344 120.042969 212.683594 120.886719 214.046875 121.800781 C 215.410156 122.710938 216.722656 123.691406 217.992188 124.734375 C 219.257812 125.777344 220.472656 126.878906 221.632812 128.039062 C 222.789062 129.203125 223.890625 130.417969 224.929688 131.691406 C 225.96875 132.960938 226.945312 134.277344 227.855469 135.644531 C 228.765625 137.011719 229.609375 138.417969 230.378906 139.871094 C 231.152344 141.320312 231.851562 142.804688 232.480469 144.320312 C 233.109375 145.839844 233.660156 147.386719 234.136719 148.957031 C 234.609375 150.53125 235.007812 152.125 235.328125 153.734375 C 235.648438 155.347656 235.890625 156.972656 236.050781 158.605469 C 236.210938 160.242188 236.289062 161.882812 236.289062 163.527344 Z M 236.289062 163.527344 " fill-opacity="1" fill-rule="nonzero"/><path fill="rgb(61.959839%, 76.078796%, 79.219055%)" d="M 206.761719 163.527344 C 206.761719 164.199219 206.726562 164.871094 206.664062 165.542969 C 206.597656 166.214844 206.5 166.878906 206.367188 167.539062 C 206.234375 168.199219 206.074219 168.855469 205.878906 169.5 C 205.683594 170.144531 205.457031 170.777344 205.199219 171.398438 C 204.941406 172.023438 204.65625 172.632812 204.339844 173.226562 C 204.019531 173.820312 203.675781 174.398438 203.300781 174.957031 C 202.929688 175.519531 202.53125 176.058594 202.101562 176.578125 C 201.675781 177.101562 201.226562 177.597656 200.75 178.074219 C 200.273438 178.550781 199.777344 179.003906 199.257812 179.429688 C 198.738281 179.859375 198.199219 180.261719 197.640625 180.632812 C 197.082031 181.007812 196.507812 181.355469 195.914062 181.671875 C 195.320312 181.992188 194.714844 182.277344 194.09375 182.535156 C 193.472656 182.792969 192.839844 183.019531 192.195312 183.214844 C 191.554688 183.410156 190.902344 183.574219 190.242188 183.707031 C 189.582031 183.839844 188.917969 183.9375 188.25 184.003906 C 187.582031 184.070312 186.910156 184.101562 186.238281 184.101562 C 185.566406 184.101562 184.898438 184.070312 184.226562 184.003906 C 183.558594 183.9375 182.894531 183.839844 182.234375 183.707031 C 181.578125 183.574219 180.925781 183.410156 180.28125 183.214844 C 179.640625 183.019531 179.007812 182.792969 178.386719 182.535156 C 177.765625 182.277344 177.15625 181.992188 176.566406 181.671875 C 175.972656 181.355469 175.398438 181.007812 174.835938 180.632812 C 174.277344 180.261719 173.738281 179.859375 173.21875 179.429688 C 172.699219 179.003906 172.203125 178.550781 171.726562 178.074219 C 171.253906 177.597656 170.800781 177.101562 170.375 176.578125 C 169.949219 176.058594 169.550781 175.519531 169.175781 174.957031 C 168.800781 174.398438 168.457031 173.820312 168.140625 173.226562 C 167.824219 172.632812 167.535156 172.023438 167.277344 171.398438 C 167.023438 170.777344 166.796875 170.144531 166.601562 169.5 C 166.40625 168.855469 166.242188 168.199219 166.113281 167.539062 C 165.980469 166.878906 165.882812 166.214844 165.816406 165.542969 C 165.75 164.871094 165.71875 164.199219 165.71875 163.527344 C 165.71875 162.851562 165.75 162.179688 165.816406 161.507812 C 165.882812 160.839844 165.980469 160.171875 166.113281 159.511719 C 166.242188 158.851562 166.40625 158.199219 166.601562 157.554688 C 166.796875 156.90625 167.023438 156.273438 167.277344 155.652344 C 167.535156 155.027344 167.824219 154.421875 168.140625 153.828125 C 168.457031 153.230469 168.800781 152.65625 169.175781 152.09375 C 169.550781 151.535156 169.949219 150.992188 170.375 150.472656 C 170.800781 149.953125 171.253906 149.453125 171.726562 148.976562 C 172.203125 148.5 172.699219 148.046875 173.21875 147.621094 C 173.738281 147.191406 174.277344 146.792969 174.835938 146.417969 C 175.398438 146.042969 175.972656 145.695312 176.566406 145.378906 C 177.15625 145.0625 177.765625 144.773438 178.386719 144.515625 C 179.007812 144.257812 179.640625 144.03125 180.28125 143.835938 C 180.925781 143.640625 181.578125 143.476562 182.234375 143.34375 C 182.894531 143.214844 183.558594 143.113281 184.226562 143.046875 C 184.898438 142.984375 185.566406 142.949219 186.238281 142.949219 C 186.910156 142.949219 187.582031 142.984375 188.25 143.046875 C 188.917969 143.113281 189.582031 143.214844 190.242188 143.34375 C 190.902344 143.476562 191.554688 143.640625 192.195312 143.835938 C 192.839844 144.03125 193.472656 144.257812 194.09375 144.515625 C 194.714844 144.773438 195.320312 145.0625 195.914062 145.378906 C 196.507812 145.695312 197.082031 146.042969 197.640625 146.417969 C 198.199219 146.792969 198.738281 147.191406 199.257812 147.621094 C 199.777344 148.046875 200.273438 148.5 200.75 148.976562 C 201.226562 149.453125 201.675781 149.953125 202.101562 150.472656 C 202.53125 150.992188 202.929688 151.535156 203.300781 152.09375 C 203.675781 152.65625 204.019531 153.230469 204.339844 153.828125 C 204.65625 154.421875 204.941406 155.027344 205.199219 155.652344 C 205.457031 156.273438 205.683594 156.90625 205.878906 157.554688 C 206.074219 158.199219 206.234375 158.851562 206.367188 159.511719 C 206.5 160.171875 206.597656 160.839844 206.664062 161.507812 C 206.726562 162.179688 206.761719 162.851562 206.761719 163.527344 Z M 206.761719 163.527344 " fill-opacity="1" fill-rule="nonzero"/><path fill="rgb(0%, 0%, 0%)" d="M 150.824219 128.015625 C 170.375 108.417969 202.105469 108.417969 221.652344 128.015625 C 241.203125 147.617188 241.203125 179.433594 221.652344 199.035156 Z M 150.824219 128.015625 " fill-opacity="0.149" fill-rule="nonzero"/><path fill="rgb(100%, 100%, 100%)" d="M 192.636719 163.527344 C 192.636719 163.945312 192.59375 164.363281 192.511719 164.777344 C 192.429688 165.191406 192.308594 165.589844 192.148438 165.980469 C 191.988281 166.371094 191.792969 166.738281 191.558594 167.089844 C 191.324219 167.441406 191.058594 167.761719 190.761719 168.0625 C 190.464844 168.359375 190.140625 168.625 189.792969 168.859375 C 189.445312 169.09375 189.074219 169.289062 188.6875 169.453125 C 188.300781 169.613281 187.898438 169.734375 187.488281 169.816406 C 187.074219 169.898438 186.660156 169.941406 186.238281 169.941406 C 185.820312 169.941406 185.402344 169.898438 184.992188 169.816406 C 184.578125 169.734375 184.179688 169.613281 183.792969 169.453125 C 183.402344 169.289062 183.035156 169.09375 182.683594 168.859375 C 182.335938 168.625 182.011719 168.359375 181.714844 168.0625 C 181.417969 167.761719 181.152344 167.441406 180.921875 167.089844 C 180.6875 166.738281 180.488281 166.371094 180.328125 165.980469 C 180.167969 165.589844 180.046875 165.191406 179.964844 164.777344 C 179.882812 164.363281 179.84375 163.945312 179.84375 163.527344 C 179.84375 163.105469 179.882812 162.6875 179.964844 162.273438 C 180.046875 161.863281 180.167969 161.460938 180.328125 161.070312 C 180.488281 160.683594 180.6875 160.3125 180.921875 159.960938 C 181.152344 159.613281 181.417969 159.289062 181.714844 158.992188 C 182.011719 158.691406 182.335938 158.425781 182.683594 158.191406 C 183.035156 157.957031 183.402344 157.761719 183.792969 157.601562 C 184.179688 157.4375 184.578125 157.316406 184.992188 157.234375 C 185.402344 157.152344 185.820312 157.113281 186.238281 157.113281 C 186.660156 157.113281 187.074219 157.152344 187.488281 157.234375 C 187.898438 157.316406 188.300781 157.4375 188.6875 157.601562 C 189.074219 157.761719 189.445312 157.957031 189.792969 158.191406 C 190.140625 158.425781 190.464844 158.691406 190.761719 158.992188 C 191.058594 159.289062 191.324219 159.613281 191.558594 159.960938 C 191.792969 160.3125 191.988281 160.683594 192.148438 161.070312 C 192.308594 161.460938 192.429688 161.863281 192.511719 162.273438 C 192.59375 162.6875 192.636719 163.105469 192.636719 163.527344 Z M 192.636719 163.527344 " fill-opacity="1" fill-rule="nonzero"/><path fill="rgb(47.059631%, 44.309998%, 50.979614%)" d="M 186.238281 158.445312 C 187.570312 158.445312 188.847656 158.960938 189.820312 159.933594 C 190.792969 160.910156 191.304688 162.191406 191.304688 163.527344 C 191.304688 164.859375 190.792969 166.144531 189.820312 167.117188 C 188.847656 168.09375 187.570312 168.605469 186.238281 168.605469 C 184.910156 168.605469 183.628906 168.09375 182.65625 167.117188 C 181.683594 166.144531 181.171875 164.859375 181.171875 163.527344 C 181.171875 162.191406 181.683594 160.910156 182.65625 159.933594 C 183.628906 158.960938 184.910156 158.445312 186.238281 158.445312 M 186.238281 157.113281 C 184.601562 157.113281 182.964844 157.726562 181.734375 159.011719 C 179.226562 161.523438 179.226562 165.578125 181.734375 168.09375 C 182.964844 169.324219 184.601562 169.992188 186.238281 169.992188 C 187.875 169.992188 189.515625 169.375 190.742188 168.09375 C 193.25 165.578125 193.25 161.523438 190.742188 159.011719 C 189.515625 157.726562 187.875 157.113281 186.238281 157.113281 Z M 186.238281 157.113281 " fill-opacity="1" fill-rule="nonzero"/><path fill="rgb(0%, 0%, 0%)" d="M 166.382812 98.617188 L 214.644531 98.617188 L 214.644531 102.925781 L 166.382812 102.925781 Z M 166.382812 98.617188 " fill-opacity="0.149" fill-rule="nonzero"/><path fill="rgb(0%, 0%, 0%)" d="M 245.605469 110.367188 C 245.605469 111.308594 245.511719 112.242188 245.328125 113.167969 C 245.144531 114.09375 244.875 114.992188 244.515625 115.863281 C 244.152344 116.734375 243.710938 117.5625 243.191406 118.347656 C 242.667969 119.132812 242.074219 119.859375 241.40625 120.523438 C 240.742188 121.191406 240.019531 121.789062 239.238281 122.3125 C 238.453125 122.835938 237.628906 123.277344 236.757812 123.640625 C 235.890625 124 234.992188 124.273438 234.070312 124.457031 C 233.148438 124.640625 232.214844 124.734375 231.273438 124.734375 C 230.335938 124.734375 229.402344 124.640625 228.480469 124.457031 C 227.558594 124.273438 226.660156 124 225.792969 123.640625 C 224.921875 123.277344 224.097656 122.835938 223.3125 122.3125 C 222.53125 121.789062 221.808594 121.191406 221.144531 120.523438 C 220.476562 119.859375 219.882812 119.132812 219.359375 118.347656 C 218.835938 117.5625 218.394531 116.734375 218.035156 115.863281 C 217.675781 114.992188 217.40625 114.09375 217.222656 113.167969 C 217.039062 112.242188 216.945312 111.308594 216.945312 110.367188 C 216.945312 109.421875 217.039062 108.488281 217.222656 107.5625 C 217.40625 106.636719 217.675781 105.738281 218.035156 104.867188 C 218.394531 103.996094 218.835938 103.167969 219.359375 102.382812 C 219.882812 101.597656 220.476562 100.875 221.144531 100.207031 C 221.808594 99.539062 222.53125 98.945312 223.3125 98.417969 C 224.097656 97.894531 224.921875 97.453125 225.792969 97.09375 C 226.660156 96.730469 227.558594 96.457031 228.480469 96.273438 C 229.402344 96.089844 230.335938 96 231.273438 96 C 232.214844 96 233.148438 96.089844 234.070312 96.273438 C 234.992188 96.457031 235.890625 96.730469 236.757812 97.09375 C 237.628906 97.453125 238.453125 97.894531 239.238281 98.417969 C 240.019531 98.945312 240.742188 99.539062 241.40625 100.207031 C 242.074219 100.875 242.667969 101.597656 243.191406 102.382812 C 243.710938 103.167969 244.152344 103.996094 244.515625 104.867188 C 244.875 105.738281 245.144531 106.636719 245.328125 107.5625 C 245.511719 108.488281 245.605469 109.421875 245.605469 110.367188 Z M 245.605469 110.367188 " fill-opacity="0.149" fill-rule="nonzero"/><path fill="rgb(0%, 0%, 0%)" d="M 237.929688 110.367188 C 237.929688 110.804688 237.886719 111.238281 237.800781 111.667969 C 237.714844 112.097656 237.589844 112.515625 237.421875 112.917969 C 237.253906 113.324219 237.050781 113.707031 236.808594 114.070312 C 236.5625 114.4375 236.289062 114.773438 235.980469 115.082031 C 235.671875 115.390625 235.335938 115.667969 234.972656 115.914062 C 234.609375 116.15625 234.226562 116.359375 233.820312 116.527344 C 233.417969 116.695312 233 116.824219 232.574219 116.910156 C 232.144531 116.992188 231.710938 117.035156 231.273438 117.035156 C 230.839844 117.035156 230.40625 116.992188 229.976562 116.910156 C 229.550781 116.824219 229.132812 116.695312 228.730469 116.527344 C 228.324219 116.359375 227.941406 116.15625 227.578125 115.914062 C 227.214844 115.667969 226.878906 115.390625 226.570312 115.082031 C 226.261719 114.773438 225.984375 114.4375 225.742188 114.070312 C 225.5 113.707031 225.296875 113.324219 225.128906 112.917969 C 224.960938 112.515625 224.835938 112.097656 224.75 111.667969 C 224.664062 111.238281 224.621094 110.804688 224.621094 110.367188 C 224.621094 109.929688 224.664062 109.496094 224.75 109.066406 C 224.835938 108.636719 224.960938 108.21875 225.128906 107.8125 C 225.296875 107.410156 225.5 107.023438 225.742188 106.660156 C 225.984375 106.296875 226.261719 105.957031 226.570312 105.648438 C 226.878906 105.339844 227.214844 105.0625 227.578125 104.820312 C 227.941406 104.578125 228.324219 104.371094 228.730469 104.203125 C 229.132812 104.035156 229.550781 103.910156 229.976562 103.824219 C 230.40625 103.738281 230.839844 103.695312 231.273438 103.695312 C 231.710938 103.695312 232.144531 103.738281 232.574219 103.824219 C 233 103.910156 233.417969 104.035156 233.820312 104.203125 C 234.226562 104.371094 234.609375 104.578125 234.972656 104.820312 C 235.335938 105.0625 235.671875 105.339844 235.980469 105.648438 C 236.289062 105.957031 236.5625 106.296875 236.808594 106.660156 C 237.050781 107.023438 237.253906 107.410156 237.421875 107.8125 C 237.589844 108.21875 237.714844 108.636719 237.800781 109.066406 C 237.886719 109.496094 237.929688 109.929688 237.929688 110.367188 Z M 237.929688 110.367188 " fill-opacity="0.149" fill-rule="nonzero"/><path fill="rgb(89.408875%, 89.7995%, 89.7995%)" d="M 151.796875 108.671875 C 151.796875 109.382812 151.726562 110.085938 151.589844 110.785156 C 151.449219 111.480469 151.246094 112.160156 150.976562 112.816406 C 150.703125 113.472656 150.371094 114.097656 149.976562 114.6875 C 149.582031 115.277344 149.136719 115.824219 148.632812 116.328125 C 148.132812 116.832031 147.585938 117.28125 146.996094 117.675781 C 146.40625 118.070312 145.785156 118.402344 145.128906 118.675781 C 144.476562 118.949219 143.800781 119.152344 143.105469 119.292969 C 142.410156 119.429688 141.707031 119.5 141 119.5 C 140.289062 119.5 139.585938 119.429688 138.890625 119.292969 C 138.195312 119.152344 137.519531 118.949219 136.867188 118.675781 C 136.210938 118.402344 135.589844 118.070312 135 117.675781 C 134.410156 117.28125 133.863281 116.832031 133.363281 116.328125 C 132.863281 115.824219 132.414062 115.277344 132.019531 114.6875 C 131.625 114.097656 131.292969 113.472656 131.023438 112.816406 C 130.75 112.160156 130.546875 111.480469 130.40625 110.785156 C 130.269531 110.085938 130.199219 109.382812 130.199219 108.671875 C 130.199219 107.960938 130.269531 107.257812 130.40625 106.558594 C 130.546875 105.863281 130.75 105.1875 131.023438 104.53125 C 131.292969 103.871094 131.625 103.25 132.019531 102.65625 C 132.414062 102.066406 132.863281 101.519531 133.363281 101.015625 C 133.863281 100.515625 134.410156 100.066406 135 99.671875 C 135.589844 99.277344 136.210938 98.941406 136.867188 98.667969 C 137.519531 98.398438 138.195312 98.191406 138.890625 98.054688 C 139.585938 97.914062 140.289062 97.84375 141 97.84375 C 141.707031 97.84375 142.410156 97.914062 143.105469 98.054688 C 143.800781 98.191406 144.476562 98.398438 145.128906 98.667969 C 145.785156 98.941406 146.40625 99.277344 146.996094 99.671875 C 147.585938 100.066406 148.132812 100.515625 148.632812 101.015625 C 149.136719 101.519531 149.582031 102.066406 149.976562 102.65625 C 150.371094 103.25 150.703125 103.871094 150.976562 104.53125 C 151.246094 105.1875 151.449219 105.863281 151.589844 106.558594 C 151.726562 107.257812 151.796875 107.960938 151.796875 108.671875 Z M 151.796875 108.671875 " fill-opacity="1" fill-rule="nonzero"/><path fill="rgb(89.408875%, 89.7995%, 89.7995%)" d="M 163.3125 102.925781 C 163.3125 103.207031 163.285156 103.488281 163.230469 103.765625 C 163.175781 104.042969 163.09375 104.3125 162.984375 104.574219 C 162.875 104.835938 162.742188 105.085938 162.585938 105.320312 C 162.429688 105.554688 162.253906 105.773438 162.050781 105.972656 C 161.851562 106.171875 161.636719 106.351562 161.402344 106.507812 C 161.167969 106.667969 160.917969 106.800781 160.65625 106.90625 C 160.398438 107.015625 160.128906 107.097656 159.851562 107.152344 C 159.574219 107.207031 159.296875 107.234375 159.011719 107.234375 C 158.730469 107.234375 158.449219 107.207031 158.175781 107.152344 C 157.898438 107.097656 157.628906 107.015625 157.367188 106.90625 C 157.105469 106.800781 156.859375 106.667969 156.625 106.507812 C 156.390625 106.351562 156.171875 106.171875 155.972656 105.972656 C 155.773438 105.773438 155.59375 105.554688 155.4375 105.320312 C 155.28125 105.085938 155.148438 104.835938 155.042969 104.574219 C 154.933594 104.3125 154.851562 104.042969 154.796875 103.765625 C 154.742188 103.488281 154.714844 103.207031 154.714844 102.925781 C 154.714844 102.644531 154.742188 102.363281 154.796875 102.085938 C 154.851562 101.808594 154.933594 101.539062 155.042969 101.277344 C 155.148438 101.015625 155.28125 100.765625 155.4375 100.53125 C 155.59375 100.296875 155.773438 100.078125 155.972656 99.878906 C 156.171875 99.675781 156.390625 99.5 156.625 99.34375 C 156.859375 99.183594 157.105469 99.050781 157.367188 98.945312 C 157.628906 98.835938 157.898438 98.753906 158.175781 98.699219 C 158.449219 98.644531 158.730469 98.617188 159.011719 98.617188 C 159.296875 98.617188 159.574219 98.644531 159.851562 98.699219 C 160.128906 98.753906 160.398438 98.835938 160.65625 98.945312 C 160.917969 99.050781 161.167969 99.183594 161.402344 99.34375 C 161.636719 99.5 161.851562 99.675781 162.050781 99.878906 C 162.253906 100.078125 162.429688 100.296875 162.585938 100.53125 C 162.742188 100.765625 162.875 101.015625 162.984375 101.277344 C 163.09375 101.539062 163.175781 101.808594 163.230469 102.085938 C 163.285156 102.363281 163.3125 102.644531 163.3125 102.925781 Z M 163.3125 102.925781 " fill-opacity="1" fill-rule="nonzero"/><path fill="rgb(89.408875%, 89.7995%, 89.7995%)" d="M 203.945312 105.800781 L 199.390625 105.800781 C 199.085938 105.800781 198.878906 105.542969 198.878906 105.285156 L 198.878906 96.203125 C 198.878906 95.894531 199.136719 95.691406 199.390625 95.691406 L 203.945312 95.691406 C 204.253906 95.691406 204.457031 95.945312 204.457031 96.203125 L 204.457031 105.285156 C 204.457031 105.59375 204.253906 105.800781 203.945312 105.800781 Z M 203.945312 105.800781 " fill-opacity="1" fill-rule="nonzero"/><path fill="rgb(89.408875%, 89.7995%, 89.7995%)" d="M 233.425781 138.535156 L 233.425781 169.785156 L 212.492188 190.773438 L 209.421875 187.644531 L 229.023438 167.988281 L 229.023438 138.535156 Z M 233.425781 138.535156 " fill-opacity="1" fill-rule="nonzero"/><path fill="rgb(98.81897%, 79.219055%, 39.219666%)" d="M 207.476562 196.777344 L 203.230469 192.515625 C 202.871094 192.160156 202.871094 191.644531 203.230469 191.285156 L 208.859375 185.640625 C 209.21875 185.28125 209.730469 185.28125 210.085938 185.640625 L 214.335938 189.902344 C 214.695312 190.261719 214.695312 190.773438 214.335938 191.132812 L 208.707031 196.777344 C 208.347656 197.136719 207.835938 197.136719 207.476562 196.777344 Z M 207.476562 196.777344 " fill-opacity="1" fill-rule="nonzero"/><path fill="rgb(98.81897%, 79.219055%, 39.219666%)" d="M 235.164062 140.488281 L 227.4375 140.488281 L 227.4375 108.773438 C 227.4375 107.953125 228.101562 107.289062 228.921875 107.289062 L 233.730469 107.289062 C 234.550781 107.289062 235.214844 107.953125 235.214844 108.773438 L 235.214844 140.488281 Z M 235.164062 140.488281 " fill-opacity="1" fill-rule="nonzero"/><path fill="rgb(0%, 0%, 0%)" d="M 139.15625 205.089844 L 133.269531 205.089844 C 132.964844 205.089844 132.707031 204.832031 132.707031 204.523438 L 132.707031 202.625 C 132.707031 202.316406 132.964844 202.0625 133.269531 202.0625 L 139.15625 202.0625 C 139.464844 202.0625 139.71875 202.316406 139.71875 202.625 L 139.71875 204.523438 C 139.71875 204.832031 139.464844 205.089844 139.15625 205.089844 Z M 139.15625 205.089844 " fill-opacity="0.149" fill-rule="nonzero"/><path fill="rgb(0%, 0%, 0%)" d="M 139.15625 209.859375 L 133.269531 209.859375 C 132.964844 209.859375 132.707031 209.605469 132.707031 209.296875 L 132.707031 207.398438 C 132.707031 207.089844 132.964844 206.832031 133.269531 206.832031 L 139.15625 206.832031 C 139.464844 206.832031 139.71875 207.089844 139.71875 207.398438 L 139.71875 209.296875 C 139.71875 209.605469 139.464844 209.859375 139.15625 209.859375 Z M 139.15625 209.859375 " fill-opacity="0.149" fill-rule="nonzero"/><path fill="rgb(0%, 0%, 0%)" d="M 241.410156 205.089844 L 235.523438 205.089844 C 235.214844 205.089844 234.960938 204.832031 234.960938 204.523438 L 234.960938 202.625 C 234.960938 202.316406 235.214844 202.0625 235.523438 202.0625 L 241.410156 202.0625 C 241.714844 202.0625 241.972656 202.316406 241.972656 202.625 L 241.972656 204.523438 C 241.972656 204.832031 241.714844 205.089844 241.410156 205.089844 Z M 241.410156 205.089844 " fill-opacity="0.149" fill-rule="nonzero"/><path fill="rgb(0%, 0%, 0%)" d="M 241.410156 209.859375 L 235.523438 209.859375 C 235.214844 209.859375 234.960938 209.605469 234.960938 209.296875 L 234.960938 207.398438 C 234.960938 207.089844 235.214844 206.832031 235.523438 206.832031 L 241.410156 206.832031 C 241.714844 206.832031 241.972656 207.089844 241.972656 207.398438 L 241.972656 209.296875 C 241.972656 209.605469 241.714844 209.859375 241.410156 209.859375 Z M 241.410156 209.859375 " fill-opacity="0.149" fill-rule="nonzero"/><path fill="rgb(0%, 0%, 0%)" d="M 227.4375 138.535156 L 235.164062 138.535156 L 235.164062 140.433594 L 227.4375 140.433594 Z M 227.4375 138.535156 " fill-opacity="0.149" fill-rule="nonzero"/><path fill="rgb(0%, 0%, 0%)" d="M 135.984375 115.394531 L 133.988281 113.394531 C 133.628906 113.035156 133.628906 112.519531 133.988281 112.160156 L 144.476562 101.644531 C 144.835938 101.285156 145.347656 101.285156 145.707031 101.644531 L 147.703125 103.644531 C 148.0625 104.003906 148.0625 104.515625 147.703125 104.875 L 137.160156 115.394531 C 136.851562 115.703125 136.289062 115.703125 135.984375 115.394531 Z M 135.984375 115.394531 " fill-opacity="0.149" fill-rule="nonzero"/><path fill="rgb(0%, 0%, 0%)" d="M 161.214844 102.925781 C 161.214844 103.21875 161.15625 103.5 161.046875 103.769531 C 160.933594 104.039062 160.773438 104.277344 160.570312 104.484375 C 160.363281 104.691406 160.125 104.851562 159.855469 104.964844 C 159.585938 105.074219 159.304688 105.132812 159.011719 105.132812 C 158.722656 105.132812 158.441406 105.074219 158.171875 104.964844 C 157.902344 104.851562 157.664062 104.691406 157.457031 104.484375 C 157.25 104.277344 157.089844 104.039062 156.980469 103.769531 C 156.867188 103.5 156.8125 103.21875 156.8125 102.925781 C 156.8125 102.632812 156.867188 102.351562 156.980469 102.082031 C 157.089844 101.8125 157.25 101.574219 157.457031 101.367188 C 157.664062 101.160156 157.902344 101 158.171875 100.886719 C 158.441406 100.773438 158.722656 100.71875 159.011719 100.71875 C 159.304688 100.71875 159.585938 100.773438 159.855469 100.886719 C 160.125 101 160.363281 101.160156 160.570312 101.367188 C 160.773438 101.574219 160.933594 101.8125 161.046875 102.082031 C 161.15625 102.351562 161.214844 102.632812 161.214844 102.925781 Z M 161.214844 102.925781 " fill-opacity="0.149" fill-rule="nonzero"/></svg>