<?xml version="1.0" encoding="UTF-8"?>
<svg xmlns="http://www.w3.org/2000/svg" xmlns:xlink="http://www.w3.org/1999/xlink" width="100%" height="100%" viewBox="0 0 100 100" version="1.1">
<defs>
<clipPath id="clip1">
  <path d="M 4.878906 0.0429688 L 74.957031 0.0429688 L 74.957031 69.488281 L 4.878906 69.488281 Z M 4.878906 0.0429688 "/>
</clipPath>
<clipPath id="clip2">
  <path d="M 4.878906 0.0429688 L 74 0.0429688 L 74 68.605469 L 4.878906 68.605469 Z M 4.878906 0.0429688 "/>
</clipPath>
<clipPath id="clip3">
  <path d="M 4.878906 0.0429688 L 74 0.0429688 L 74 21 L 4.878906 21 Z M 4.878906 0.0429688 "/>
</clipPath>
</defs>
<g id="surface1">
<path style=" stroke:none;fill-rule:nonzero;fill:rgb(100%,100%,100%);fill-opacity:1;" d="M 8.707031 78.851562 C 8.707031 79.117188 8.859375 79.230469 9.132812 79.347656 L 9.519531 79.472656 C 10.09375 79.710938 10.195312 80.039062 9.996094 80.625 L 7.554688 87.800781 L 5.003906 80.367188 C 4.820312 79.835938 4.902344 79.605469 5.21875 79.480469 L 5.660156 79.355469 C 5.949219 79.238281 6.09375 79.097656 6.09375 78.851562 C 6.09375 78.53125 5.886719 78.335938 5.417969 78.335938 L 0.675781 78.335938 C 0.214844 78.335938 0 78.53125 0 78.851562 C 0 79.078125 0.125 79.257812 0.367188 79.375 L 0.675781 79.5 C 0.964844 79.628906 1.097656 79.773438 1.234375 80.179688 L 4.328125 89.035156 C 4.433594 89.347656 4.515625 89.605469 4.515625 89.800781 L 4.515625 90.242188 C 4.515625 90.589844 4.722656 90.765625 5.039062 90.765625 L 7.796875 90.765625 C 8.105469 90.765625 8.328125 90.582031 8.328125 90.269531 L 8.328125 89.816406 C 8.328125 89.515625 8.390625 89.277344 8.5625 88.761719 L 11.277344 80.734375 C 11.527344 79.949219 11.761719 79.65625 12.175781 79.472656 L 12.476562 79.347656 C 12.78125 79.214844 12.898438 79.078125 12.898438 78.839844 C 12.898438 78.53125 12.691406 78.335938 12.230469 78.335938 L 9.375 78.335938 C 8.914062 78.335938 8.707031 78.53125 8.707031 78.851562 Z M 8.707031 78.851562 "/>
<path style=" stroke:none;fill-rule:nonzero;fill:rgb(100%,100%,100%);fill-opacity:1;" d="M 15.339844 80.988281 C 16.503906 80.988281 17.242188 80.394531 17.242188 79.460938 C 17.242188 78.539062 16.503906 77.953125 15.339844 77.953125 C 14.175781 77.953125 13.449219 78.539062 13.449219 79.460938 C 13.449219 80.394531 14.175781 80.988281 15.339844 80.988281 Z M 17.132812 82.75 C 17.132812 82.339844 16.890625 82.054688 16.394531 82.054688 C 16.152344 82.054688 15.863281 82.136719 15.292969 82.351562 L 13.464844 83.03125 C 13.085938 83.175781 12.976562 83.289062 12.976562 83.539062 C 12.976562 83.742188 13.078125 83.867188 13.3125 83.9375 L 13.644531 83.984375 C 13.863281 84.035156 13.953125 84.152344 13.953125 84.5 L 13.953125 89.117188 C 13.953125 89.542969 13.871094 89.683594 13.671875 89.765625 L 13.390625 89.851562 C 13.140625 89.960938 13.03125 90.101562 13.03125 90.316406 C 13.03125 90.597656 13.214844 90.765625 13.628906 90.765625 L 17.457031 90.765625 C 17.863281 90.765625 18.054688 90.597656 18.054688 90.316406 C 18.054688 90.101562 17.945312 89.960938 17.683594 89.851562 L 17.421875 89.765625 C 17.214844 89.691406 17.132812 89.542969 17.132812 89.105469 Z M 17.132812 82.75 "/>
<path style=" stroke:none;fill-rule:nonzero;fill:rgb(100%,100%,100%);fill-opacity:1;" d="M 22.53125 82.75 C 22.53125 82.339844 22.289062 82.054688 21.828125 82.054688 C 21.523438 82.054688 21.234375 82.152344 20.691406 82.351562 L 18.863281 83.03125 C 18.484375 83.175781 18.375 83.289062 18.375 83.539062 C 18.375 83.742188 18.476562 83.867188 18.710938 83.9375 L 19.042969 83.984375 C 19.261719 84.035156 19.351562 84.152344 19.351562 84.5 L 19.351562 89.117188 C 19.351562 89.542969 19.269531 89.683594 19.070312 89.765625 L 18.789062 89.851562 C 18.539062 89.960938 18.429688 90.101562 18.429688 90.316406 C 18.429688 90.597656 18.613281 90.765625 19.027344 90.765625 L 22.757812 90.765625 C 23.179688 90.765625 23.359375 90.597656 23.359375 90.289062 C 23.359375 90.082031 23.269531 89.960938 23.074219 89.859375 L 22.820312 89.765625 C 22.613281 89.675781 22.53125 89.542969 22.53125 89.105469 L 22.53125 84.558594 L 22.570312 84.53125 C 23.054688 84.117188 23.605469 83.910156 24.074219 83.910156 C 24.832031 83.910156 25.289062 84.363281 25.289062 85.261719 L 25.289062 89.097656 C 25.289062 89.53125 25.210938 89.675781 25.003906 89.765625 L 24.742188 89.859375 C 24.542969 89.960938 24.453125 90.082031 24.453125 90.289062 C 24.453125 90.597656 24.632812 90.765625 25.054688 90.765625 L 28.796875 90.765625 C 29.203125 90.765625 29.382812 90.597656 29.382812 90.316406 C 29.382812 90.101562 29.285156 89.960938 29.019531 89.851562 L 28.769531 89.765625 C 28.5625 89.691406 28.472656 89.53125 28.472656 89.097656 L 28.472656 84.808594 C 28.472656 83.148438 27.410156 82.039062 25.832031 82.039062 C 24.914062 82.039062 23.902344 82.453125 22.53125 83.628906 Z M 22.53125 82.75 "/>
<path style=" stroke:none;fill-rule:nonzero;fill:rgb(100%,100%,100%);fill-opacity:1;" d="M 34.050781 91.851562 C 33.402344 93.332031 33.128906 93.539062 32.753906 93.539062 C 32.492188 93.539062 32.257812 93.316406 32.121094 92.90625 L 31.96875 92.523438 C 31.691406 91.824219 31.367188 91.363281 30.625 91.363281 C 29.878906 91.363281 29.398438 91.90625 29.398438 92.785156 C 29.398438 94.019531 30.382812 94.949219 31.96875 94.949219 C 33.5625 94.949219 34.257812 94.273438 35.402344 91.53125 L 38.386719 84.339844 C 38.683594 83.628906 38.925781 83.398438 39.414062 83.191406 C 39.695312 83.070312 39.800781 82.917969 39.800781 82.730469 C 39.800781 82.445312 39.578125 82.277344 39.222656 82.277344 L 36.671875 82.277344 C 36.332031 82.277344 36.105469 82.445312 36.105469 82.730469 C 36.105469 82.953125 36.230469 83.113281 36.519531 83.203125 L 36.851562 83.289062 C 37.375 83.433594 37.457031 83.761719 37.160156 84.488281 L 35.566406 88.414062 L 33.796875 84.347656 C 33.472656 83.609375 33.5625 83.371094 34.078125 83.238281 L 34.367188 83.175781 C 34.65625 83.09375 34.773438 82.953125 34.773438 82.730469 C 34.773438 82.445312 34.554688 82.277344 34.203125 82.277344 L 29.761719 82.277344 C 29.40625 82.277344 29.183594 82.445312 29.183594 82.730469 C 29.183594 82.953125 29.28125 83.085938 29.515625 83.183594 C 29.914062 83.324219 30.074219 83.433594 30.28125 83.875 L 34.070312 91.824219 Z M 34.050781 91.851562 "/>
<path style=" stroke:none;fill-rule:nonzero;fill:rgb(100%,100%,100%);fill-opacity:1;" d="M 43.867188 78.148438 C 43.867188 77.75 43.621094 77.464844 43.128906 77.464844 C 42.882812 77.464844 42.59375 77.535156 42.027344 77.75 L 40.195312 78.433594 C 39.820312 78.574219 39.710938 78.699219 39.710938 78.9375 C 39.710938 79.144531 39.808594 79.273438 40.042969 79.339844 L 40.378906 79.382812 C 40.59375 79.433594 40.683594 79.550781 40.683594 79.898438 L 40.683594 89.117188 C 40.683594 89.542969 40.601562 89.683594 40.402344 89.765625 L 40.125 89.851562 C 39.871094 89.960938 39.761719 90.101562 39.761719 90.316406 C 39.761719 90.597656 39.945312 90.765625 40.359375 90.765625 L 44.191406 90.765625 C 44.59375 90.765625 44.785156 90.597656 44.785156 90.316406 C 44.785156 90.101562 44.675781 89.960938 44.414062 89.851562 L 44.152344 89.765625 C 43.945312 89.691406 43.867188 89.542969 43.867188 89.105469 Z M 43.867188 78.148438 "/>
<path style=" stroke:none;fill-rule:nonzero;fill:rgb(100%,100%,100%);fill-opacity:1;" d="M 52.191406 90.234375 C 52.191406 90.003906 52.066406 89.851562 51.867188 89.765625 L 51.527344 89.613281 C 51.074219 89.402344 50.769531 89.167969 50.8125 88.636719 L 51.363281 82.0625 L 54.363281 89.453125 C 54.707031 90.296875 54.996094 90.375 55.445312 90.375 C 55.859375 90.375 56.132812 90.242188 56.402344 89.503906 L 59.296875 82.011719 L 59.828125 88.921875 C 59.855469 89.292969 59.746094 89.453125 59.347656 89.578125 L 58.941406 89.703125 C 58.617188 89.808594 58.511719 90.003906 58.511719 90.253906 C 58.511719 90.570312 58.726562 90.765625 59.195312 90.765625 L 63.875 90.765625 C 64.328125 90.765625 64.542969 90.542969 64.542969 90.226562 C 64.542969 89.96875 64.40625 89.78125 64.144531 89.703125 L 63.757812 89.578125 C 63.421875 89.46875 63.304688 89.347656 63.28125 88.921875 L 62.65625 80.269531 C 62.621094 79.816406 62.730469 79.65625 63.136719 79.527344 L 63.53125 79.402344 C 63.8125 79.3125 63.953125 79.125 63.953125 78.851562 C 63.953125 78.53125 63.746094 78.335938 63.289062 78.335938 L 60.242188 78.335938 C 59.558594 78.335938 59.214844 78.582031 58.925781 79.347656 L 56.472656 85.671875 L 53.90625 79.3125 C 53.597656 78.53125 53.257812 78.335938 52.617188 78.335938 L 49.605469 78.335938 C 49.15625 78.335938 48.929688 78.53125 48.929688 78.851562 C 48.929688 79.144531 49.074219 79.3125 49.371094 79.410156 L 49.757812 79.527344 C 50.15625 79.65625 50.289062 79.925781 50.246094 80.535156 L 49.558594 88.625 C 49.515625 89.160156 49.242188 89.417969 48.847656 89.578125 L 48.578125 89.675781 C 48.289062 89.800781 48.101562 89.949219 48.101562 90.253906 C 48.101562 90.570312 48.308594 90.765625 48.769531 90.765625 L 51.527344 90.765625 C 51.976562 90.765625 52.191406 90.554688 52.191406 90.234375 Z M 52.191406 90.234375 "/>
<path style=" stroke:none;fill-rule:nonzero;fill:rgb(100%,100%,100%);fill-opacity:1;" d="M 67.277344 80.988281 C 68.441406 80.988281 69.183594 80.394531 69.183594 79.460938 C 69.183594 78.539062 68.441406 77.953125 67.277344 77.953125 C 66.117188 77.953125 65.386719 78.539062 65.386719 79.460938 C 65.386719 80.394531 66.117188 80.988281 67.277344 80.988281 Z M 69.074219 82.75 C 69.074219 82.339844 68.832031 82.054688 68.335938 82.054688 C 68.09375 82.054688 67.800781 82.136719 67.234375 82.351562 L 65.40625 83.03125 C 65.027344 83.175781 64.917969 83.289062 64.917969 83.539062 C 64.917969 83.742188 65.019531 83.867188 65.25 83.9375 L 65.585938 83.984375 C 65.800781 84.035156 65.890625 84.152344 65.890625 84.5 L 65.890625 89.117188 C 65.890625 89.542969 65.808594 89.683594 65.613281 89.765625 L 65.332031 89.851562 C 65.082031 89.960938 64.972656 90.101562 64.972656 90.316406 C 64.972656 90.597656 65.152344 90.765625 65.566406 90.765625 L 69.398438 90.765625 C 69.804688 90.765625 69.992188 90.597656 69.992188 90.316406 C 69.992188 90.101562 69.886719 89.960938 69.621094 89.851562 L 69.363281 89.765625 C 69.15625 89.691406 69.074219 89.542969 69.074219 89.105469 Z M 69.074219 82.75 "/>
<path style=" stroke:none;fill-rule:nonzero;fill:rgb(100%,100%,100%);fill-opacity:1;" d="M 74.90625 83.855469 C 74.679688 83.539062 74.679688 83.386719 74.960938 83.265625 L 75.195312 83.164062 C 75.375 83.070312 75.445312 82.933594 75.445312 82.738281 C 75.445312 82.445312 75.21875 82.277344 74.871094 82.277344 L 70.640625 82.277344 C 70.273438 82.277344 70.054688 82.445312 70.054688 82.75 C 70.054688 82.988281 70.136719 83.128906 70.433594 83.246094 C 70.730469 83.351562 70.972656 83.503906 71.28125 83.929688 L 73.265625 86.691406 L 71.976562 88.335938 C 71.273438 89.214844 70.957031 89.558594 70.390625 89.800781 C 70.074219 89.949219 69.964844 90.082031 69.964844 90.296875 C 69.964844 90.582031 70.183594 90.757812 70.542969 90.757812 L 73.039062 90.757812 C 73.390625 90.757812 73.617188 90.582031 73.617188 90.296875 C 73.617188 90.09375 73.515625 89.960938 73.273438 89.859375 L 73.046875 89.789062 C 72.605469 89.628906 72.527344 89.242188 72.914062 88.734375 L 73.867188 87.492188 L 75.113281 89.203125 C 75.375 89.550781 75.355469 89.730469 75.03125 89.824219 L 74.796875 89.886719 C 74.589844 89.960938 74.5 90.09375 74.5 90.296875 C 74.5 90.589844 74.714844 90.765625 75.09375 90.765625 L 79.410156 90.765625 C 79.773438 90.765625 80 90.589844 80 90.304688 C 80 90.09375 79.890625 89.96875 79.644531 89.835938 C 79.382812 89.710938 79.214844 89.542969 78.835938 89.054688 L 76.664062 86.222656 L 77.863281 84.691406 C 78.5625 83.824219 78.890625 83.476562 79.457031 83.238281 C 79.765625 83.078125 79.871094 82.953125 79.871094 82.738281 C 79.871094 82.445312 79.664062 82.277344 79.304688 82.277344 L 76.808594 82.277344 C 76.445312 82.277344 76.21875 82.445312 76.21875 82.738281 C 76.21875 82.945312 76.328125 83.078125 76.5625 83.175781 L 76.796875 83.246094 C 77.230469 83.40625 77.320312 83.789062 76.933594 84.292969 L 76.058594 85.429688 Z M 74.90625 83.855469 "/>
<g clip-path="url(#clip1)" clip-rule="nonzero">
<path style=" stroke:none;fill-rule:nonzero;fill:rgb(0%,0%,0%);fill-opacity:0.14902;" d="M 64.554688 69.488281 L 15.28125 69.488281 C 9.578125 69.488281 4.960938 64.929688 4.960938 59.324219 L 4.960938 10.234375 C 4.960938 4.601562 9.578125 0.0429688 15.28125 0.0429688 L 64.582031 0.0429688 C 70.261719 0.0429688 74.871094 4.601562 74.871094 10.234375 L 74.871094 59.324219 C 74.871094 64.929688 70.261719 69.488281 64.554688 69.488281 Z M 64.554688 69.488281 "/>
</g>
<g clip-path="url(#clip2)" clip-rule="nonzero">
<path style=" stroke:none;fill-rule:nonzero;fill:rgb(100%,100%,100%);fill-opacity:1;" d="M 63.492188 68.382812 L 15.226562 68.382812 C 9.550781 68.382812 4.960938 63.851562 4.960938 58.246094 L 4.960938 10.179688 C 4.960938 4.574219 9.550781 0.0429688 15.226562 0.0429688 L 63.492188 0.0429688 C 69.167969 0.0429688 73.753906 4.574219 73.753906 10.179688 L 73.753906 58.246094 C 73.78125 63.851562 69.167969 68.382812 63.492188 68.382812 Z M 63.492188 68.382812 "/>
</g>
<g clip-path="url(#clip3)" clip-rule="nonzero">
<path style=" stroke:none;fill-rule:nonzero;fill:rgb(100%,100%,100%);fill-opacity:1;" d="M 73.78125 9.1875 L 73.78125 20.761719 L 4.960938 20.761719 L 4.960938 9.1875 C 4.960938 4.132812 9.101562 0.0429688 14.21875 0.0429688 L 64.5 0.0429688 C 69.617188 0.0429688 73.78125 4.132812 73.78125 9.1875 Z M 73.78125 9.1875 "/>
</g>
<path style=" stroke:none;fill-rule:nonzero;fill:rgb(0%,0%,0%);fill-opacity:0.14902;" d="M 67.128906 39.460938 C 67.128906 40.363281 67.082031 41.261719 66.992188 42.160156 C 66.90625 43.058594 66.769531 43.949219 66.589844 44.835938 C 66.414062 45.71875 66.191406 46.59375 65.925781 47.457031 C 65.664062 48.320312 65.355469 49.167969 65.003906 50 C 64.65625 50.832031 64.265625 51.648438 63.835938 52.445312 C 63.40625 53.238281 62.9375 54.011719 62.429688 54.761719 C 61.921875 55.511719 61.378906 56.234375 60.796875 56.933594 C 60.21875 57.628906 59.605469 58.300781 58.960938 58.9375 C 58.316406 59.574219 57.640625 60.179688 56.933594 60.75 C 56.226562 61.324219 55.496094 61.859375 54.738281 62.363281 C 53.976562 62.863281 53.195312 63.324219 52.390625 63.75 C 51.582031 64.175781 50.761719 64.5625 49.917969 64.90625 C 49.074219 65.25 48.214844 65.554688 47.339844 65.816406 C 46.46875 66.078125 45.582031 66.296875 44.6875 66.472656 C 43.789062 66.648438 42.886719 66.78125 41.980469 66.871094 C 41.070312 66.957031 40.160156 67.003906 39.246094 67.003906 C 38.332031 67.003906 37.421875 66.957031 36.515625 66.871094 C 35.605469 66.78125 34.703125 66.648438 33.808594 66.472656 C 32.910156 66.296875 32.027344 66.078125 31.152344 65.816406 C 30.28125 65.554688 29.421875 65.25 28.578125 64.90625 C 27.734375 64.5625 26.910156 64.175781 26.105469 63.75 C 25.300781 63.324219 24.515625 62.863281 23.757812 62.363281 C 23 61.859375 22.265625 61.324219 21.558594 60.75 C 20.855469 60.179688 20.175781 59.574219 19.53125 58.9375 C 18.886719 58.300781 18.273438 57.628906 17.695312 56.933594 C 17.117188 56.234375 16.570312 55.511719 16.0625 54.761719 C 15.558594 54.011719 15.089844 53.238281 14.65625 52.445312 C 14.226562 51.648438 13.835938 50.832031 13.488281 50 C 13.140625 49.167969 12.832031 48.320312 12.566406 47.457031 C 12.300781 46.59375 12.082031 45.71875 11.902344 44.835938 C 11.726562 43.949219 11.589844 43.058594 11.5 42.160156 C 11.410156 41.261719 11.367188 40.363281 11.367188 39.460938 C 11.367188 38.558594 11.410156 37.660156 11.5 36.761719 C 11.589844 35.867188 11.726562 34.972656 11.902344 34.089844 C 12.082031 33.203125 12.300781 32.332031 12.566406 31.464844 C 12.832031 30.605469 13.140625 29.757812 13.488281 28.921875 C 13.835938 28.089844 14.226562 27.277344 14.65625 26.476562 C 15.089844 25.683594 15.558594 24.910156 16.0625 24.160156 C 16.570312 23.410156 17.117188 22.6875 17.695312 21.992188 C 18.273438 21.292969 18.886719 20.625 19.53125 19.988281 C 20.175781 19.351562 20.855469 18.746094 21.558594 18.171875 C 22.265625 17.601562 23 17.0625 23.757812 16.5625 C 24.515625 16.0625 25.300781 15.597656 26.105469 15.171875 C 26.910156 14.75 27.734375 14.363281 28.578125 14.015625 C 29.421875 13.671875 30.28125 13.371094 31.152344 13.105469 C 32.027344 12.847656 32.910156 12.628906 33.808594 12.449219 C 34.703125 12.277344 35.605469 12.144531 36.515625 12.054688 C 37.421875 11.964844 38.332031 11.921875 39.246094 11.921875 C 40.160156 11.921875 41.070312 11.964844 41.980469 12.054688 C 42.886719 12.144531 43.789062 12.277344 44.6875 12.449219 C 45.582031 12.628906 46.46875 12.847656 47.339844 13.105469 C 48.214844 13.371094 49.074219 13.671875 49.917969 14.015625 C 50.761719 14.363281 51.582031 14.75 52.390625 15.171875 C 53.195312 15.597656 53.976562 16.0625 54.738281 16.5625 C 55.496094 17.0625 56.226562 17.601562 56.933594 18.171875 C 57.640625 18.746094 58.316406 19.351562 58.960938 19.988281 C 59.605469 20.625 60.21875 21.292969 60.796875 21.992188 C 61.378906 22.6875 61.921875 23.410156 62.429688 24.160156 C 62.9375 24.910156 63.40625 25.683594 63.835938 26.476562 C 64.265625 27.277344 64.65625 28.089844 65.003906 28.921875 C 65.355469 29.757812 65.664062 30.605469 65.925781 31.464844 C 66.191406 32.332031 66.414062 33.203125 66.589844 34.089844 C 66.769531 34.972656 66.90625 35.867188 66.992188 36.761719 C 67.082031 37.660156 67.128906 38.558594 67.128906 39.460938 Z M 67.128906 39.460938 "/>
<path style=" stroke:none;fill-rule:nonzero;fill:rgb(26.27451%,26.27451%,30.980392%);fill-opacity:1;" d="M 66.59375 38.746094 C 66.59375 39.628906 66.554688 40.511719 66.464844 41.390625 C 66.378906 42.273438 66.246094 43.144531 66.070312 44.015625 C 65.894531 44.882812 65.675781 45.738281 65.417969 46.585938 C 65.160156 47.433594 64.859375 48.265625 64.515625 49.082031 C 64.171875 49.898438 63.789062 50.699219 63.367188 51.480469 C 62.945312 52.257812 62.484375 53.015625 61.988281 53.753906 C 61.488281 54.488281 60.957031 55.195312 60.386719 55.882812 C 59.820312 56.566406 59.21875 57.21875 58.585938 57.847656 C 57.953125 58.472656 57.289062 59.066406 56.597656 59.628906 C 55.902344 60.1875 55.1875 60.714844 54.441406 61.207031 C 53.695312 61.695312 52.929688 62.152344 52.140625 62.570312 C 51.347656 62.984375 50.539062 63.363281 49.714844 63.703125 C 48.886719 64.042969 48.042969 64.339844 47.1875 64.59375 C 46.328125 64.851562 45.460938 65.066406 44.582031 65.242188 C 43.703125 65.414062 42.820312 65.542969 41.925781 65.628906 C 41.039062 65.714844 40.144531 65.757812 39.246094 65.757812 C 38.351562 65.757812 37.457031 65.714844 36.566406 65.628906 C 35.675781 65.542969 34.789062 65.414062 33.910156 65.242188 C 33.03125 65.066406 32.164062 64.851562 31.308594 64.59375 C 30.449219 64.339844 29.609375 64.042969 28.78125 63.703125 C 27.953125 63.363281 27.144531 62.984375 26.355469 62.570312 C 25.566406 62.152344 24.796875 61.695312 24.054688 61.207031 C 23.308594 60.714844 22.589844 60.1875 21.898438 59.628906 C 21.203125 59.066406 20.542969 58.472656 19.910156 57.847656 C 19.273438 57.21875 18.675781 56.566406 18.105469 55.882812 C 17.535156 55.195312 17.003906 54.488281 16.507812 53.753906 C 16.007812 53.015625 15.550781 52.257812 15.128906 51.480469 C 14.703125 50.699219 14.324219 49.898438 13.980469 49.082031 C 13.636719 48.265625 13.335938 47.433594 13.074219 46.585938 C 12.816406 45.738281 12.597656 44.882812 12.421875 44.015625 C 12.246094 43.144531 12.117188 42.273438 12.03125 41.390625 C 11.941406 40.511719 11.898438 39.628906 11.898438 38.746094 C 11.898438 37.859375 11.941406 36.976562 12.03125 36.09375 C 12.117188 35.214844 12.246094 34.339844 12.421875 33.472656 C 12.597656 32.605469 12.816406 31.75 13.074219 30.902344 C 13.335938 30.054688 13.636719 29.222656 13.980469 28.40625 C 14.324219 27.589844 14.703125 26.789062 15.128906 26.007812 C 15.550781 25.226562 16.007812 24.46875 16.507812 23.734375 C 17.003906 23 17.535156 22.289062 18.105469 21.605469 C 18.675781 20.921875 19.273438 20.265625 19.910156 19.640625 C 20.542969 19.015625 21.203125 18.421875 21.898438 17.859375 C 22.589844 17.300781 23.308594 16.773438 24.054688 16.28125 C 24.796875 15.789062 25.566406 15.335938 26.355469 14.917969 C 27.144531 14.5 27.953125 14.125 28.78125 13.785156 C 29.609375 13.445312 30.449219 13.148438 31.308594 12.890625 C 32.164062 12.636719 33.03125 12.421875 33.910156 12.246094 C 34.789062 12.074219 35.675781 11.945312 36.566406 11.855469 C 37.457031 11.769531 38.351562 11.730469 39.246094 11.730469 C 40.144531 11.730469 41.039062 11.769531 41.925781 11.855469 C 42.820312 11.945312 43.703125 12.074219 44.582031 12.246094 C 45.460938 12.421875 46.328125 12.636719 47.1875 12.890625 C 48.042969 13.148438 48.886719 13.445312 49.714844 13.785156 C 50.539062 14.125 51.347656 14.5 52.140625 14.917969 C 52.929688 15.335938 53.695312 15.789062 54.441406 16.28125 C 55.1875 16.773438 55.902344 17.300781 56.597656 17.859375 C 57.289062 18.421875 57.953125 19.015625 58.585938 19.640625 C 59.21875 20.265625 59.820312 20.921875 60.386719 21.605469 C 60.957031 22.289062 61.488281 23 61.988281 23.734375 C 62.484375 24.46875 62.945312 25.226562 63.367188 26.007812 C 63.789062 26.789062 64.171875 27.589844 64.515625 28.40625 C 64.859375 29.222656 65.160156 30.054688 65.417969 30.902344 C 65.675781 31.75 65.894531 32.605469 66.070312 33.472656 C 66.246094 34.339844 66.378906 35.214844 66.464844 36.09375 C 66.554688 36.976562 66.59375 37.859375 66.59375 38.746094 Z M 66.59375 38.746094 "/>
<path style=" stroke:none;fill-rule:nonzero;fill:rgb(61.960784%,76.078431%,79.215686%);fill-opacity:1;" d="M 50.460938 38.746094 C 50.460938 39.105469 50.441406 39.46875 50.40625 39.828125 C 50.371094 40.191406 50.316406 40.546875 50.246094 40.902344 C 50.171875 41.257812 50.085938 41.613281 49.980469 41.960938 C 49.871094 42.308594 49.75 42.648438 49.605469 42.980469 C 49.464844 43.316406 49.3125 43.644531 49.136719 43.964844 C 48.960938 44.285156 48.773438 44.597656 48.570312 44.898438 C 48.367188 45.199219 48.148438 45.492188 47.914062 45.769531 C 47.683594 46.050781 47.4375 46.320312 47.175781 46.574219 C 46.914062 46.832031 46.644531 47.074219 46.359375 47.304688 C 46.078125 47.535156 45.78125 47.753906 45.476562 47.953125 C 45.171875 48.15625 44.859375 48.34375 44.535156 48.511719 C 44.210938 48.683594 43.878906 48.839844 43.539062 48.976562 C 43.199219 49.117188 42.855469 49.238281 42.5 49.34375 C 42.152344 49.449219 41.796875 49.535156 41.433594 49.609375 C 41.074219 49.679688 40.710938 49.730469 40.347656 49.765625 C 39.980469 49.804688 39.613281 49.820312 39.246094 49.820312 C 38.878906 49.820312 38.515625 49.804688 38.148438 49.765625 C 37.78125 49.730469 37.417969 49.679688 37.058594 49.609375 C 36.699219 49.535156 36.34375 49.449219 35.992188 49.34375 C 35.640625 49.238281 35.296875 49.117188 34.957031 48.976562 C 34.617188 48.839844 34.285156 48.683594 33.960938 48.511719 C 33.636719 48.34375 33.324219 48.15625 33.015625 47.953125 C 32.710938 47.753906 32.417969 47.535156 32.132812 47.304688 C 31.847656 47.074219 31.578125 46.832031 31.316406 46.574219 C 31.058594 46.320312 30.8125 46.050781 30.578125 45.769531 C 30.347656 45.492188 30.128906 45.199219 29.921875 44.898438 C 29.71875 44.597656 29.53125 44.285156 29.359375 43.964844 C 29.183594 43.644531 29.027344 43.316406 28.886719 42.980469 C 28.746094 42.648438 28.625 42.308594 28.515625 41.960938 C 28.410156 41.613281 28.320312 41.257812 28.25 40.902344 C 28.175781 40.546875 28.125 40.191406 28.085938 39.828125 C 28.050781 39.46875 28.035156 39.105469 28.035156 38.746094 C 28.035156 38.378906 28.050781 38.019531 28.085938 37.65625 C 28.125 37.296875 28.175781 36.9375 28.25 36.582031 C 28.320312 36.226562 28.410156 35.875 28.515625 35.527344 C 28.625 35.179688 28.746094 34.839844 28.886719 34.503906 C 29.027344 34.167969 29.183594 33.84375 29.359375 33.523438 C 29.53125 33.203125 29.71875 32.890625 29.921875 32.589844 C 30.128906 32.289062 30.347656 31.996094 30.578125 31.714844 C 30.8125 31.4375 31.058594 31.167969 31.316406 30.910156 C 31.578125 30.65625 31.847656 30.410156 32.132812 30.179688 C 32.417969 29.949219 32.710938 29.734375 33.015625 29.535156 C 33.324219 29.332031 33.636719 29.144531 33.960938 28.972656 C 34.285156 28.804688 34.617188 28.648438 34.957031 28.511719 C 35.296875 28.371094 35.640625 28.25 35.992188 28.144531 C 36.34375 28.039062 36.699219 27.949219 37.058594 27.878906 C 37.417969 27.808594 37.78125 27.753906 38.148438 27.71875 C 38.515625 27.683594 38.878906 27.667969 39.246094 27.667969 C 39.613281 27.667969 39.980469 27.683594 40.347656 27.71875 C 40.710938 27.753906 41.074219 27.808594 41.433594 27.878906 C 41.796875 27.949219 42.152344 28.039062 42.5 28.144531 C 42.855469 28.25 43.199219 28.371094 43.539062 28.511719 C 43.878906 28.648438 44.210938 28.804688 44.535156 28.972656 C 44.859375 29.144531 45.171875 29.332031 45.476562 29.535156 C 45.78125 29.734375 46.078125 29.949219 46.359375 30.179688 C 46.644531 30.410156 46.914062 30.65625 47.175781 30.910156 C 47.4375 31.167969 47.683594 31.4375 47.914062 31.714844 C 48.148438 31.996094 48.367188 32.289062 48.570312 32.589844 C 48.773438 32.890625 48.960938 33.203125 49.136719 33.523438 C 49.3125 33.84375 49.464844 34.167969 49.605469 34.503906 C 49.75 34.839844 49.871094 35.179688 49.980469 35.527344 C 50.085938 35.875 50.171875 36.226562 50.246094 36.582031 C 50.316406 36.9375 50.371094 37.296875 50.40625 37.65625 C 50.441406 38.019531 50.460938 38.378906 50.460938 38.746094 Z M 50.460938 38.746094 "/>
<path style=" stroke:none;fill-rule:nonzero;fill:rgb(0%,0%,0%);fill-opacity:0.14902;" d="M 19.894531 19.628906 C 30.578125 9.078125 47.917969 9.078125 58.597656 19.628906 C 69.28125 30.179688 69.28125 47.308594 58.597656 57.859375 Z M 19.894531 19.628906 "/>
<path style=" stroke:none;fill-rule:nonzero;fill:rgb(100%,100%,100%);fill-opacity:1;" d="M 42.742188 38.746094 C 42.742188 38.96875 42.71875 39.195312 42.675781 39.417969 C 42.628906 39.640625 42.5625 39.855469 42.476562 40.066406 C 42.386719 40.273438 42.28125 40.472656 42.152344 40.664062 C 42.027344 40.851562 41.878906 41.023438 41.71875 41.1875 C 41.554688 41.34375 41.378906 41.488281 41.1875 41.613281 C 41 41.742188 40.796875 41.847656 40.585938 41.933594 C 40.375 42.019531 40.152344 42.085938 39.929688 42.128906 C 39.703125 42.175781 39.476562 42.199219 39.246094 42.199219 C 39.019531 42.199219 38.789062 42.175781 38.566406 42.128906 C 38.339844 42.085938 38.121094 42.019531 37.910156 41.933594 C 37.695312 41.847656 37.496094 41.742188 37.304688 41.613281 C 37.113281 41.488281 36.9375 41.34375 36.773438 41.1875 C 36.613281 41.023438 36.46875 40.851562 36.339844 40.664062 C 36.214844 40.472656 36.105469 40.273438 36.015625 40.066406 C 35.929688 39.855469 35.863281 39.640625 35.820312 39.417969 C 35.773438 39.195312 35.753906 38.96875 35.753906 38.746094 C 35.753906 38.515625 35.773438 38.292969 35.820312 38.070312 C 35.863281 37.847656 35.929688 37.632812 36.015625 37.421875 C 36.105469 37.214844 36.214844 37.015625 36.339844 36.824219 C 36.46875 36.636719 36.613281 36.460938 36.773438 36.304688 C 36.9375 36.140625 37.113281 36 37.304688 35.871094 C 37.496094 35.746094 37.695312 35.640625 37.910156 35.554688 C 38.121094 35.464844 38.339844 35.402344 38.566406 35.355469 C 38.789062 35.3125 39.019531 35.292969 39.246094 35.292969 C 39.476562 35.292969 39.703125 35.3125 39.929688 35.355469 C 40.152344 35.402344 40.375 35.464844 40.585938 35.554688 C 40.796875 35.640625 41 35.746094 41.1875 35.871094 C 41.378906 36 41.554688 36.140625 41.71875 36.304688 C 41.878906 36.460938 42.027344 36.636719 42.152344 36.824219 C 42.28125 37.015625 42.386719 37.214844 42.476562 37.421875 C 42.5625 37.632812 42.628906 37.847656 42.675781 38.070312 C 42.71875 38.292969 42.742188 38.515625 42.742188 38.746094 Z M 42.742188 38.746094 "/>
<path style=" stroke:none;fill-rule:nonzero;fill:rgb(47.058824%,44.313725%,50.980392%);fill-opacity:1;" d="M 39.246094 36.007812 C 39.972656 36.007812 40.671875 36.285156 41.203125 36.808594 C 41.734375 37.335938 42.015625 38.023438 42.015625 38.746094 C 42.015625 39.460938 41.734375 40.152344 41.203125 40.675781 C 40.671875 41.203125 39.972656 41.476562 39.246094 41.476562 C 38.519531 41.476562 37.820312 41.203125 37.289062 40.675781 C 36.757812 40.152344 36.476562 39.460938 36.476562 38.746094 C 36.476562 38.023438 36.757812 37.335938 37.289062 36.808594 C 37.820312 36.285156 38.519531 36.007812 39.246094 36.007812 M 39.246094 35.292969 C 38.351562 35.292969 37.457031 35.621094 36.785156 36.3125 C 35.414062 37.664062 35.414062 39.847656 36.785156 41.203125 C 37.457031 41.863281 38.351562 42.226562 39.246094 42.226562 C 40.140625 42.226562 41.039062 41.890625 41.707031 41.203125 C 43.078125 39.847656 43.078125 37.664062 41.707031 36.3125 C 41.039062 35.621094 40.140625 35.292969 39.246094 35.292969 Z M 39.246094 35.292969 "/>
<path style=" stroke:none;fill-rule:nonzero;fill:rgb(0%,0%,0%);fill-opacity:0.14902;" d="M 28.398438 3.800781 L 54.769531 3.800781 L 54.769531 6.121094 L 28.398438 6.121094 Z M 71.6875 10.125 C 71.6875 10.632812 71.636719 11.136719 71.535156 11.632812 C 71.433594 12.132812 71.285156 12.617188 71.089844 13.085938 C 70.890625 13.554688 70.652344 14 70.367188 14.421875 C 70.082031 14.84375 69.757812 15.238281 69.390625 15.59375 C 69.027344 15.953125 68.632812 16.277344 68.207031 16.558594 C 67.777344 16.839844 67.328125 17.078125 66.851562 17.273438 C 66.378906 17.464844 65.886719 17.613281 65.382812 17.710938 C 64.878906 17.8125 64.371094 17.859375 63.855469 17.859375 C 63.34375 17.859375 62.832031 17.8125 62.328125 17.710938 C 61.824219 17.613281 61.335938 17.464844 60.859375 17.273438 C 60.382812 17.078125 59.933594 16.839844 59.503906 16.558594 C 59.078125 16.277344 58.683594 15.953125 58.320312 15.59375 C 57.957031 15.238281 57.628906 14.84375 57.34375 14.421875 C 57.058594 14 56.816406 13.554688 56.621094 13.085938 C 56.425781 12.617188 56.277344 12.132812 56.175781 11.632812 C 56.078125 11.136719 56.027344 10.632812 56.027344 10.125 C 56.027344 9.617188 56.078125 9.117188 56.175781 8.617188 C 56.277344 8.117188 56.425781 7.636719 56.621094 7.164062 C 56.816406 6.695312 57.058594 6.25 57.34375 5.828125 C 57.628906 5.40625 57.957031 5.015625 58.320312 4.65625 C 58.683594 4.296875 59.078125 3.976562 59.503906 3.695312 C 59.933594 3.414062 60.382812 3.175781 60.859375 2.980469 C 61.335938 2.785156 61.824219 2.636719 62.328125 2.539062 C 62.832031 2.441406 63.34375 2.390625 63.855469 2.390625 C 64.371094 2.390625 64.878906 2.441406 65.382812 2.539062 C 65.886719 2.636719 66.378906 2.785156 66.851562 2.980469 C 67.328125 3.175781 67.777344 3.414062 68.207031 3.695312 C 68.632812 3.976562 69.027344 4.296875 69.390625 4.65625 C 69.757812 5.015625 70.082031 5.40625 70.367188 5.828125 C 70.652344 6.25 70.890625 6.695312 71.089844 7.164062 C 71.285156 7.636719 71.433594 8.117188 71.535156 8.617188 C 71.636719 9.117188 71.6875 9.617188 71.6875 10.125 Z M 71.6875 10.125 "/>
<path style=" stroke:none;fill-rule:nonzero;fill:rgb(0%,0%,0%);fill-opacity:0.14902;" d="M 67.492188 10.125 C 67.492188 10.363281 67.46875 10.59375 67.421875 10.828125 C 67.375 11.058594 67.304688 11.285156 67.214844 11.5 C 67.121094 11.71875 67.011719 11.925781 66.878906 12.121094 C 66.746094 12.316406 66.59375 12.5 66.425781 12.664062 C 66.257812 12.832031 66.074219 12.980469 65.875 13.113281 C 65.675781 13.242188 65.46875 13.351562 65.246094 13.441406 C 65.027344 13.535156 64.796875 13.601562 64.566406 13.648438 C 64.332031 13.691406 64.09375 13.714844 63.855469 13.714844 C 63.617188 13.714844 63.382812 13.691406 63.144531 13.648438 C 62.914062 13.601562 62.683594 13.535156 62.464844 13.441406 C 62.242188 13.351562 62.035156 13.242188 61.835938 13.113281 C 61.636719 12.980469 61.453125 12.832031 61.285156 12.664062 C 61.117188 12.5 60.964844 12.316406 60.832031 12.121094 C 60.699219 11.925781 60.589844 11.71875 60.496094 11.5 C 60.40625 11.285156 60.335938 11.058594 60.289062 10.828125 C 60.242188 10.59375 60.21875 10.363281 60.21875 10.125 C 60.21875 9.890625 60.242188 9.65625 60.289062 9.425781 C 60.335938 9.195312 60.40625 8.96875 60.496094 8.75 C 60.589844 8.535156 60.699219 8.328125 60.832031 8.132812 C 60.964844 7.9375 61.117188 7.753906 61.285156 7.585938 C 61.453125 7.421875 61.636719 7.269531 61.835938 7.140625 C 62.035156 7.011719 62.242188 6.898438 62.464844 6.808594 C 62.683594 6.71875 62.914062 6.652344 63.144531 6.605469 C 63.382812 6.558594 63.617188 6.535156 63.855469 6.535156 C 64.09375 6.535156 64.332031 6.558594 64.566406 6.605469 C 64.796875 6.652344 65.027344 6.71875 65.246094 6.808594 C 65.46875 6.898438 65.675781 7.011719 65.875 7.140625 C 66.074219 7.269531 66.257812 7.421875 66.425781 7.585938 C 66.59375 7.753906 66.746094 7.9375 66.878906 8.132812 C 67.011719 8.328125 67.121094 8.535156 67.214844 8.75 C 67.304688 8.96875 67.375 9.195312 67.421875 9.425781 C 67.46875 9.65625 67.492188 9.890625 67.492188 10.125 Z M 67.492188 10.125 "/>
<path style=" stroke:none;fill-rule:nonzero;fill:rgb(95.686275%,36.470588%,28.235294%);fill-opacity:1;" d="M 20.425781 9.214844 C 20.425781 9.597656 20.386719 9.976562 20.3125 10.351562 C 20.238281 10.726562 20.125 11.09375 19.980469 11.445312 C 19.828125 11.796875 19.648438 12.136719 19.433594 12.453125 C 19.214844 12.769531 18.972656 13.0625 18.699219 13.335938 C 18.425781 13.605469 18.125 13.847656 17.804688 14.0625 C 17.480469 14.273438 17.140625 14.453125 16.785156 14.597656 C 16.425781 14.746094 16.058594 14.855469 15.675781 14.933594 C 15.296875 15.003906 14.914062 15.042969 14.527344 15.042969 C 14.140625 15.042969 13.753906 15.003906 13.375 14.933594 C 12.996094 14.855469 12.625 14.746094 12.269531 14.597656 C 11.910156 14.453125 11.570312 14.273438 11.25 14.0625 C 10.925781 13.847656 10.628906 13.605469 10.355469 13.335938 C 10.082031 13.0625 9.835938 12.769531 9.621094 12.453125 C 9.40625 12.136719 9.222656 11.796875 9.074219 11.445312 C 8.925781 11.09375 8.816406 10.726562 8.738281 10.351562 C 8.664062 9.976562 8.625 9.597656 8.625 9.214844 C 8.625 8.832031 8.664062 8.453125 8.738281 8.078125 C 8.816406 7.703125 8.925781 7.339844 9.074219 6.984375 C 9.222656 6.628906 9.40625 6.296875 9.621094 5.976562 C 9.835938 5.65625 10.082031 5.363281 10.355469 5.09375 C 10.628906 4.824219 10.925781 4.582031 11.25 4.371094 C 11.570312 4.15625 11.910156 3.976562 12.269531 3.828125 C 12.625 3.683594 12.996094 3.570312 13.375 3.5 C 13.753906 3.421875 14.140625 3.386719 14.527344 3.386719 C 14.914062 3.386719 15.296875 3.421875 15.675781 3.5 C 16.058594 3.570312 16.425781 3.683594 16.785156 3.828125 C 17.140625 3.976562 17.480469 4.15625 17.804688 4.371094 C 18.125 4.582031 18.425781 4.824219 18.699219 5.09375 C 18.972656 5.363281 19.214844 5.65625 19.433594 5.976562 C 19.648438 6.296875 19.828125 6.628906 19.980469 6.984375 C 20.125 7.339844 20.238281 7.703125 20.3125 8.078125 C 20.386719 8.453125 20.425781 8.832031 20.425781 9.214844 Z M 26.71875 6.121094 C 26.71875 6.273438 26.703125 6.421875 26.675781 6.574219 C 26.644531 6.722656 26.601562 6.867188 26.539062 7.007812 C 26.480469 7.148438 26.40625 7.285156 26.324219 7.410156 C 26.238281 7.535156 26.140625 7.652344 26.03125 7.761719 C 25.921875 7.867188 25.804688 7.964844 25.675781 8.050781 C 25.546875 8.136719 25.410156 8.207031 25.269531 8.261719 C 25.128906 8.324219 24.980469 8.367188 24.828125 8.394531 C 24.675781 8.425781 24.523438 8.441406 24.371094 8.441406 C 24.214844 8.441406 24.0625 8.425781 23.914062 8.394531 C 23.761719 8.367188 23.613281 8.324219 23.46875 8.261719 C 23.328125 8.207031 23.191406 8.136719 23.066406 8.050781 C 22.9375 7.964844 22.816406 7.867188 22.707031 7.761719 C 22.601562 7.652344 22.5 7.535156 22.417969 7.410156 C 22.332031 7.285156 22.257812 7.148438 22.199219 7.007812 C 22.140625 6.867188 22.097656 6.722656 22.066406 6.574219 C 22.035156 6.421875 22.019531 6.273438 22.019531 6.121094 C 22.019531 5.96875 22.035156 5.816406 22.066406 5.667969 C 22.097656 5.519531 22.140625 5.375 22.199219 5.234375 C 22.257812 5.09375 22.332031 4.957031 22.417969 4.832031 C 22.5 4.707031 22.601562 4.585938 22.707031 4.480469 C 22.816406 4.371094 22.9375 4.277344 23.066406 4.191406 C 23.191406 4.105469 23.328125 4.035156 23.46875 3.976562 C 23.613281 3.917969 23.761719 3.875 23.914062 3.84375 C 24.0625 3.816406 24.214844 3.800781 24.371094 3.800781 C 24.523438 3.800781 24.675781 3.816406 24.828125 3.84375 C 24.980469 3.875 25.128906 3.917969 25.269531 3.976562 C 25.410156 4.035156 25.546875 4.105469 25.675781 4.191406 C 25.804688 4.277344 25.921875 4.371094 26.03125 4.480469 C 26.140625 4.585938 26.238281 4.707031 26.324219 4.832031 C 26.40625 4.957031 26.480469 5.09375 26.539062 5.234375 C 26.601562 5.375 26.644531 5.519531 26.675781 5.667969 C 26.703125 5.816406 26.71875 5.96875 26.71875 6.121094 Z M 48.921875 7.667969 L 46.433594 7.667969 C 46.265625 7.667969 46.152344 7.53125 46.152344 7.390625 L 46.152344 2.5 C 46.152344 2.335938 46.292969 2.226562 46.433594 2.226562 L 48.921875 2.226562 C 49.089844 2.226562 49.203125 2.363281 49.203125 2.5 L 49.203125 7.390625 C 49.203125 7.558594 49.089844 7.667969 48.921875 7.667969 Z M 65.03125 25.289062 L 65.03125 42.113281 L 53.59375 53.410156 L 51.914062 51.726562 L 62.625 41.144531 L 62.625 25.289062 Z M 65.03125 25.289062 "/>
<path style=" stroke:none;fill-rule:nonzero;fill:rgb(95.686275%,36.470588%,28.235294%);fill-opacity:1;" d="M 50.851562 56.644531 L 48.53125 54.351562 C 48.335938 54.160156 48.335938 53.878906 48.53125 53.6875 L 51.605469 50.648438 C 51.804688 50.457031 52.082031 50.457031 52.277344 50.648438 L 54.601562 52.941406 C 54.796875 53.136719 54.796875 53.410156 54.601562 53.605469 L 51.523438 56.644531 C 51.328125 56.835938 51.046875 56.835938 50.851562 56.644531 Z M 65.980469 26.34375 L 61.757812 26.34375 L 61.757812 9.269531 C 61.757812 8.828125 62.121094 8.46875 62.570312 8.46875 L 65.199219 8.46875 C 65.644531 8.46875 66.007812 8.828125 66.007812 9.269531 L 66.007812 26.34375 Z M 65.980469 26.34375 "/>
<path style=" stroke:none;fill-rule:nonzero;fill:rgb(0%,0%,0%);fill-opacity:0.14902;" d="M 13.519531 61.117188 L 10.304688 61.117188 C 10.136719 61.117188 9.996094 60.980469 9.996094 60.8125 L 9.996094 59.792969 C 9.996094 59.625 10.136719 59.488281 10.304688 59.488281 L 13.519531 59.488281 C 13.6875 59.488281 13.828125 59.625 13.828125 59.792969 L 13.828125 60.8125 C 13.828125 60.980469 13.6875 61.117188 13.519531 61.117188 Z M 13.519531 63.6875 L 10.304688 63.6875 C 10.136719 63.6875 9.996094 63.550781 9.996094 63.382812 L 9.996094 62.363281 C 9.996094 62.195312 10.136719 62.054688 10.304688 62.054688 L 13.519531 62.054688 C 13.6875 62.054688 13.828125 62.195312 13.828125 62.363281 L 13.828125 63.382812 C 13.828125 63.550781 13.6875 63.6875 13.519531 63.6875 Z M 69.394531 61.117188 L 66.175781 61.117188 C 66.007812 61.117188 65.871094 60.980469 65.871094 60.8125 L 65.871094 59.792969 C 65.871094 59.625 66.007812 59.488281 66.175781 59.488281 L 69.394531 59.488281 C 69.558594 59.488281 69.703125 59.625 69.703125 59.792969 L 69.703125 60.8125 C 69.703125 60.980469 69.558594 61.117188 69.394531 61.117188 Z M 69.394531 63.6875 L 66.175781 63.6875 C 66.007812 63.6875 65.871094 63.550781 65.871094 63.382812 L 65.871094 62.363281 C 65.871094 62.195312 66.007812 62.054688 66.175781 62.054688 L 69.394531 62.054688 C 69.558594 62.054688 69.703125 62.195312 69.703125 62.363281 L 69.703125 63.382812 C 69.703125 63.550781 69.558594 63.6875 69.394531 63.6875 Z M 61.757812 25.289062 L 65.980469 25.289062 L 65.980469 26.3125 L 61.757812 26.3125 Z M 11.785156 12.832031 L 10.695312 11.757812 C 10.5 11.5625 10.5 11.285156 10.695312 11.09375 L 16.425781 5.429688 C 16.625 5.238281 16.902344 5.238281 17.097656 5.429688 L 18.191406 6.507812 C 18.386719 6.703125 18.386719 6.976562 18.191406 7.171875 L 12.429688 12.832031 C 12.261719 13 11.953125 13 11.785156 12.832031 Z M 25.574219 6.121094 C 25.574219 6.277344 25.542969 6.429688 25.480469 6.574219 C 25.417969 6.71875 25.332031 6.847656 25.222656 6.960938 C 25.109375 7.070312 24.976562 7.15625 24.832031 7.21875 C 24.683594 7.277344 24.53125 7.308594 24.371094 7.308594 C 24.210938 7.308594 24.058594 7.277344 23.910156 7.21875 C 23.761719 7.15625 23.632812 7.070312 23.519531 6.960938 C 23.40625 6.847656 23.320312 6.71875 23.257812 6.574219 C 23.199219 6.429688 23.167969 6.277344 23.167969 6.121094 C 23.167969 5.964844 23.199219 5.8125 23.257812 5.667969 C 23.320312 5.523438 23.40625 5.394531 23.519531 5.28125 C 23.632812 5.171875 23.761719 5.085938 23.910156 5.023438 C 24.058594 4.960938 24.210938 4.933594 24.371094 4.933594 C 24.53125 4.933594 24.683594 4.960938 24.832031 5.023438 C 24.976562 5.085938 25.109375 5.171875 25.222656 5.28125 C 25.332031 5.394531 25.417969 5.523438 25.480469 5.667969 C 25.542969 5.8125 25.574219 5.964844 25.574219 6.121094 Z M 25.574219 6.121094 "/>
</g>
</svg>
