<svg xmlns="http://www.w3.org/2000/svg" xmlns:xlink="http://www.w3.org/1999/xlink" width="100%" zoomAndPan="magnify" viewBox="0 0 375 374.999991" height="100%" preserveAspectRatio="xMidYMid meet" version="1.0"><defs><g/><clipPath id="id1"><path d="M 74.46875 74.46875 L 300.21875 74.46875 L 300.21875 300.21875 L 74.46875 300.21875 Z M 74.46875 74.46875 " clip-rule="nonzero"/></clipPath><clipPath id="id2"><path d="M 145 126.734375 L 221 126.734375 L 221 146 L 145 146 Z M 145 126.734375 " clip-rule="nonzero"/></clipPath><clipPath id="id3"><path d="M 220 159 L 248.234375 159 L 248.234375 237 L 220 237 Z M 220 159 " clip-rule="nonzero"/></clipPath><clipPath id="id4"><path d="M 144 228 L 194 228 L 194 248.234375 L 144 248.234375 Z M 144 228 " clip-rule="nonzero"/></clipPath><clipPath id="id5"><path d="M 126.734375 157 L 138 157 L 138 204 L 126.734375 204 Z M 126.734375 157 " clip-rule="nonzero"/></clipPath></defs><g clip-path="url(#id1)"><path fill="rgb(100%, 100%, 100%)" d="M 293.234375 217.4375 C 290.371094 227.183594 286.003906 236.425781 280.578125 244.941406 C 276.101562 251.867188 271.011719 258.382812 265.292969 264.304688 C 264.550781 265.113281 263.726562 265.835938 262.941406 266.601562 C 262.140625 267.351562 261.367188 268.125 260.550781 268.859375 L 258.070312 271.015625 L 256.832031 272.09375 L 255.542969 273.113281 L 252.976562 275.167969 C 252.105469 275.832031 251.210938 276.460938 250.328125 277.113281 C 248.585938 278.445312 246.734375 279.617188 244.917969 280.851562 C 244.65625 281.027344 244.382812 281.210938 244.097656 281.40625 C 243.800781 281.582031 243.492188 281.765625 243.171875 281.960938 C 242.53125 282.34375 241.84375 282.753906 241.109375 283.191406 C 239.660156 284.101562 237.945312 284.960938 236.09375 285.945312 C 235.628906 286.183594 235.164062 286.445312 234.671875 286.683594 C 234.175781 286.914062 233.671875 287.148438 233.15625 287.386719 C 232.128906 287.859375 231.0625 288.351562 229.960938 288.863281 C 227.707031 289.742188 225.355469 290.800781 222.789062 291.625 C 212.664062 295.292969 200.027344 297.566406 187.34375 297.617188 C 174.660156 297.566406 162.023438 295.292969 151.898438 291.625 C 149.332031 290.800781 146.980469 289.742188 144.722656 288.863281 C 143.625 288.351562 142.558594 287.859375 141.53125 287.386719 C 141.015625 287.148438 140.511719 286.914062 140.015625 286.683594 C 139.523438 286.449219 139.054688 286.183594 138.589844 285.945312 C 136.738281 284.960938 135.023438 284.101562 133.574219 283.191406 C 132.84375 282.753906 132.152344 282.34375 131.511719 281.960938 C 131.195312 281.765625 130.886719 281.582031 130.589844 281.40625 C 130.304688 281.210938 130.027344 281.027344 129.765625 280.851562 C 122.878906 276.335938 116.40625 271.207031 110.519531 265.449219 C 104.316406 259.25 98.890625 252.304688 94.105469 244.941406 C 88.683594 236.425781 84.3125 227.183594 81.449219 217.4375 C 78.472656 207.726562 77.09375 197.535156 77.003906 187.34375 C 77.09375 177.148438 78.472656 166.957031 81.449219 157.246094 C 84.3125 147.503906 88.683594 138.257812 94.105469 129.746094 C 98.582031 122.816406 103.671875 116.304688 109.394531 110.382812 C 110.132812 109.570312 110.960938 108.847656 111.746094 108.085938 C 112.542969 107.335938 113.320312 106.558594 114.132812 105.828125 L 116.613281 103.671875 L 117.855469 102.589844 L 119.140625 101.570312 L 121.707031 99.519531 C 122.578125 98.851562 123.476562 98.222656 124.355469 97.574219 C 126.097656 96.238281 127.953125 95.066406 129.765625 93.832031 C 130.027344 93.65625 130.300781 93.472656 130.589844 93.28125 C 130.882812 93.101562 131.191406 92.917969 131.511719 92.726562 C 132.152344 92.34375 132.839844 91.929688 133.574219 91.492188 C 135.023438 90.582031 136.738281 89.726562 138.589844 88.742188 C 139.054688 88.5 139.523438 88.238281 140.015625 88.003906 C 140.511719 87.773438 141.015625 87.539062 141.527344 87.300781 C 142.558594 86.824219 143.625 86.332031 144.722656 85.824219 C 146.980469 84.941406 149.332031 83.882812 151.894531 83.0625 C 162.023438 79.390625 174.660156 77.121094 187.34375 77.066406 C 200.023438 77.121094 212.664062 79.390625 222.789062 83.0625 C 225.355469 83.882812 227.703125 84.941406 229.960938 85.824219 C 231.0625 86.332031 232.125 86.824219 233.15625 87.300781 C 233.671875 87.539062 234.175781 87.773438 234.671875 88.003906 C 235.160156 88.238281 235.628906 88.5 236.09375 88.742188 C 237.945312 89.722656 239.660156 90.582031 241.109375 91.492188 C 241.84375 91.929688 242.53125 92.34375 243.171875 92.726562 C 243.492188 92.917969 243.800781 93.101562 244.09375 93.28125 C 244.382812 93.472656 244.65625 93.65625 244.917969 93.832031 C 251.808594 98.347656 258.28125 103.476562 264.164062 109.238281 C 270.371094 115.4375 275.792969 122.378906 280.578125 129.742188 C 286.003906 138.257812 290.371094 147.503906 293.234375 157.246094 C 296.214844 166.957031 297.59375 177.148438 297.679688 187.34375 C 297.59375 197.535156 296.214844 207.726562 293.234375 217.4375 Z M 300.214844 187.269531 L 300.214844 187.257812 C 300.121094 176.851562 298.722656 166.4375 295.691406 156.507812 C 292.773438 146.546875 288.308594 137.09375 282.738281 128.410156 L 280.0625 124.386719 C 280.0625 124.386719 279.289062 123.304688 278.128906 121.679688 C 277.011719 120.023438 275.300781 117.984375 273.667969 115.886719 C 271.910156 113.890625 270.222656 111.835938 268.804688 110.433594 C 267.425781 108.992188 266.503906 108.035156 266.503906 108.035156 C 266.503906 108.035156 266.273438 107.796875 265.855469 107.394531 C 265.4375 106.988281 264.839844 106.410156 264.121094 105.71875 C 262.722656 104.296875 260.695312 102.578125 258.703125 100.820312 C 257.683594 99.96875 256.632812 99.15625 255.660156 98.375 C 255.171875 97.988281 254.703125 97.613281 254.253906 97.257812 C 253.792969 96.921875 253.355469 96.609375 252.949219 96.316406 C 251.332031 95.148438 250.253906 94.371094 250.253906 94.371094 C 250.253906 94.371094 250.019531 94.179688 249.640625 93.933594 C 249.265625 93.683594 248.761719 93.347656 248.261719 93.011719 C 247.257812 92.34375 246.257812 91.671875 246.257812 91.671875 C 245.988281 91.488281 245.707031 91.300781 245.417969 91.101562 C 245.113281 90.917969 244.800781 90.730469 244.472656 90.53125 C 243.820312 90.136719 243.113281 89.714844 242.363281 89.265625 C 240.882812 88.332031 239.128906 87.449219 237.238281 86.441406 C 236.761719 86.195312 236.28125 85.925781 235.777344 85.683594 C 235.273438 85.449219 234.757812 85.207031 234.230469 84.960938 C 233.179688 84.476562 232.085938 83.96875 230.960938 83.449219 C 228.652344 82.542969 226.246094 81.460938 223.621094 80.613281 C 213.257812 76.851562 200.320312 74.519531 187.34375 74.46875 C 174.367188 74.519531 161.425781 76.851562 151.0625 80.617188 C 148.4375 81.460938 146.03125 82.542969 143.722656 83.449219 C 142.597656 83.96875 141.507812 84.476562 140.453125 84.964844 C 139.929688 85.207031 139.410156 85.449219 138.90625 85.683594 C 138.402344 85.925781 137.921875 86.195312 137.449219 86.441406 C 135.554688 87.449219 133.800781 88.332031 132.320312 89.265625 C 131.570312 89.714844 130.867188 90.140625 130.210938 90.53125 C 129.886719 90.730469 129.570312 90.921875 129.269531 91.101562 C 128.976562 91.300781 128.695312 91.488281 128.425781 91.671875 C 128.425781 91.671875 127.425781 92.34375 126.421875 93.011719 C 125.921875 93.347656 125.421875 93.683594 125.042969 93.9375 C 124.664062 94.179688 124.429688 94.371094 124.429688 94.371094 C 124.429688 94.371094 123.351562 95.148438 121.734375 96.316406 C 121.332031 96.609375 120.894531 96.921875 120.429688 97.257812 C 119.984375 97.613281 119.511719 97.988281 119.023438 98.375 C 118.054688 99.15625 117.003906 99.96875 115.980469 100.820312 C 113.992188 102.578125 111.960938 104.296875 110.5625 105.71875 C 109.847656 106.410156 109.25 106.988281 108.832031 107.394531 C 108.410156 107.796875 108.179688 108.035156 108.179688 108.035156 C 108.179688 108.035156 107.261719 108.992188 105.882812 110.433594 C 104.460938 111.835938 102.777344 113.890625 101.015625 115.886719 C 99.382812 117.984375 97.671875 120.023438 96.554688 121.679688 C 95.394531 123.304688 94.621094 124.386719 94.621094 124.386719 L 91.945312 128.410156 C 86.378906 137.09375 81.910156 146.546875 78.996094 156.507812 C 75.960938 166.4375 74.5625 176.851562 74.472656 187.257812 L 74.46875 187.269531 L 74.46875 187.417969 L 74.472656 187.425781 C 74.5625 197.835938 75.960938 208.25 78.996094 218.179688 C 81.910156 228.136719 86.378906 237.59375 91.945312 246.277344 L 94.621094 250.296875 C 94.621094 250.296875 95.394531 251.382812 96.554688 253.003906 C 97.671875 254.660156 99.382812 256.703125 101.015625 258.800781 C 102.777344 260.792969 104.460938 262.851562 105.882812 264.253906 C 107.261719 265.691406 108.179688 266.652344 108.179688 266.652344 C 108.179688 266.652344 108.410156 266.890625 108.832031 267.292969 C 109.25 267.695312 109.847656 268.273438 110.5625 268.964844 C 111.960938 270.390625 113.992188 272.105469 115.980469 273.867188 C 117.003906 274.714844 118.054688 275.527344 119.023438 276.308594 C 119.511719 276.699219 119.984375 277.070312 120.429688 277.429688 C 120.894531 277.761719 121.332031 278.078125 121.734375 278.367188 C 123.351562 279.535156 124.429688 280.3125 124.429688 280.3125 C 124.429688 280.3125 124.664062 280.503906 125.042969 280.75 C 125.421875 281 125.921875 281.335938 126.421875 281.671875 C 127.425781 282.34375 128.429688 283.015625 128.429688 283.015625 C 128.695312 283.195312 128.976562 283.386719 129.269531 283.582031 C 129.570312 283.765625 129.886719 283.957031 130.210938 284.152344 C 130.867188 284.546875 131.570312 284.96875 132.320312 285.417969 C 133.800781 286.351562 135.554688 287.234375 137.449219 288.242188 C 137.925781 288.488281 138.402344 288.757812 138.90625 289 C 139.414062 289.238281 139.929688 289.476562 140.453125 289.722656 C 141.507812 290.210938 142.597656 290.714844 143.722656 291.238281 C 146.03125 292.144531 148.4375 293.226562 151.0625 294.070312 C 161.425781 297.835938 174.367188 300.164062 187.34375 300.21875 C 200.320312 300.164062 213.257812 297.835938 223.625 294.070312 C 226.246094 293.226562 228.65625 292.144531 230.960938 291.238281 C 232.089844 290.714844 233.179688 290.210938 234.230469 289.722656 C 234.757812 289.476562 235.273438 289.234375 235.78125 289 C 236.285156 288.757812 236.761719 288.488281 237.238281 288.242188 C 239.132812 287.234375 240.882812 286.351562 242.367188 285.417969 C 243.113281 284.96875 243.820312 284.546875 244.472656 284.152344 C 244.800781 283.957031 245.117188 283.765625 245.417969 283.582031 C 245.710938 283.382812 245.988281 283.195312 246.257812 283.015625 C 246.257812 283.015625 247.257812 282.34375 248.261719 281.671875 C 248.765625 281.335938 249.265625 281 249.640625 280.75 C 250.019531 280.503906 250.253906 280.3125 250.253906 280.3125 C 250.253906 280.3125 251.332031 279.535156 252.949219 278.367188 C 253.355469 278.078125 253.792969 277.761719 254.253906 277.429688 C 254.703125 277.070312 255.171875 276.699219 255.660156 276.308594 C 256.632812 275.527344 257.683594 274.714844 258.703125 273.867188 C 260.695312 272.105469 262.722656 270.390625 264.121094 268.964844 C 264.839844 268.273438 265.4375 267.695312 265.855469 267.292969 C 266.273438 266.890625 266.503906 266.652344 266.503906 266.652344 C 266.503906 266.652344 267.425781 265.691406 268.804688 264.253906 C 270.222656 262.851562 271.910156 260.792969 273.667969 258.800781 C 275.300781 256.703125 277.011719 254.660156 278.128906 253.003906 C 279.289062 251.378906 280.0625 250.296875 280.0625 250.296875 L 282.738281 246.277344 C 288.308594 237.59375 292.773438 228.136719 295.691406 218.179688 C 298.722656 208.246094 300.121094 197.832031 300.214844 187.425781 L 300.214844 187.417969 L 300.21875 187.34375 L 300.214844 187.269531 " fill-opacity="1" fill-rule="nonzero"/></g><path fill="rgb(100%, 100%, 100%)" d="M 187.664062 112.664062 C 146.242188 112.664062 112.664062 146.242188 112.664062 187.664062 C 112.664062 229.085938 146.242188 262.664062 187.664062 262.664062 C 229.085938 262.664062 262.664062 229.085938 262.664062 187.664062 C 262.664062 146.242188 229.085938 112.664062 187.664062 112.664062 " fill-opacity="1" fill-rule="nonzero"/><g fill="rgb(100%, 100%, 100%)" fill-opacity="1"><g transform="translate(125.17389, 129.746097)"><g><path d="M -1.5 -20.847656 C -1.257812 -20.566406 -0.988281 -20.582031 -0.601562 -20.703125 L -0.078125 -20.921875 C 0.746094 -21.1875 1.152344 -20.925781 1.484375 -20.121094 L 5.511719 -10.261719 L -3.996094 -15.875 C -4.675781 -16.28125 -4.804688 -16.601562 -4.585938 -17.019531 L -4.238281 -17.550781 C -4.039062 -17.9375 -4.019531 -18.21875 -4.246094 -18.484375 C -4.542969 -18.824219 -4.9375 -18.84375 -5.429688 -18.417969 L -10.410156 -14.128906 C -10.894531 -13.710938 -10.941406 -13.308594 -10.648438 -12.964844 C -10.433594 -12.71875 -10.140625 -12.644531 -9.777344 -12.742188 L -9.339844 -12.886719 C -8.917969 -13.007812 -8.644531 -12.976562 -8.125 -12.664062 L 3.257812 -6.023438 C 3.65625 -5.789062 3.976562 -5.589844 4.15625 -5.382812 L 4.566406 -4.90625 C 4.882812 -4.539062 5.265625 -4.535156 5.59375 -4.824219 L 8.492188 -7.320312 C 8.8125 -7.597656 8.878906 -8 8.59375 -8.332031 L 8.179688 -8.8125 C 7.902344 -9.136719 7.746094 -9.449219 7.453125 -10.152344 L 2.925781 -21.167969 C 2.472656 -22.230469 2.449219 -22.753906 2.714844 -23.328125 L 2.914062 -23.730469 C 3.113281 -24.148438 3.113281 -24.398438 2.894531 -24.652344 C 2.605469 -24.984375 2.210938 -25.003906 1.726562 -24.589844 L -1.273438 -22.003906 C -1.757812 -21.585938 -1.796875 -21.191406 -1.5 -20.847656 Z M -1.5 -20.847656 "/></g></g></g><g fill="rgb(100%, 100%, 100%)" fill-opacity="1"><g transform="translate(140.254794, 117.425715)"><g><path d="M -3.605469 -13.886719 C -2.222656 -14.71875 -1.777344 -15.964844 -2.453125 -17.089844 C -3.121094 -18.203125 -4.425781 -18.382812 -5.804688 -17.550781 C -7.1875 -16.722656 -7.632812 -15.492188 -6.960938 -14.378906 C -6.285156 -13.253906 -4.988281 -13.058594 -3.605469 -13.886719 Z M -0.199219 -13.046875 C -0.496094 -13.539062 -0.988281 -13.710938 -1.578125 -13.355469 C -1.867188 -13.179688 -2.152344 -12.878906 -2.671875 -12.214844 L -4.351562 -10.085938 C -4.699219 -9.644531 -4.746094 -9.425781 -4.566406 -9.125 C -4.417969 -8.878906 -4.207031 -8.800781 -3.878906 -8.882812 L -3.449219 -9.066406 C -3.152344 -9.15625 -2.964844 -9.082031 -2.710938 -8.664062 L 0.636719 -3.09375 C 0.945312 -2.578125 0.949219 -2.351562 0.773438 -2.113281 L 0.503906 -1.804688 C 0.28125 -1.496094 0.257812 -1.246094 0.410156 -0.992188 C 0.617188 -0.648438 0.953125 -0.574219 1.445312 -0.867188 L 6 -3.605469 C 6.480469 -3.894531 6.585938 -4.234375 6.378906 -4.574219 C 6.222656 -4.832031 5.992188 -4.925781 5.605469 -4.867188 L 5.230469 -4.789062 C 4.929688 -4.726562 4.726562 -4.851562 4.410156 -5.375 Z M -0.199219 -13.046875 "/></g></g></g><g fill="rgb(100%, 100%, 100%)" fill-opacity="1"><g transform="translate(148.265358, 112.329831)"><g><path d="M 1.886719 -12.910156 C 1.671875 -13.445312 1.210938 -13.691406 0.621094 -13.453125 C 0.226562 -13.296875 -0.09375 -13.019531 -0.6875 -12.488281 L -2.6875 -10.648438 C -3.101562 -10.269531 -3.179688 -10.0625 -3.050781 -9.738281 C -2.941406 -9.472656 -2.75 -9.359375 -2.410156 -9.386719 L -1.957031 -9.5 C -1.652344 -9.542969 -1.476562 -9.4375 -1.292969 -8.988281 L 1.121094 -2.953125 C 1.34375 -2.394531 1.3125 -2.167969 1.101562 -1.960938 L 0.785156 -1.703125 C 0.515625 -1.433594 0.453125 -1.191406 0.5625 -0.914062 C 0.710938 -0.539062 1.03125 -0.414062 1.566406 -0.628906 L 6.371094 -2.550781 C 6.914062 -2.769531 7.058594 -3.082031 6.898438 -3.488281 C 6.789062 -3.753906 6.609375 -3.871094 6.304688 -3.894531 L 5.925781 -3.894531 C 5.613281 -3.902344 5.441406 -4.035156 5.210938 -4.601562 L 2.835938 -10.542969 L 2.867188 -10.597656 C 3.273438 -11.394531 3.875 -11.945312 4.480469 -12.1875 C 5.453125 -12.574219 6.28125 -12.222656 6.75 -11.050781 L 8.757812 -6.035156 C 8.984375 -5.46875 8.957031 -5.238281 8.734375 -5.015625 L 8.449219 -4.753906 C 8.246094 -4.523438 8.195312 -4.316406 8.300781 -4.050781 C 8.464844 -3.644531 8.785156 -3.515625 9.328125 -3.734375 L 14.144531 -5.660156 C 14.667969 -5.871094 14.8125 -6.183594 14.664062 -6.554688 C 14.550781 -6.832031 14.347656 -6.96875 13.957031 -6.972656 L 13.585938 -6.957031 C 13.28125 -6.945312 13.082031 -7.105469 12.855469 -7.675781 L 10.609375 -13.28125 C 9.742188 -15.449219 7.792969 -16.351562 5.761719 -15.539062 C 4.578125 -15.066406 3.496094 -14 2.347656 -11.761719 Z M 1.886719 -12.910156 "/></g></g></g><g fill="rgb(100%, 100%, 100%)" fill-opacity="1"><g transform="translate(164.501269, 106.012865)"><g><path d="M 6.953125 0.242188 C 6.453125 2.457031 6.140625 2.808594 5.625 2.90625 C 5.265625 2.976562 4.890625 2.726562 4.597656 2.199219 L 4.289062 1.710938 C 3.726562 0.8125 3.164062 0.253906 2.15625 0.445312 C 1.136719 0.636719 0.628906 1.507812 0.859375 2.726562 C 1.179688 4.433594 2.761719 5.46875 4.921875 5.0625 C 7.097656 4.652344 7.867188 3.539062 8.710938 -0.550781 L 10.898438 -11.265625 C 11.121094 -12.324219 11.390625 -12.707031 12 -13.113281 C 12.347656 -13.355469 12.457031 -13.59375 12.410156 -13.851562 C 12.335938 -14.246094 11.984375 -14.417969 11.503906 -14.328125 L 8.027344 -13.671875 C 7.5625 -13.585938 7.300781 -13.292969 7.375 -12.902344 C 7.429688 -12.59375 7.644531 -12.40625 8.0625 -12.355469 L 8.539062 -12.320312 C 9.289062 -12.257812 9.484375 -11.824219 9.269531 -10.742188 L 8.117188 -4.902344 L 4.652344 -10.074219 C 4.015625 -11.007812 4.078125 -11.363281 4.742188 -11.679688 L 5.117188 -11.839844 C 5.492188 -12.023438 5.613281 -12.25 5.554688 -12.558594 C 5.480469 -12.953125 5.140625 -13.128906 4.664062 -13.039062 L -1.390625 -11.898438 C -1.871094 -11.808594 -2.132812 -11.515625 -2.058594 -11.121094 C -2 -10.816406 -1.832031 -10.65625 -1.488281 -10.582031 C -0.910156 -10.488281 -0.660156 -10.382812 -0.261719 -9.820312 L 6.96875 0.199219 Z M 6.953125 0.242188 "/></g></g></g><g fill="rgb(100%, 100%, 100%)" fill-opacity="1"><g transform="translate(180.179112, 103.386123)"><g><path d="M 5.90625 -17.984375 C 5.886719 -18.546875 5.53125 -18.933594 4.847656 -18.910156 C 4.507812 -18.898438 4.113281 -18.785156 3.335938 -18.457031 L 0.835938 -17.402344 C 0.320312 -17.183594 0.175781 -17.003906 0.1875 -16.664062 C 0.199219 -16.378906 0.339844 -16.195312 0.667969 -16.121094 L 1.132812 -16.074219 C 1.4375 -16.011719 1.566406 -15.851562 1.585938 -15.367188 L 2.050781 -2.398438 C 2.074219 -1.800781 1.96875 -1.597656 1.699219 -1.472656 L 1.316406 -1.335938 C 0.972656 -1.171875 0.828125 -0.96875 0.839844 -0.667969 C 0.851562 -0.269531 1.113281 -0.0390625 1.6875 -0.0625 L 6.996094 -0.253906 C 7.558594 -0.273438 7.8125 -0.519531 7.796875 -0.917969 C 7.785156 -1.21875 7.628906 -1.414062 7.261719 -1.550781 L 6.894531 -1.660156 C 6.601562 -1.75 6.484375 -1.960938 6.460938 -2.570312 Z M 5.90625 -17.984375 "/></g></g></g><g fill="rgb(100%, 100%, 100%)" fill-opacity="1"><g transform="translate(196.672269, 103.174989)"><g><path d="M 18.53125 -0.195312 C 18.980469 -2.234375 17.535156 -4.15625 14.824219 -5.253906 C 17.3125 -5.332031 18.90625 -6.527344 19.320312 -8.394531 C 19.984375 -11.382812 17.671875 -14.007812 13.035156 -15.035156 L 5.871094 -16.621094 C 5.25 -16.761719 4.910156 -16.554688 4.8125 -16.113281 C 4.730469 -15.75 4.84375 -15.453125 5.214844 -15.21875 L 5.765625 -14.929688 C 6.136719 -14.707031 6.292969 -14.417969 6.207031 -14.039062 L 3.484375 -1.738281 C 3.398438 -1.359375 3.136719 -1.160156 2.707031 -1.117188 L 2.085938 -1.085938 C 1.648438 -1.03125 1.421875 -0.8125 1.339844 -0.445312 C 1.242188 -0.0078125 1.464844 0.324219 2.085938 0.460938 L 11.238281 2.488281 C 15.535156 3.441406 17.988281 2.242188 18.53125 -0.195312 Z M 11.902344 -13.851562 C 14.292969 -13.324219 15.324219 -11.507812 14.796875 -9.128906 C 14.300781 -6.882812 12.988281 -5.996094 11 -6.433594 L 9.5625 -6.753906 L 11.167969 -14.015625 Z M 11.191406 -5.152344 C 13.351562 -4.671875 14.285156 -3.238281 13.875 -1.382812 C 13.476562 0.414062 12.25 1.28125 10.480469 0.886719 L 9.527344 0.675781 C 8.527344 0.453125 8.085938 -0.0898438 8.285156 -0.992188 L 9.300781 -5.570312 Z M 11.191406 -5.152344 "/></g></g></g><g fill="rgb(100%, 100%, 100%)" fill-opacity="1"><g transform="translate(215.439527, 107.655327)"><g><path d="M 14.882812 -1.625 C 16.011719 -4.171875 15.019531 -6.785156 11.730469 -8.242188 C 7.902344 -9.9375 4.578125 -8.484375 2.984375 -4.882812 C 1.519531 -1.582031 3.058594 1.710938 6.472656 3.222656 C 9.511719 4.570312 12.386719 3.792969 13.320312 1.8125 C 13.484375 1.433594 13.503906 1.085938 13.230469 0.964844 C 13.023438 0.875 12.828125 0.910156 12.3125 1.09375 C 11.265625 1.628906 10.191406 1.589844 9.015625 1.066406 C 7.152344 0.242188 6.269531 -1.285156 6.785156 -3.433594 L 12.691406 -0.816406 C 13.675781 -0.382812 14.460938 -0.675781 14.882812 -1.625 Z M 7.238281 -4.765625 C 8.152344 -6.832031 9.453125 -7.582031 10.5625 -7.089844 C 11.546875 -6.65625 11.785156 -5.46875 10.921875 -3.515625 C 10.742188 -3.117188 10.476562 -3.042969 10.066406 -3.222656 L 7.128906 -4.523438 C 7.160156 -4.59375 7.199219 -4.683594 7.238281 -4.765625 Z M 7.238281 -4.765625 "/></g></g></g><g fill="rgb(100%, 100%, 100%)" fill-opacity="1"><g transform="translate(228.802161, 113.621188)"><g><path d="M 2.210938 -1.6875 C 1.238281 -0.25 1.816406 1.621094 3.691406 2.886719 C 4.933594 3.726562 6.429688 4.105469 7.714844 3.828125 C 7.449219 4.734375 7.976562 5.785156 9.15625 6.582031 C 10.84375 7.726562 12.460938 7.234375 13.007812 6.425781 C 13.160156 6.199219 13.1875 5.957031 12.980469 5.820312 C 12.84375 5.726562 12.707031 5.753906 12.558594 5.792969 C 12.34375 5.84375 12.117188 5.929688 11.847656 5.75 C 11.558594 5.554688 11.546875 5.257812 11.765625 4.9375 L 15.257812 -0.230469 C 16.476562 -2.03125 15.925781 -4.050781 13.191406 -5.898438 C 9.753906 -8.222656 6.984375 -7.875 6.082031 -6.539062 C 5.519531 -5.710938 5.703125 -4.863281 6.78125 -4.136719 C 8.011719 -3.304688 9.101562 -3.398438 9.773438 -4.390625 L 10.464844 -5.414062 C 10.734375 -5.808594 11.3125 -5.839844 11.902344 -5.441406 C 12.59375 -4.972656 12.703125 -4.238281 12.199219 -3.492188 L 10.144531 -0.457031 C 9.828125 -0.808594 9.40625 -1.167969 8.867188 -1.535156 C 5.9375 -3.515625 3.4375 -3.5 2.210938 -1.6875 Z M 6.347656 0.1875 C 6.984375 -0.753906 7.894531 -0.921875 8.808594 -0.304688 C 9.117188 -0.0976562 9.351562 0.136719 9.558594 0.414062 L 7.878906 2.898438 C 7.445312 2.890625 6.988281 2.761719 6.613281 2.511719 C 5.871094 2.007812 5.695312 1.148438 6.347656 0.1875 Z M 6.347656 0.1875 "/></g></g></g><g fill="rgb(100%, 100%, 100%)" fill-opacity="1"><g transform="translate(241.607493, 122.582635)"><g><path d="M 8.21875 -6.71875 C 8.40625 -6.332031 8.40625 -6.09375 8.089844 -5.757812 L 3.671875 -1.058594 C 2.019531 0.699219 2.242188 2.523438 4.019531 4.191406 C 5.777344 5.84375 8.078125 5.96875 9.296875 4.675781 C 9.621094 4.328125 9.613281 4.0625 9.402344 3.867188 C 8.882812 3.378906 7.988281 4.441406 7.085938 3.59375 C 6.496094 3.035156 6.59375 2.273438 7.417969 1.398438 L 11.785156 -3.246094 L 13.09375 -2.011719 C 13.960938 -1.199219 14.605469 -1.15625 14.976562 -1.550781 C 15.222656 -1.8125 15.152344 -2.15625 14.824219 -2.464844 L 12.820312 -4.347656 L 14.515625 -6.152344 C 14.867188 -6.523438 14.871094 -6.894531 14.570312 -7.179688 C 14.289062 -7.445312 13.851562 -7.546875 13.183594 -7.488281 L 10.59375 -7.195312 C 10.046875 -7.144531 9.777344 -7.207031 9.523438 -7.445312 L 8.996094 -7.945312 C 8.660156 -8.261719 8.292969 -8.3125 8.011719 -8.011719 C 7.804688 -7.792969 7.796875 -7.527344 7.984375 -7.160156 Z M 8.21875 -6.71875 "/></g></g></g><path fill="rgb(0%, 37.649536%, 61.959839%)" d="M 230.308594 212.21875 C 230.015625 212.21875 229.71875 212.148438 229.445312 212 C 228.558594 211.523438 228.222656 210.417969 228.699219 209.53125 C 232.308594 202.796875 234.21875 195.171875 234.21875 187.480469 C 234.21875 165.558594 219.316406 146.828125 197.980469 141.9375 C 197 141.710938 196.386719 140.730469 196.609375 139.75 C 196.835938 138.765625 197.816406 138.152344 198.796875 138.378906 C 209.726562 140.886719 219.644531 147.097656 226.722656 155.878906 C 230.257812 160.261719 233.011719 165.15625 234.910156 170.433594 C 236.871094 175.890625 237.867188 181.628906 237.867188 187.480469 C 237.867188 195.773438 235.808594 203.992188 231.917969 211.253906 C 231.585938 211.867188 230.957031 212.21875 230.308594 212.21875 " fill-opacity="1" fill-rule="nonzero"/><path fill="rgb(0%, 37.649536%, 61.959839%)" d="M 187.492188 237.855469 C 182.320312 237.855469 177.21875 237.078125 172.332031 235.535156 C 171.371094 235.234375 170.835938 234.207031 171.140625 233.246094 C 171.441406 232.285156 172.46875 231.753906 173.429688 232.054688 C 177.960938 233.484375 182.691406 234.207031 187.492188 234.207031 C 197.566406 234.207031 207.160156 231.050781 215.238281 225.082031 C 216.050781 224.480469 217.191406 224.652344 217.789062 225.464844 C 218.390625 226.273438 218.21875 227.417969 217.410156 228.015625 C 208.699219 234.453125 198.355469 237.855469 187.492188 237.855469 " fill-opacity="1" fill-rule="nonzero"/><path fill="rgb(0%, 37.649536%, 61.959839%)" d="M 147.746094 217.195312 C 147.171875 217.195312 146.605469 216.925781 146.253906 216.421875 C 140.273438 207.917969 137.117188 197.910156 137.117188 187.480469 C 137.117188 175.550781 141.359375 163.980469 149.066406 154.898438 C 156.6875 145.921875 167.234375 139.871094 178.769531 137.855469 C 179.765625 137.683594 180.707031 138.347656 180.882812 139.339844 C 181.054688 140.332031 180.390625 141.277344 179.398438 141.453125 C 157.011719 145.359375 140.765625 164.71875 140.765625 187.480469 C 140.765625 197.15625 143.695312 206.4375 149.238281 214.320312 C 149.816406 215.144531 149.617188 216.285156 148.792969 216.863281 C 148.476562 217.085938 148.109375 217.195312 147.746094 217.195312 " fill-opacity="1" fill-rule="nonzero"/><g clip-path="url(#id2)"><path fill="rgb(0%, 37.649536%, 61.959839%)" d="M 147.605469 145.929688 C 147.113281 145.929688 146.625 145.730469 146.261719 145.339844 C 145.582031 144.597656 145.628906 143.445312 146.371094 142.761719 C 157.609375 132.421875 172.210938 126.730469 187.492188 126.730469 C 198.996094 126.730469 210.191406 129.960938 219.875 136.070312 C 220.726562 136.609375 220.980469 137.734375 220.445312 138.589844 C 219.90625 139.441406 218.777344 139.695312 217.925781 139.15625 C 208.828125 133.414062 198.304688 130.378906 187.492188 130.378906 C 173.128906 130.378906 159.402344 135.730469 148.84375 145.449219 C 148.492188 145.769531 148.046875 145.929688 147.605469 145.929688 " fill-opacity="1" fill-rule="nonzero"/></g><g clip-path="url(#id3)"><path fill="rgb(0%, 37.649536%, 61.959839%)" d="M 222.367188 236.808594 C 221.808594 236.808594 221.253906 236.550781 220.894531 236.0625 C 220.300781 235.253906 220.472656 234.109375 221.285156 233.511719 C 235.878906 222.78125 244.59375 205.570312 244.59375 187.480469 C 244.59375 178.605469 242.613281 170.101562 238.710938 162.207031 C 238.261719 161.304688 238.632812 160.210938 239.535156 159.761719 C 240.441406 159.316406 241.535156 159.6875 241.980469 160.589844 C 246.136719 168.992188 248.242188 178.039062 248.242188 187.480469 C 248.242188 197.167969 245.90625 206.808594 241.480469 215.355469 C 237.203125 223.628906 230.96875 230.921875 223.445312 236.453125 C 223.121094 236.691406 222.742188 236.808594 222.367188 236.808594 " fill-opacity="1" fill-rule="nonzero"/></g><g clip-path="url(#id4)"><path fill="rgb(0%, 37.649536%, 61.959839%)" d="M 187.492188 248.230469 C 171.707031 248.230469 156.753906 242.207031 145.382812 231.269531 C 144.65625 230.570312 144.632812 229.414062 145.332031 228.6875 C 146.03125 227.960938 147.183594 227.941406 147.910156 228.636719 C 158.601562 238.921875 172.65625 244.582031 187.492188 244.582031 C 188.765625 244.582031 190.054688 244.539062 191.324219 244.457031 C 192.328125 244.386719 193.195312 245.148438 193.261719 246.15625 C 193.332031 247.160156 192.570312 248.03125 191.5625 248.097656 C 190.214844 248.1875 188.847656 248.230469 187.492188 248.230469 " fill-opacity="1" fill-rule="nonzero"/></g><g clip-path="url(#id5)"><path fill="rgb(0%, 37.649536%, 61.959839%)" d="M 130.230469 203.28125 C 129.410156 203.28125 128.664062 202.722656 128.460938 201.886719 C 127.320312 197.199219 126.742188 192.351562 126.742188 187.480469 C 126.742188 177.332031 129.292969 167.289062 134.121094 158.4375 C 134.605469 157.550781 135.710938 157.226562 136.597656 157.707031 C 137.480469 158.191406 137.808594 159.300781 137.324219 160.183594 C 132.789062 168.503906 130.390625 177.941406 130.390625 187.480469 C 130.390625 192.0625 130.933594 196.617188 132.003906 201.027344 C 132.242188 202.003906 131.644531 202.992188 130.664062 203.230469 C 130.519531 203.265625 130.375 203.28125 130.230469 203.28125 " fill-opacity="1" fill-rule="nonzero"/></g><path fill="rgb(0%, 37.649536%, 61.959839%)" d="M 211.925781 211.898438 C 208.753906 215.070312 205.058594 217.5625 200.941406 219.304688 C 196.679688 221.105469 192.15625 222.019531 187.492188 222.019531 C 182.828125 222.019531 178.300781 221.105469 174.039062 219.304688 C 169.925781 217.5625 166.230469 215.070312 163.054688 211.898438 C 159.882812 208.726562 157.390625 205.03125 155.652344 200.914062 C 153.847656 196.652344 152.933594 192.128906 152.933594 187.464844 C 152.933594 182.800781 153.847656 178.273438 155.652344 174.011719 C 157.390625 169.898438 159.882812 166.199219 163.054688 163.027344 C 166.230469 159.855469 169.925781 157.363281 174.039062 155.625 C 177.835938 154.015625 181.84375 153.117188 185.972656 152.941406 L 185.972656 157.644531 C 170.210938 158.4375 157.632812 171.507812 157.632812 187.464844 C 157.632812 203.980469 171.113281 217.410156 187.652344 217.324219 C 204.101562 217.238281 217.351562 203.914062 217.351562 187.464844 C 217.351562 187.277344 217.347656 187.085938 217.347656 186.898438 C 217.167969 177.382812 210.765625 169.058594 201.566406 166.609375 C 199.015625 165.933594 196.84375 165.773438 195.367188 165.769531 L 195.367188 188.574219 C 195.378906 190.308594 194.753906 192.171875 193.511719 194.023438 C 191.804688 196.570312 189.050781 198.886719 185.757812 200.542969 C 182.71875 202.070312 179.5 202.894531 176.613281 202.894531 C 176.375 202.894531 176.136719 202.890625 175.902344 202.878906 C 172.351562 202.707031 169.71875 201.261719 168.488281 198.8125 C 167.257812 196.363281 167.667969 193.390625 169.648438 190.4375 C 171.355469 187.890625 174.109375 185.574219 177.402344 183.921875 C 180.691406 182.265625 184.195312 181.4375 187.257812 181.582031 C 188.519531 181.644531 189.664062 181.867188 190.671875 182.238281 L 190.671875 153.050781 C 194.210938 153.371094 197.65625 154.234375 200.941406 155.625 C 205.058594 157.363281 208.753906 159.855469 211.925781 163.027344 C 215.101562 166.199219 217.589844 169.898438 219.332031 174.011719 C 221.136719 178.273438 222.050781 182.800781 222.050781 187.464844 C 222.050781 192.128906 221.136719 196.652344 219.332031 200.914062 C 217.589844 205.03125 215.101562 208.726562 211.925781 211.898438 Z M 187.492188 147.53125 C 165.425781 147.53125 147.539062 165.417969 147.539062 187.480469 C 147.539062 209.542969 165.425781 227.429688 187.492188 227.429688 C 209.554688 227.429688 227.441406 209.542969 227.441406 187.480469 C 227.441406 165.417969 209.554688 147.53125 187.492188 147.53125 " fill-opacity="1" fill-rule="nonzero"/><g fill="rgb(100%, 100%, 100%)" fill-opacity="1"><g transform="translate(121.833133, 260.362006)"><g><path d="M 7.535156 0.585938 L 9.699219 2.914062 C 7.804688 4.527344 5.699219 4.65625 3.871094 3.230469 C 1.601562 1.457031 1.484375 -1.023438 3.503906 -3.605469 C 5.535156 -6.203125 7.957031 -6.671875 10.226562 -4.898438 C 12.050781 -3.46875 12.445312 -1.410156 11.324219 0.835938 L 8.542969 -0.703125 C 9.023438 -1.574219 9.003906 -2.300781 8.515625 -2.679688 C 7.855469 -3.199219 6.960938 -2.832031 6.023438 -1.636719 C 5.101562 -0.453125 4.960938 0.503906 5.621094 1.019531 C 6.140625 1.425781 6.820312 1.273438 7.535156 0.585938 Z M 7.535156 0.585938 "/></g></g></g><g fill="rgb(100%, 100%, 100%)" fill-opacity="1"><g transform="translate(131.339304, 267.643866)"><g><path d="M 5.738281 -8.214844 L 2.890625 -3.507812 C 1.359375 -0.976562 1.816406 1.285156 4.195312 2.722656 C 6.574219 4.160156 8.804688 3.523438 10.335938 0.992188 L 13.179688 -3.714844 L 10.390625 -5.398438 L 7.546875 -0.695312 C 6.933594 0.316406 6.269531 0.683594 5.671875 0.320312 C 5.054688 -0.0507812 5.054688 -0.824219 5.664062 -1.832031 L 8.507812 -6.539062 Z M 5.738281 -8.214844 "/></g></g></g><g fill="rgb(100%, 100%, 100%)" fill-opacity="1"><g transform="translate(141.682487, 273.751414)"><g><path d="M 9.265625 -0.550781 C 10.15625 -0.722656 10.863281 -1.320312 11.324219 -2.34375 C 12.164062 -4.199219 11.511719 -5.769531 9.527344 -6.664062 L 4.71875 -8.839844 L 0.601562 0.273438 L 3.554688 1.605469 L 5.035156 -1.675781 L 6.128906 -1.179688 C 6.800781 -0.722656 6.976562 -0.0507812 6.625 0.734375 L 5.777344 2.609375 L 8.472656 3.828125 L 9.148438 2.332031 C 9.640625 1.242188 9.671875 0.246094 9.265625 -0.550781 Z M 7.480469 -3.203125 L 6.023438 -3.859375 L 6.640625 -5.226562 L 8.097656 -4.570312 C 8.644531 -4.320312 8.863281 -3.9375 8.660156 -3.480469 C 8.46875 -3.0625 8.027344 -2.957031 7.480469 -3.203125 Z M 7.480469 -3.203125 "/></g></g></g><g fill="rgb(100%, 100%, 100%)" fill-opacity="1"><g transform="translate(152.603401, 278.582846)"><g><path d="M 7.289062 0.726562 L 7.355469 2.273438 L 10.371094 3.207031 L 9.789062 -7.4375 L 6.65625 -8.40625 L 0.132812 0.0429688 L 3.132812 0.96875 L 4.078125 -0.265625 Z M 7.15625 -1.828125 L 5.628906 -2.300781 L 7.21875 -4.675781 Z M 7.15625 -1.828125 "/></g></g></g><g fill="rgb(100%, 100%, 100%)" fill-opacity="1"><g transform="translate(165.086288, 282.271946)"><g><path d="M 10.390625 -5.46875 L 10.878906 -8.226562 L 2.316406 -9.742188 L 1.828125 -6.984375 L 4.523438 -6.507812 L 3.269531 0.578125 L 6.457031 1.144531 L 7.710938 -5.941406 Z M 10.390625 -5.46875 "/></g></g></g><g fill="rgb(100%, 100%, 100%)" fill-opacity="1"><g transform="translate(176.769641, 284.201313)"><g><path d="M 4.351562 -7.242188 L 8.761719 -6.972656 L 8.914062 -9.464844 L 1.273438 -9.9375 L 0.660156 0.0390625 L 8.300781 0.511719 L 8.453125 -1.984375 L 4.042969 -2.253906 L 4.125 -3.550781 L 8.535156 -3.28125 L 8.683594 -5.675781 L 4.273438 -5.945312 Z M 4.351562 -7.242188 "/></g></g></g><g fill="rgb(100%, 100%, 100%)" fill-opacity="1"><g transform="translate(187.718497, 284.78674)"><g><path d="M 4.128906 -10.226562 L 0.136719 -10.015625 L 0.660156 -0.0351562 L 4.652344 -0.242188 C 7.648438 -0.402344 9.25 -2.285156 9.082031 -5.480469 C 8.914062 -8.675781 7.125 -10.382812 4.128906 -10.226562 Z M 4.703125 -3.050781 L 3.746094 -3 L 3.515625 -7.390625 L 4.472656 -7.441406 C 5.292969 -7.484375 5.8125 -6.730469 5.886719 -5.3125 C 5.960938 -3.917969 5.523438 -3.09375 4.703125 -3.050781 Z M 4.703125 -3.050781 "/></g></g></g><g fill="rgb(100%, 100%, 100%)" fill-opacity="1"><g transform="translate(203.922056, 283.484746)"><g><path d="M 11.355469 -2.621094 L 9.109375 -12.363281 L 6.285156 -11.710938 L 4.925781 -6.042969 L 1.21875 -10.539062 L -1.605469 -9.886719 L 0.644531 -0.148438 L 3.796875 -0.878906 L 2.894531 -4.792969 L 5.132812 -2.292969 L 6.378906 -2.582031 L 7.277344 -5.804688 L 8.183594 -1.890625 Z M 11.355469 -2.621094 "/></g></g></g><g fill="rgb(100%, 100%, 100%)" fill-opacity="1"><g transform="translate(217.878656, 280.042281)"><g><path d="M -2.894531 -9.589844 L -0.960938 -4.445312 C 0.078125 -1.671875 2.132812 -0.628906 4.734375 -1.605469 C 7.335938 -2.582031 8.21875 -4.726562 7.179688 -7.5 L 5.25 -12.644531 L 2.195312 -11.5 L 4.128906 -6.355469 C 4.542969 -5.25 4.417969 -4.5 3.765625 -4.253906 C 3.089844 -4 2.484375 -4.476562 2.070312 -5.582031 L 0.136719 -10.730469 Z M -2.894531 -9.589844 "/></g></g></g><g fill="rgb(100%, 100%, 100%)" fill-opacity="1"><g transform="translate(229.09197, 275.709927)"><g><path d="M 4.570312 -2.222656 C 2.574219 -1.160156 0.65625 -1.378906 -0.726562 -2.824219 L 1.300781 -4.6875 C 1.855469 -4.144531 2.617188 -4.066406 3.394531 -4.472656 C 4.265625 -4.925781 4.660156 -5.378906 4.476562 -5.734375 C 3.941406 -6.761719 -1.363281 -3.484375 -2.914062 -6.460938 C -3.816406 -8.199219 -2.863281 -9.960938 -0.238281 -11.324219 C 1.78125 -12.378906 3.699219 -12.160156 5.066406 -10.707031 L 3.054688 -8.847656 C 2.484375 -9.429688 1.714844 -9.523438 0.914062 -9.109375 C 0.046875 -8.65625 -0.320312 -8.195312 -0.128906 -7.824219 C 0.34375 -6.917969 5.691406 -10.0625 7.242188 -7.085938 C 8.167969 -5.3125 7.210938 -3.550781 4.570312 -2.222656 Z M 4.570312 -2.222656 "/></g></g></g><g fill="rgb(100%, 100%, 100%)" fill-opacity="1"><g transform="translate(239.69176, 269.947283)"><g><path d="M -2.136719 -10.515625 L -4.859375 -8.761719 L 0.554688 -0.355469 L 3.277344 -2.113281 Z M -2.136719 -10.515625 "/></g></g></g><g fill="rgb(100%, 100%, 100%)" fill-opacity="1"><g transform="translate(245.118797, 266.497094)"><g><path d="M 2.386719 -7.171875 L 5.167969 -8.710938 C 6.277344 -6.480469 5.894531 -4.40625 4.066406 -2.976562 C 1.800781 -1.203125 -0.632812 -1.6875 -2.652344 -4.269531 C -4.683594 -6.867188 -4.554688 -9.332031 -2.285156 -11.105469 C -0.460938 -12.53125 1.632812 -12.417969 3.542969 -10.789062 L 1.378906 -8.460938 C 0.648438 -9.136719 -0.0585938 -9.292969 -0.546875 -8.910156 C -1.207031 -8.394531 -1.070312 -7.4375 -0.132812 -6.242188 C 0.789062 -5.058594 1.6875 -4.691406 2.347656 -5.210938 C 2.867188 -5.617188 2.882812 -6.3125 2.386719 -7.171875 Z M 2.386719 -7.171875 "/></g></g></g></svg>